<svg id="Illustration" xmlns="http://www.w3.org/2000/svg" viewBox="0 0 1440 810">
    <defs>
        <style>.cls-1{fill:#08312A;}.cls-2{fill:#00E47C;}</style>
    </defs>
    <rect class="cls-1" width="1440" height="810" />
    <g id="Illustration-2" data-name="Illustration">
        <path class="cls-2"
            d="M810.31,326a2.73,2.73,0,0,1,3.15-2.1c10.85,2.1,23.44,5.6,33.24,13.3,19.25,15.05,23.1,41.64,24.15,63.34.7,11.9.7,24.49-4.9,35.69-7,13.3-20,18.2-34.29,22.4H831a2.63,2.63,0,0,1-2.45-1.75,2.5,2.5,0,0,1,1.75-3.15c13.64-3.85,25.19-8,31.14-19.6,4.9-9.8,4.9-21.69,4.2-32.89-1.05-20.65-4.55-45.84-22.05-59.49-9.1-7-20.64-10.15-30.79-12.25C811,328.78,810,327.38,810.31,326ZM631.14,501.3a40,40,0,0,0,11.55,1.75,44.64,44.64,0,0,0,18.55-4.2l4.2-2.1c5.6-2.8,10.84-5.25,16.09-4.2,1.4.35,3.15,1.05,4.9,1.4,6.3,2.1,14,4.55,20-2.45,4.2-5.25,2.8-12.25,2.1-16.45a2.68,2.68,0,1,0-5.25,1.05c1,4.2,1.75,9.1-.7,11.9-3.5,4.2-7.7,3.15-14.35.7-1.75-.7-3.85-1.05-5.6-1.75-7-1.4-13.29,1.4-19.59,4.55a34.1,34.1,0,0,1-3.85,1.75c-9.1,3.85-18.55,4.55-26.25,2.1-8.4-2.8-14.69-10.15-15-17.85a2.63,2.63,0,0,0-5.25.35C612.6,488.7,620.3,497.8,631.14,501.3Zm98.68,46.54c-7.34-.7-14.69-3.15-22.74-6-9.45-3.15-19.25-6.3-29.05-6.65a50.24,50.24,0,0,0-11.89,1.4c-2.1.35-4.2,1.05-7.35,1.4-2.1.35-4.2-.35-6.65-.7l-5.25-1.05c-7.7-.7-15,2.8-21.35,6-1.4.7-3.14,1.4-4.54,2.1l-.35.35a34.83,34.83,0,0,1-10.15,3.15A6.13,6.13,0,0,0,606,552a6.93,6.93,0,0,0,1.4,6.3L614,565c11.89,11.89,18.89,18.89,39.89,23.09a76.52,76.52,0,0,0,12.6,1c26.94,0,50.39-16.79,66.13-30.44a6.07,6.07,0,0,0,1.75-6.3C734.37,549.94,732.27,548.19,729.82,547.84ZM973.38,368.67c7,15.05-2.45,33.25-9.1,46.55l-1.4,2.44c-4.2,8-8,16.1-11.9,24.15-2.45,4.9-4.9,9.45-7.35,14.35A136.54,136.54,0,0,1,937,468.41a183.83,183.83,0,0,1,8.4,86.08c-4.9,32.89-19.59,59.14-41.64,76.28,3.85,13.65,7.35,25.2,9.8,31.15,1.4,3.15,2.8,6.65,2.1,10.5-.35,3.15-2.1,5.94-3.85,8.39-32.19,46.9-98.68,74.19-176,74.19a354.6,354.6,0,0,1-46.54-3.15c-10.85-1.4-18.54-7.35-20.64-16.1-1.05-4.55-3.5-12.59-6.3-21.69-3.85-12.6-8.75-28.35-11.55-40.24h-2.1c-7.7-.7-17.15-2.45-25.2-7.35-5.59-3.5-9.79-8.75-14-14-42.34-53.19-72.09-119-84.69-185.46-9.79-2.1-18.54-5.6-25.54-10.5-16.8-11.2-28.35-30.45-32.89-53.89-3.85-20.65-1.75-41.64,0-62.29,1.05-10.85,10.14-13.65,18.19-15.05,11.2-1.75,24.5-3.5,38.84-4.55-.35-4.9-.35-9.79-.35-14.69-9.44-93.09,32.2-163.77,77.34-192.47,33.59-21.34,66.14-36.39,99-45.84l1.75-.35c27.29-8,64.74-18.89,93.08-7.35,2.45,1,5.6,2.8,7.35,5.6,57-9.1,111.28,64.39,131.93,96.93,32.89,51.09,45.84,119.68,38.49,203.66A8.77,8.77,0,0,1,973.38,368.67ZM738.92,158.36A617.68,617.68,0,0,1,866.65,285c1.75,2.45,3.85,5.25,5.6,7.7,8.75,12.25,17.14,23.79,28.69,32.19,27.65,4.55,48.64,9.1,49.69,9.45,6,2.8,7.7,17.5,7.7,18.2a23.23,23.23,0,0,1,.35,4.55,19.27,19.27,0,0,1,8.75,3.5c6.3-80.49-6.65-146.28-38.14-195.62C909,133.52,856.85,61.78,802.61,70.18c0,1-.35,2.1-.35,2.8C796,102.38,765.52,138.42,738.92,158.36ZM528.61,305.69v.7c0,4.55,0,9.09.35,14,101.48-8.74,261-7,269.1-7,25.2.35,61.59,5.25,92.73,10.15-8.74-8-15.74-17.49-22.74-27.64-1.75-2.45-3.5-4.9-5.6-7.7-35.34-47.94-78.39-90.28-127.73-126.68h0c-21,14.35-49.69,18.2-75.23,21.35-4.9.7-9.45,1.4-14,1.75-8.75,1.4-17.85,1.75-26.94,2.1-15.4.7-31.15,1.4-44.45,5.95-12.24,4.2-22,15.05-30.09,33.24-10.15,21.7-15.4,50-15.4,79.79Zm-.7-47.24a157.7,157.7,0,0,1,10.85-34.3c8.75-19.24,19.6-31.14,33.24-35.69,14-4.9,30.1-5.6,45.85-6.3,9.44-.35,18.19-.7,26.59-2.1,4.55-.7,9.45-1.4,14.35-1.75,25.89-3.5,52.84-7,72.78-20.3,26.95-18.19,59.49-56.68,65.44-84.68.35-1.4.7-3.15,0-4.2-.7-1.4-2.8-2.45-4.9-3.15-8.05-3.5-17.14-4.55-26.59-4.55-21.35,0-44.44,6.65-63,11.9l-1.75.35c-32.54,8.4-64.39,23.45-97.63,44.44C567.11,140.87,533.86,191.26,527.91,258.45Zm75.24,183.36c6-4.55,9.8-11.55,13.65-17.85,7-11.89,14.34-24.49,33.24-24.49a52.22,52.22,0,0,1,7.35.7c16.8,2.45,22,14.7,26.94,26.59,2.45,5.6,4.9,11.55,8.4,15.75,7.35,9.1,19.6,20.3,31.85,23.8,14.69,4.19,28.34,6.29,41.29,6.29h0c39.54,0,82.93-3.84,108.48-31.49,30.09-32.89,71.38-76.28,78.38-82.58,1-3.5-2.1-18.2-4.9-19.25-2.45-.7-100.43-20.3-150.47-21-9.1,0-223.26-2.45-312.14,11.9-9.45,1.4-13.3,4.55-14,10.15-1.75,19.95-3.84,40.59,0,60.54,4.2,22,15,39.89,30.45,50.39C532.81,473,576.2,462.81,603.15,441.81Zm330,31.84c-5.95,8.05-13.3,14.35-23.1,16.1-1,.35-2.45.35-3.5.7a28.08,28.08,0,0,0-6.3,1.4c-6.3,2.8-8,10.85-9.45,18.2a170,170,0,0,1-7.69,25.89c.69,15,10.49,56.69,19.24,88.89C934.54,597.88,955.18,538.74,933.14,473.65Zm35.34-102.88c-2.1-4.55-7-8.74-12.25-8-6.3,5.24-45.84,46.89-78,82.23-26.6,29-71.74,33.24-112.33,33.24h0c-13.3,0-27.3-2.1-42.69-6.65-13.3-3.84-26.6-15.74-34.65-25.54-4.2-5.25-6.65-11.2-9.1-17.15-4.89-11.55-9.09-21.34-22.74-23.44-21.35-3.15-28,8.4-35.69,21.34-4.2,7-8.4,14.35-15,19.6-25.55,19.95-53.19,25.19-75.94,22.05,12.6,65.08,42,129.12,82.59,180.91,3.85,4.9,7.7,9.45,12.94,12.95,7,4.55,16.1,6,23.1,6.65A146.65,146.65,0,0,0,707.78,663a2.55,2.55,0,1,1,1.4,4.9,157.17,157.17,0,0,1-46.19,7,56.71,56.71,0,0,1-7.7-.35c2.8,11.54,7.35,26.24,10.85,38.14,2.8,9.1,5.25,17.14,6.3,21.69,2.45,9.45,12.24,11.9,16.09,12.25C783,759.55,868.4,732.25,905.84,677.66c1.4-2.09,2.8-4.19,2.8-5.94.35-2.45-.7-4.9-1.75-7.7-7.35-18.55-25.19-87.14-29.74-117.93-15.75,33.59-43,62.29-77.34,80.48-.35.35-.7.35-1.4.35a2.64,2.64,0,0,1-2.45-1.4,2.42,2.42,0,0,1,1-3.49c36-19.25,64.39-50.74,78.74-86.79h0a164.82,164.82,0,0,0,7.7-25.54c1.74-8.05,3.84-17.85,12.59-22.05,2.45-1,5.25-1.4,7.7-2.1a10.22,10.22,0,0,0,3.15-.7c14.7-3.15,23.1-17.49,29.74-31.14,2.45-4.9,4.9-9.45,7.35-14.35,3.85-8.05,8-16.1,12.25-24.14l1.4-2.8C966,399.82,974.43,383.72,968.48,370.77ZM623.1,355a61.29,61.29,0,0,0,7.69,3.5h.7a2.56,2.56,0,0,0,2.45-2.1,2.5,2.5,0,0,0-1.75-3.15c-1.4-.35-3.85-1.75-6.65-3.15-15-7.7-46.19-23.8-95.88-5.95a2.77,2.77,0,0,0,1.75,5.25C579,331.93,608.75,347.33,623.1,355Zm77.68,6.65a2.1,2.1,0,0,0,1.4-.35c30.44-20.65,72.79-25.2,107.43-11.2a2.67,2.67,0,1,0,2.1-4.9c-36.39-14.7-80.49-10.15-112.33,11.55a2.71,2.71,0,0,0-.7,3.5A2.18,2.18,0,0,0,700.78,361.68Zm101.48,18.19c-9.1-3.5-20-8.05-31.14-9.8h-.35c-1,0-2.1-.35-3.5-.35H754.32c-1.05,0-2.1.35-3.5.35a2.1,2.1,0,0,0-1.4.35c-1.4.35-2.45.35-3.85.7-.35,0-1.05.35-1.4.35a10.22,10.22,0,0,1-3.15.7c-.35,0-.7.35-1,.35a17.06,17.06,0,0,0-3.85,1.4,1.08,1.08,0,0,0-.7.35h0c-9.79,3.85-19.24,9.45-24.84,17.85a2.71,2.71,0,0,0,.7,3.5,2.1,2.1,0,0,0,1.4.35,2.49,2.49,0,0,0,2.1-1.05c4.2-6.65,11.2-11.55,19.24-14.7a19.37,19.37,0,0,0,3.5,7.7c4.2,5.25,11.2,8.4,18.9,8.4a17.42,17.42,0,0,0,14.35-7,18.71,18.71,0,0,0,3.5-12.25V376a187.31,187.31,0,0,1,25.89,8.4,2.56,2.56,0,0,0,3.5-1.4C804,382,803.66,380.22,802.26,379.87ZM605.6,376.72h0a2.65,2.65,0,0,0-1.4-.7c-1.05-.35-2.1-1-3.15-1.4a5,5,0,0,0-2.1-.7c-1.05-.35-2.1-.7-3.5-1.05-.7-.35-1.4-.35-2.1-.7a14.88,14.88,0,0,0-3.85-.7,15.16,15.16,0,0,1-1.75-.35,30.63,30.63,0,0,0-5.6-.7H576.2a7.71,7.71,0,0,0-2.8.35c-1,0-2.09.35-3.49.35h-1.4c-.35,0-.35,0-.7.35A51,51,0,0,0,541.56,382a2.7,2.7,0,0,0-.35,3.85,2.74,2.74,0,0,0,3.85.35,55.53,55.53,0,0,1,20.65-9.45v4.55c1,8.75,8,15.4,17.84,16.45,1.05,0,2.1.35,2.8.35,7.7,0,15.75-3.5,18.9-12.25l.35-.7c.35-.7.35-1.4.7-2.1a51.8,51.8,0,0,1,10.15,7.7,2.54,2.54,0,0,0,3.5,0,2.75,2.75,0,0,0,0-3.85A51,51,0,0,0,605.6,376.72Z" />
    </g>
</svg>