<svg xmlns="http://www.w3.org/2000/svg" xmlns:xlink="http://www.w3.org/1999/xlink" class="httpgd" width="1510.00" height="1242.00" viewBox="0 0 604.00 496.80">
<defs>
  <style type='text/css'><![CDATA[
    .httpgd line, .httpgd polyline, .httpgd polygon, .httpgd path, .httpgd rect, .httpgd circle {
      fill: none;
      stroke: #000000;
      stroke-linecap: round;
      stroke-linejoin: round;
      stroke-miterlimit: 10.00;
    }
  ]]></style>
<clipPath id="c0"><rect x="0.00" y="0.00" width="604.00" height="496.80"/></clipPath>
<clipPath id="c1"><rect x="0.00" y="0.00" width="302.00" height="496.80"/></clipPath>
<clipPath id="c2"><rect x="59.04" y="59.04" width="212.72" height="364.32"/></clipPath>
<clipPath id="c3"><rect x="361.04" y="59.04" width="212.72" height="364.32"/></clipPath>
<clipPath id="c4"><rect x="0.00" y="0.00" width="604.00" height="496.80"/></clipPath>
<clipPath id="c5"><rect x="302.00" y="0.00" width="302.00" height="496.80"/></clipPath>
<clipPath id="c6"><rect x="361.04" y="59.04" width="212.72" height="364.32"/></clipPath>
</defs>
<rect width="100%" height="100%" style="stroke: none;fill: #FFFFFF;"/>
<g clip-path="url(#c0)">
<line x1="66.92" y1="423.36" x2="270.48" y2="423.36" style="stroke-width: 0.75;"/>
<line x1="66.92" y1="423.36" x2="66.92" y2="430.56" style="stroke-width: 0.75;"/>
<line x1="107.63" y1="423.36" x2="107.63" y2="430.56" style="stroke-width: 0.75;"/>
<line x1="148.34" y1="423.36" x2="148.34" y2="430.56" style="stroke-width: 0.75;"/>
<line x1="189.05" y1="423.36" x2="189.05" y2="430.56" style="stroke-width: 0.75;"/>
<line x1="229.77" y1="423.36" x2="229.77" y2="430.56" style="stroke-width: 0.75;"/>
<line x1="270.48" y1="423.36" x2="270.48" y2="430.56" style="stroke-width: 0.75;"/>
<g><text x="66.92" y="449.28" text-anchor="middle" style="font-family: Arial;font-size: 12.00px;" textLength="6.67px" lengthAdjust="spacingAndGlyphs">0</text></g>
<g><text x="107.63" y="449.28" text-anchor="middle" style="font-family: Arial;font-size: 12.00px;" textLength="20.02px" lengthAdjust="spacingAndGlyphs">500</text></g>
<g><text x="148.34" y="449.28" text-anchor="middle" style="font-family: Arial;font-size: 12.00px;" textLength="26.70px" lengthAdjust="spacingAndGlyphs">1000</text></g>
<g><text x="189.05" y="449.28" text-anchor="middle" style="font-family: Arial;font-size: 12.00px;" textLength="26.70px" lengthAdjust="spacingAndGlyphs">1500</text></g>
<g><text x="229.77" y="449.28" text-anchor="middle" style="font-family: Arial;font-size: 12.00px;" textLength="26.70px" lengthAdjust="spacingAndGlyphs">2000</text></g>
<g><text x="270.48" y="449.28" text-anchor="middle" style="font-family: Arial;font-size: 12.00px;" textLength="26.70px" lengthAdjust="spacingAndGlyphs">2500</text></g>
<line x1="59.04" y1="409.87" x2="59.04" y2="72.53" style="stroke-width: 0.75;"/>
<line x1="59.04" y1="409.87" x2="51.84" y2="409.87" style="stroke-width: 0.75;"/>
<line x1="59.04" y1="342.40" x2="51.84" y2="342.40" style="stroke-width: 0.75;"/>
<line x1="59.04" y1="274.93" x2="51.84" y2="274.93" style="stroke-width: 0.75;"/>
<line x1="59.04" y1="207.47" x2="51.84" y2="207.47" style="stroke-width: 0.75;"/>
<line x1="59.04" y1="140.00" x2="51.84" y2="140.00" style="stroke-width: 0.75;"/>
<line x1="59.04" y1="72.53" x2="51.84" y2="72.53" style="stroke-width: 0.75;"/>
<g><text transform="translate(41.76,409.87) rotate(-90.00)" text-anchor="middle" style="font-family: Arial;font-size: 12.00px;" textLength="16.68px" lengthAdjust="spacingAndGlyphs">0.0</text></g>
<g><text transform="translate(41.76,342.40) rotate(-90.00)" text-anchor="middle" style="font-family: Arial;font-size: 12.00px;" textLength="16.68px" lengthAdjust="spacingAndGlyphs">0.2</text></g>
<g><text transform="translate(41.76,274.93) rotate(-90.00)" text-anchor="middle" style="font-family: Arial;font-size: 12.00px;" textLength="16.68px" lengthAdjust="spacingAndGlyphs">0.4</text></g>
<g><text transform="translate(41.76,207.47) rotate(-90.00)" text-anchor="middle" style="font-family: Arial;font-size: 12.00px;" textLength="16.68px" lengthAdjust="spacingAndGlyphs">0.6</text></g>
<g><text transform="translate(41.76,140.00) rotate(-90.00)" text-anchor="middle" style="font-family: Arial;font-size: 12.00px;" textLength="16.68px" lengthAdjust="spacingAndGlyphs">0.8</text></g>
<g><text transform="translate(41.76,72.53) rotate(-90.00)" text-anchor="middle" style="font-family: Arial;font-size: 12.00px;" textLength="16.68px" lengthAdjust="spacingAndGlyphs">1.0</text></g>
<polygon points="59.04,423.36 271.76,423.36 271.76,59.04 59.04,59.04" style="stroke-width: 0.75;" />
</g><g clip-path="url(#c1)">
<g><text x="165.40" y="34.70" text-anchor="middle" style="font-family: Arial;font-size: 14.40px;font-weight: bold;" textLength="97.54px" lengthAdjust="spacingAndGlyphs">Weibull model</text></g>
<g><text x="165.40" y="478.08" text-anchor="middle" style="font-family: Arial;font-size: 12.00px;" textLength="26.66px" lengthAdjust="spacingAndGlyphs">Time</text></g>
<g><text transform="translate(12.96,241.20) rotate(-90.00)" text-anchor="middle" style="font-family: Arial;font-size: 12.00px;" textLength="100.70px" lengthAdjust="spacingAndGlyphs">Survival probability</text></g>
</g><g clip-path="url(#c2)">
<polyline points="66.92,72.53 67.65,72.53 67.65,73.06 67.98,73.06 67.98,74.64 68.22,74.64 68.22,75.17 68.38,75.17 68.38,75.70 68.55,75.70 68.55,76.77 68.63,76.77 68.63,77.31 68.79,77.31 68.79,77.84 68.87,77.84 68.87,79.45 68.95,79.45 68.95,79.99 69.12,79.99 69.12,82.15 69.20,82.15 69.20,82.69 69.52,82.69 69.52,83.23 69.61,83.23 69.61,83.77 69.69,83.77 69.69,84.31 70.18,84.31 70.18,84.85 70.50,84.85 70.50,85.39 70.58,85.39 70.58,85.93 70.66,85.93 70.66,86.47 70.99,86.47 70.99,87.55 71.15,87.55 71.15,88.10 71.48,88.10 71.48,88.64 72.05,88.64 72.05,89.18 72.21,89.18 72.21,89.72 72.94,89.72 72.94,90.27 73.11,90.27 73.11,90.81 73.19,90.81 73.19,91.35 73.84,91.35 73.84,91.90 73.92,91.90 73.92,92.44 74.17,92.44 74.17,92.99 74.65,92.99 74.65,93.53 74.98,93.53 74.98,94.08 75.31,94.08 75.31,94.62 75.39,94.62 75.39,95.17 75.55,95.17 75.55,95.71 75.88,95.71 75.88,96.26 76.04,96.26 76.04,96.80 76.36,96.80 76.36,97.35 76.69,97.35 76.69,97.89 76.77,97.89 76.77,98.44 76.85,98.44 76.85,98.99 77.34,98.99 77.34,99.53 77.58,99.53 77.58,100.08 78.32,100.08 78.32,101.17 78.64,101.17 78.64,102.26 78.72,102.26 78.72,102.81 78.81,102.81 78.81,103.36 78.97,103.36 78.97,104.45 79.46,104.45 79.46,105.00 79.62,105.00 79.62,106.09 79.70,106.09 79.70,106.64 80.19,106.64 80.19,107.18 80.43,107.18 80.43,107.73 80.52,107.73 80.52,108.82 80.60,108.82 80.60,109.37 80.76,109.37 80.76,109.92 81.49,109.92 81.49,110.47 81.57,110.47 81.57,111.02 81.66,111.02 81.66,111.57 81.98,111.57 81.98,112.66 82.14,112.66 82.14,113.21 82.23,113.21 82.23,113.76 82.47,113.76 82.47,114.86 82.63,114.86 82.63,115.40 82.96,115.40 82.96,115.95 83.28,115.95 83.28,116.50 83.45,116.50 83.45,117.05 83.69,117.05 83.69,117.60 83.94,117.60 83.94,118.15 84.02,118.15 84.02,118.70 84.26,118.70 84.26,119.25 84.42,119.25 84.42,119.80 84.51,119.80 84.51,120.35 84.67,120.35 84.67,120.90 85.32,120.90 85.32,121.45 85.65,121.45 85.65,122.00 85.73,122.00 85.73,122.55 85.81,122.55 85.81,123.10 85.97,123.10 85.97,123.64 86.05,123.64 86.05,124.74 86.22,124.74 86.22,125.29 86.38,125.29 86.38,125.84 86.62,125.84 86.62,126.39 86.87,126.39 86.87,126.94 86.95,126.94 86.95,128.04 87.11,128.04 87.11,130.25 87.44,130.25 87.44,130.80 87.52,130.80 87.52,131.35 87.68,131.35 87.68,131.90 87.93,131.90 87.93,133.00 88.01,133.00 88.01,133.55 88.09,133.55 88.09,134.10 88.17,134.10 88.17,134.65 88.25,134.65 88.25,135.20 88.33,135.20 88.33,135.75 88.58,135.75 88.58,136.30 88.66,136.30 88.66,137.40 88.82,137.40 88.82,137.95 89.15,137.95 89.15,138.50 89.31,138.50 89.31,139.60 89.55,139.60 89.55,140.15 89.80,140.15 89.80,140.70 89.96,140.70 89.96,141.25 90.04,141.25 90.04,141.80 90.21,141.80 90.21,143.46 90.37,143.46 90.37,144.01 90.78,144.01 90.78,145.66 90.94,145.66 90.94,146.76 91.10,146.76 91.10,147.31 91.59,147.31 91.59,147.86 91.75,147.86 91.75,148.41 91.92,148.41 91.92,148.96 92.00,148.96 92.00,149.51 92.16,149.51 92.16,150.06 92.40,150.06 92.40,150.61 92.81,150.61 92.81,151.16 92.89,151.16 92.89,151.71 93.14,151.71 93.14,153.37 93.46,153.37 93.46,154.47 93.71,154.47 93.71,155.02 93.95,155.02 93.95,155.57 94.03,155.57 94.03,156.13 94.11,156.13 94.11,156.68 94.36,156.68 94.36,157.78 94.68,157.78 94.68,158.33 94.77,158.33 94.77,158.88 94.93,158.88 94.93,159.44 95.82,159.44 95.82,160.54 95.91,160.54 95.91,161.09 96.15,161.09 96.15,161.64 96.23,161.64 96.23,162.19 96.56,162.19 96.56,162.74 96.64,162.74 96.64,163.30 96.88,163.30 96.88,164.40 96.96,164.40 96.96,164.95 97.21,164.95 97.21,165.50 97.29,165.50 97.29,166.05 97.37,166.05 97.37,166.61 97.45,166.61 97.45,167.16 97.94,167.16 97.94,167.71 98.10,167.71 98.10,168.26 98.27,168.26 98.27,169.37 98.35,169.37 98.35,169.92 98.51,169.92 98.51,171.03 99.16,171.03 99.16,171.58 99.24,171.58 99.24,172.13 99.49,172.13 99.49,173.24 99.73,173.24 99.73,173.79 100.14,173.79 100.14,174.90 100.22,174.90 100.22,175.45 100.30,175.45 100.30,176.00 100.38,176.00 100.38,177.66 100.95,177.66 100.95,178.22 101.03,178.22 101.03,178.77 101.12,178.77 101.12,179.32 101.36,179.32 101.36,179.87 101.44,179.87 101.44,180.43 102.01,180.43 102.01,180.98 102.09,180.98 102.09,181.53 102.58,181.53 102.58,182.09 102.66,182.09 102.66,182.65 102.99,182.65 102.99,183.20 103.23,183.20 103.23,183.76 103.31,183.76 103.31,184.32 104.05,184.32 104.05,184.87 104.21,184.87 104.21,185.43 104.37,185.43 104.37,185.99 104.45,185.99 104.45,186.54 104.54,186.54 104.54,187.10 104.70,187.10 104.70,187.66 104.78,187.66 104.78,188.77 105.68,188.77 105.68,189.89 106.00,189.89 106.00,190.44 106.41,190.44 106.41,191.00 106.49,191.00 106.49,191.56 107.22,191.56 107.22,192.11 107.39,192.11 107.39,192.67 107.55,192.67 107.55,193.23 108.12,193.23 108.12,193.78 108.53,193.78 108.53,194.34 108.69,194.34 108.69,194.90 108.85,194.90 108.85,195.46 108.93,195.46 108.93,196.01 109.01,196.01 109.01,196.57 109.10,196.57 109.10,197.69 109.42,197.69 109.42,198.25 109.58,198.25 109.58,198.80 109.99,198.80 109.99,199.36 110.15,199.36 110.15,199.92 110.81,199.92 110.81,200.48 110.89,200.48 110.89,201.04 111.54,201.04 111.54,201.60 112.60,201.60 112.60,202.15 112.76,202.15 112.76,203.27 112.92,203.27 112.92,204.39 113.49,204.39 113.49,204.95 113.66,204.95 113.66,205.51 113.74,205.51 113.74,206.07 113.98,206.07 113.98,206.63 114.31,206.63 114.31,207.19 114.80,207.19 114.80,207.75 115.69,207.75 115.69,208.31 115.94,208.31 115.94,208.87 116.02,208.87 116.02,209.43 116.51,209.43 116.51,210.56 116.91,210.56 116.91,211.12 117.48,211.12 117.48,211.69 119.36,211.69 119.36,212.25 119.93,212.25 119.93,212.81 120.50,212.81 120.50,213.38 120.98,213.38 120.98,213.94 121.47,213.94 121.47,214.50 121.55,214.50 121.55,215.06 122.20,215.06 122.20,215.63 123.26,215.63 123.26,216.19 123.59,216.19 123.59,216.75 123.67,216.75 123.67,217.88 124.48,217.88 124.48,219.01 126.11,219.01 126.11,219.57 126.85,219.57 126.85,220.14 127.33,220.14 127.33,220.70 127.42,220.70 127.42,221.27 127.82,221.27 127.82,221.83 128.15,221.83 128.15,222.40 128.72,222.40 128.72,222.96 128.96,222.96 128.96,223.53 129.45,223.53 129.45,224.09 129.70,224.09 129.70,224.66 129.94,224.66 129.94,225.22 130.35,225.22 130.35,225.78 132.06,225.78 132.06,226.35 132.46,226.35 132.46,226.91 132.95,226.91 132.95,227.48 133.93,227.48 133.93,228.04 134.17,228.04 134.17,228.61 134.42,228.61 134.42,229.17 134.74,229.17 134.74,229.74 134.83,229.74 134.83,230.30 135.15,230.30 135.15,230.87 137.51,230.87 137.51,231.43 138.08,231.43 138.08,232.56 138.90,232.56 138.90,233.13 139.55,233.13 139.55,233.69 140.77,233.69 140.77,234.26 141.58,234.26 141.58,234.82 145.33,234.82 145.33,235.39 145.41,235.39 145.41,235.96 146.06,235.96 146.06,236.53 148.91,236.53 148.91,237.10 149.97,237.10 149.97,237.66 150.05,237.66 150.05,238.23 151.11,238.23 151.11,238.80 155.26,238.80 155.26,239.37 156.65,239.37 156.65,239.95 158.85,239.95 158.85,240.52 161.70,240.52 161.70,241.10 166.25,241.10 166.25,241.68 167.96,241.68 167.96,242.26 168.29,242.26 168.29,242.84 169.02,242.84 169.02,243.42 171.38,243.42 171.38,244.01 173.18,244.01 173.18,244.60 178.47,244.60 178.47,245.23 179.20,245.23 179.20,245.88 181.64,245.88 181.64,246.55 192.07,246.55 192.07,247.34 193.29,247.34 193.29,248.12 198.91,248.12 198.91,248.94 216.09,248.94 216.09,250.16 222.84,250.16 222.84,251.61 252.81,251.61 252.81,260.40 263.88,260.40" style="stroke-width: 0.75;"/>
<polyline points="66.92,72.53 67.65,72.53 67.65,74.08 67.98,74.08 67.98,76.69 68.22,76.69 68.22,77.46 68.38,77.46 68.38,78.22 68.55,78.22 68.55,79.68 68.63,79.68 68.63,80.39 68.79,80.39 68.79,81.09 68.87,81.09 68.87,83.16 68.95,83.16 68.95,83.83 69.12,83.83 69.12,86.50 69.20,86.50 69.20,87.15 69.52,87.15 69.52,87.81 69.61,87.81 69.61,88.46 69.69,88.46 69.69,89.11 70.18,89.11 70.18,89.75 70.50,89.75 70.50,90.40 70.58,90.40 70.58,91.04 70.66,91.04 70.66,91.67 70.99,91.67 70.99,92.95 71.15,92.95 71.15,93.58 71.48,93.58 71.48,94.21 72.05,94.21 72.05,94.84 72.21,94.84 72.21,95.47 72.94,95.47 72.94,96.10 73.11,96.10 73.11,96.73 73.19,96.73 73.19,97.36 73.84,97.36 73.84,97.98 73.92,97.98 73.92,98.60 74.17,98.60 74.17,99.23 74.65,99.23 74.65,99.85 74.98,99.85 74.98,100.47 75.31,100.47 75.31,101.09 75.39,101.09 75.39,101.71 75.55,101.71 75.55,102.33 75.88,102.33 75.88,102.95 76.04,102.95 76.04,103.56 76.36,103.56 76.36,104.18 76.69,104.18 76.69,104.79 76.77,104.79 76.77,105.40 76.85,105.40 76.85,106.02 77.34,106.02 77.34,106.63 77.58,106.63 77.58,107.24 78.32,107.24 78.32,108.46 78.64,108.46 78.64,109.68 78.72,109.68 78.72,110.29 78.81,110.29 78.81,110.89 78.97,110.89 78.97,112.10 79.46,112.10 79.46,112.71 79.62,112.71 79.62,113.92 79.70,113.92 79.70,114.52 80.19,114.52 80.19,115.12 80.43,115.12 80.43,115.72 80.52,115.72 80.52,116.93 80.60,116.93 80.60,117.53 80.76,117.53 80.76,118.13 81.49,118.13 81.49,118.73 81.57,118.73 81.57,119.33 81.66,119.33 81.66,119.93 81.98,119.93 81.98,121.12 82.14,121.12 82.14,121.72 82.23,121.72 82.23,122.32 82.47,122.32 82.47,123.51 82.63,123.51 82.63,124.11 82.96,124.11 82.96,124.71 83.28,124.71 83.28,125.30 83.45,125.30 83.45,125.90 83.69,125.90 83.69,126.49 83.94,126.49 83.94,127.09 84.02,127.09 84.02,127.68 84.26,127.68 84.26,128.27 84.42,128.27 84.42,128.87 84.51,128.87 84.51,129.46 84.67,129.46 84.67,130.05 85.32,130.05 85.32,130.65 85.65,130.65 85.65,131.24 85.73,131.24 85.73,131.83 85.81,131.83 85.81,132.42 85.97,132.42 85.97,133.01 86.05,133.01 86.05,134.19 86.22,134.19 86.22,134.78 86.38,134.78 86.38,135.37 86.62,135.37 86.62,135.96 86.87,135.96 86.87,136.55 86.95,136.55 86.95,137.73 87.11,137.73 87.11,140.08 87.44,140.08 87.44,140.66 87.52,140.66 87.52,141.25 87.68,141.25 87.68,141.84 87.93,141.84 87.93,143.01 88.01,143.01 88.01,143.59 88.09,143.59 88.09,144.18 88.17,144.18 88.17,144.76 88.25,144.76 88.25,145.35 88.33,145.35 88.33,145.93 88.58,145.93 88.58,146.52 88.66,146.52 88.66,147.68 88.82,147.68 88.82,148.27 89.15,148.27 89.15,148.85 89.31,148.85 89.31,150.01 89.55,150.01 89.55,150.59 89.80,150.59 89.80,151.18 89.96,151.18 89.96,151.76 90.04,151.76 90.04,152.34 90.21,152.34 90.21,154.08 90.37,154.08 90.37,154.66 90.78,154.66 90.78,156.40 90.94,156.40 90.94,157.56 91.10,157.56 91.10,158.13 91.59,158.13 91.59,158.71 91.75,158.71 91.75,159.29 91.92,159.29 91.92,159.87 92.00,159.87 92.00,160.44 92.16,160.44 92.16,161.02 92.40,161.02 92.40,161.60 92.81,161.60 92.81,162.18 92.89,162.18 92.89,162.75 93.14,162.75 93.14,164.48 93.46,164.48 93.46,165.64 93.71,165.64 93.71,166.21 93.95,166.21 93.95,166.79 94.03,166.79 94.03,167.36 94.11,167.36 94.11,167.94 94.36,167.94 94.36,169.09 94.68,169.09 94.68,169.67 94.77,169.67 94.77,170.24 94.93,170.24 94.93,170.82 95.82,170.82 95.82,171.96 95.91,171.96 95.91,172.54 96.15,172.54 96.15,173.11 96.23,173.11 96.23,173.69 96.56,173.69 96.56,174.26 96.64,174.26 96.64,174.83 96.88,174.83 96.88,175.98 96.96,175.98 96.96,176.55 97.21,176.55 97.21,177.12 97.29,177.12 97.29,177.69 97.37,177.69 97.37,178.27 97.45,178.27 97.45,178.84 97.94,178.84 97.94,179.41 98.10,179.41 98.10,179.98 98.27,179.98 98.27,181.13 98.35,181.13 98.35,181.70 98.51,181.70 98.51,182.84 99.16,182.84 99.16,183.41 99.24,183.41 99.24,183.99 99.49,183.99 99.49,185.13 99.73,185.13 99.73,185.70 100.14,185.70 100.14,186.84 100.22,186.84 100.22,187.41 100.30,187.41 100.30,187.98 100.38,187.98 100.38,189.69 100.95,189.69 100.95,190.26 101.03,190.26 101.03,190.83 101.12,190.83 101.12,191.40 101.36,191.40 101.36,191.96 101.44,191.96 101.44,192.53 102.01,192.53 102.01,193.10 102.09,193.10 102.09,193.67 102.58,193.67 102.58,194.24 102.66,194.24 102.66,194.81 102.99,194.81 102.99,195.39 103.23,195.39 103.23,195.96 103.31,195.96 103.31,196.53 104.05,196.53 104.05,197.10 104.21,197.10 104.21,197.67 104.37,197.67 104.37,198.24 104.45,198.24 104.45,198.81 104.54,198.81 104.54,199.39 104.70,199.39 104.70,199.96 104.78,199.96 104.78,201.10 105.68,201.10 105.68,202.24 106.00,202.24 106.00,202.81 106.41,202.81 106.41,203.38 106.49,203.38 106.49,203.95 107.22,203.95 107.22,204.52 107.39,204.52 107.39,205.08 107.55,205.08 107.55,205.65 108.12,205.65 108.12,206.22 108.53,206.22 108.53,206.79 108.69,206.79 108.69,207.36 108.85,207.36 108.85,207.93 108.93,207.93 108.93,208.50 109.01,208.50 109.01,209.06 109.10,209.06 109.10,210.20 109.42,210.20 109.42,210.77 109.58,210.77 109.58,211.34 109.99,211.34 109.99,211.91 110.15,211.91 110.15,212.48 110.81,212.48 110.81,213.05 110.89,213.05 110.89,213.62 111.54,213.62 111.54,214.18 112.60,214.18 112.60,214.75 112.76,214.75 112.76,215.89 112.92,215.89 112.92,217.02 113.49,217.02 113.49,217.59 113.66,217.59 113.66,218.16 113.74,218.16 113.74,218.73 113.98,218.73 113.98,219.29 114.31,219.29 114.31,219.86 114.80,219.86 114.80,220.43 115.69,220.43 115.69,221.00 115.94,221.00 115.94,221.57 116.02,221.57 116.02,222.14 116.51,222.14 116.51,223.28 116.91,223.28 116.91,223.85 117.48,223.85 117.48,224.42 119.36,224.42 119.36,224.99 119.93,224.99 119.93,225.56 120.50,225.56 120.50,226.13 120.98,226.13 120.98,226.70 121.47,226.70 121.47,227.27 121.55,227.27 121.55,227.84 122.20,227.84 122.20,228.41 123.26,228.41 123.26,228.98 123.59,228.98 123.59,229.55 123.67,229.55 123.67,230.69 124.48,230.69 124.48,231.82 126.11,231.82 126.11,232.39 126.85,232.39 126.85,232.96 127.33,232.96 127.33,233.53 127.42,233.53 127.42,234.10 127.82,234.10 127.82,234.67 128.15,234.67 128.15,235.24 128.72,235.24 128.72,235.81 128.96,235.81 128.96,236.38 129.45,236.38 129.45,236.95 129.70,236.95 129.70,237.52 129.94,237.52 129.94,238.08 130.35,238.08 130.35,238.65 132.06,238.65 132.06,239.22 132.46,239.22 132.46,239.79 132.95,239.79 132.95,240.35 133.93,240.35 133.93,240.92 134.17,240.92 134.17,241.49 134.42,241.49 134.42,242.06 134.74,242.06 134.74,242.62 134.83,242.62 134.83,243.19 135.15,243.19 135.15,243.76 137.51,243.76 137.51,244.32 138.08,244.32 138.08,245.45 138.90,245.45 138.90,246.02 139.55,246.02 139.55,246.59 140.77,246.59 140.77,247.15 141.58,247.15 141.58,247.72 145.33,247.72 145.33,248.29 145.41,248.29 145.41,248.86 146.06,248.86 146.06,249.43 148.91,249.43 148.91,250.00 149.97,250.00 149.97,250.57 150.05,250.57 150.05,251.13 151.11,251.13 151.11,251.70 155.26,251.70 155.26,252.27 156.65,252.27 156.65,252.85 158.85,252.85 158.85,253.42 161.70,253.42 161.70,254.00 166.25,254.00 166.25,254.58 167.96,254.58 167.96,255.16 168.29,255.16 168.29,255.74 169.02,255.74 169.02,256.32 171.38,256.32 171.38,256.91 173.18,256.91 173.18,257.50 178.47,257.50 178.47,258.14 179.20,258.14 179.20,258.79 181.64,258.79 181.64,259.47 192.07,259.47 192.07,260.27 193.29,260.27 193.29,261.08 198.91,261.08 198.91,261.91 216.09,261.91 216.09,263.23 222.84,263.23 222.84,264.83 252.81,264.83 252.81,280.19 263.88,280.19" style="stroke-width: 0.75; stroke-dasharray: 4.00, 4.00;"/>
<polyline points="66.92,72.53 67.98,72.53 67.98,72.58 68.22,72.58 68.22,72.86 68.38,72.86 68.38,73.17 68.55,73.17 68.55,73.84 68.63,73.84 68.63,74.20 68.79,74.20 68.79,74.56 68.87,74.56 68.87,75.71 68.95,75.71 68.95,76.11 69.12,76.11 69.12,77.74 69.20,77.74 69.20,78.16 69.52,78.16 69.52,78.58 69.61,78.58 69.61,79.01 69.69,79.01 69.69,79.44 70.18,79.44 70.18,79.87 70.50,79.87 70.50,80.30 70.58,80.30 70.58,80.74 70.66,80.74 70.66,81.18 70.99,81.18 70.99,82.07 71.15,82.07 71.15,82.52 71.48,82.52 71.48,82.96 72.05,82.96 72.05,83.41 72.21,83.41 72.21,83.87 72.94,83.87 72.94,84.32 73.11,84.32 73.11,84.78 73.19,84.78 73.19,85.24 73.84,85.24 73.84,85.70 73.92,85.70 73.92,86.16 74.17,86.16 74.17,86.62 74.65,86.62 74.65,87.08 74.98,87.08 74.98,87.55 75.31,87.55 75.31,88.02 75.39,88.02 75.39,88.48 75.55,88.48 75.55,88.95 75.88,88.95 75.88,89.42 76.04,89.42 76.04,89.89 76.36,89.89 76.36,90.37 76.69,90.37 76.69,90.84 76.77,90.84 76.77,91.32 76.85,91.32 76.85,91.79 77.34,91.79 77.34,92.27 77.58,92.27 77.58,92.75 78.32,92.75 78.32,93.71 78.64,93.71 78.64,94.67 78.72,94.67 78.72,95.15 78.81,95.15 78.81,95.63 78.97,95.63 78.97,96.60 79.46,96.60 79.46,97.08 79.62,97.08 79.62,98.06 79.70,98.06 79.70,98.54 80.19,98.54 80.19,99.03 80.43,99.03 80.43,99.52 80.52,99.52 80.52,100.50 80.60,100.50 80.60,100.99 80.76,100.99 80.76,101.48 81.49,101.48 81.49,101.98 81.57,101.98 81.57,102.47 81.66,102.47 81.66,102.96 81.98,102.96 81.98,103.95 82.14,103.95 82.14,104.45 82.23,104.45 82.23,104.94 82.47,104.94 82.47,105.94 82.63,105.94 82.63,106.43 82.96,106.43 82.96,106.93 83.28,106.93 83.28,107.43 83.45,107.43 83.45,107.93 83.69,107.93 83.69,108.43 83.94,108.43 83.94,108.93 84.02,108.93 84.02,109.43 84.26,109.43 84.26,109.94 84.42,109.94 84.42,110.44 84.51,110.44 84.51,110.94 84.67,110.94 84.67,111.44 85.32,111.44 85.32,111.95 85.65,111.95 85.65,112.45 85.73,112.45 85.73,112.95 85.81,112.95 85.81,113.46 85.97,113.46 85.97,113.96 86.05,113.96 86.05,114.97 86.22,114.97 86.22,115.48 86.38,115.48 86.38,115.99 86.62,115.99 86.62,116.49 86.87,116.49 86.87,117.00 86.95,117.00 86.95,118.02 87.11,118.02 87.11,120.06 87.44,120.06 87.44,120.57 87.52,120.57 87.52,121.08 87.68,121.08 87.68,121.59 87.93,121.59 87.93,122.61 88.01,122.61 88.01,123.12 88.09,123.12 88.09,123.64 88.17,123.64 88.17,124.15 88.25,124.15 88.25,124.66 88.33,124.66 88.33,125.17 88.58,125.17 88.58,125.69 88.66,125.69 88.66,126.72 88.82,126.72 88.82,127.23 89.15,127.23 89.15,127.75 89.31,127.75 89.31,128.78 89.55,128.78 89.55,129.29 89.80,129.29 89.80,129.81 89.96,129.81 89.96,130.32 90.04,130.32 90.04,130.84 90.21,130.84 90.21,132.39 90.37,132.39 90.37,132.91 90.78,132.91 90.78,134.46 90.94,134.46 90.94,135.50 91.10,135.50 91.10,136.02 91.59,136.02 91.59,136.54 91.75,136.54 91.75,137.06 91.92,137.06 91.92,137.58 92.00,137.58 92.00,138.10 92.16,138.10 92.16,138.62 92.40,138.62 92.40,139.14 92.81,139.14 92.81,139.66 92.89,139.66 92.89,140.18 93.14,140.18 93.14,141.75 93.46,141.75 93.46,142.79 93.71,142.79 93.71,143.32 93.95,143.32 93.95,143.84 94.03,143.84 94.03,144.37 94.11,144.37 94.11,144.89 94.36,144.89 94.36,145.94 94.68,145.94 94.68,146.46 94.77,146.46 94.77,146.99 94.93,146.99 94.93,147.51 95.82,147.51 95.82,148.56 95.91,148.56 95.91,149.09 96.15,149.09 96.15,149.62 96.23,149.62 96.23,150.14 96.56,150.14 96.56,150.67 96.64,150.67 96.64,151.20 96.88,151.20 96.88,152.25 96.96,152.25 96.96,152.78 97.21,152.78 97.21,153.30 97.29,153.30 97.29,153.83 97.37,153.83 97.37,154.36 97.45,154.36 97.45,154.89 97.94,154.89 97.94,155.42 98.10,155.42 98.10,155.95 98.27,155.95 98.27,157.01 98.35,157.01 98.35,157.54 98.51,157.54 98.51,158.60 99.16,158.60 99.16,159.13 99.24,159.13 99.24,159.66 99.49,159.66 99.49,160.72 99.73,160.72 99.73,161.25 100.14,161.25 100.14,162.32 100.22,162.32 100.22,162.85 100.30,162.85 100.30,163.38 100.38,163.38 100.38,164.98 100.95,164.98 100.95,165.51 101.03,165.51 101.03,166.05 101.12,166.05 101.12,166.58 101.36,166.58 101.36,167.11 101.44,167.11 101.44,167.65 102.01,167.65 102.01,168.18 102.09,168.18 102.09,168.71 102.58,168.71 102.58,169.25 102.66,169.25 102.66,169.79 102.99,169.79 102.99,170.33 103.23,170.33 103.23,170.87 103.31,170.87 103.31,171.41 104.05,171.41 104.05,171.94 104.21,171.94 104.21,172.48 104.37,172.48 104.37,173.02 104.45,173.02 104.45,173.56 104.54,173.56 104.54,174.10 104.70,174.10 104.70,174.64 104.78,174.64 104.78,175.72 105.68,175.72 105.68,176.80 106.00,176.80 106.00,177.34 106.41,177.34 106.41,177.88 106.49,177.88 106.49,178.42 107.22,178.42 107.22,178.96 107.39,178.96 107.39,179.50 107.55,179.50 107.55,180.05 108.12,180.05 108.12,180.59 108.53,180.59 108.53,181.13 108.69,181.13 108.69,181.67 108.85,181.67 108.85,182.21 108.93,182.21 108.93,182.75 109.01,182.75 109.01,183.30 109.10,183.30 109.10,184.39 109.42,184.39 109.42,184.93 109.58,184.93 109.58,185.47 109.99,185.47 109.99,186.02 110.15,186.02 110.15,186.56 110.81,186.56 110.81,187.11 110.89,187.11 110.89,187.65 111.54,187.65 111.54,188.20 112.60,188.20 112.60,188.74 112.76,188.74 112.76,189.83 112.92,189.83 112.92,190.93 113.49,190.93 113.49,191.47 113.66,191.47 113.66,192.02 113.74,192.02 113.74,192.57 113.98,192.57 113.98,193.12 114.31,193.12 114.31,193.67 114.80,193.67 114.80,194.21 115.69,194.21 115.69,194.76 115.94,194.76 115.94,195.31 116.02,195.31 116.02,195.87 116.51,195.87 116.51,196.97 116.91,196.97 116.91,197.52 117.48,197.52 117.48,198.07 119.36,198.07 119.36,198.63 119.93,198.63 119.93,199.18 120.50,199.18 120.50,199.73 120.98,199.73 120.98,200.28 121.47,200.28 121.47,200.84 121.55,200.84 121.55,201.39 122.20,201.39 122.20,201.94 123.26,201.94 123.26,202.50 123.59,202.50 123.59,203.05 123.67,203.05 123.67,204.16 124.48,204.16 124.48,205.27 126.11,205.27 126.11,205.83 126.85,205.83 126.85,206.38 127.33,206.38 127.33,206.94 127.42,206.94 127.42,207.49 127.82,207.49 127.82,208.05 128.15,208.05 128.15,208.61 128.72,208.61 128.72,209.16 128.96,209.16 128.96,209.72 129.45,209.72 129.45,210.28 129.70,210.28 129.70,210.84 129.94,210.84 129.94,211.39 130.35,211.39 130.35,211.95 132.06,211.95 132.06,212.51 132.46,212.51 132.46,213.07 132.95,213.07 132.95,213.63 133.93,213.63 133.93,214.18 134.17,214.18 134.17,214.74 134.42,214.74 134.42,215.30 134.74,215.30 134.74,215.86 134.83,215.86 134.83,216.42 135.15,216.42 135.15,216.98 137.51,216.98 137.51,217.54 138.08,217.54 138.08,218.66 138.90,218.66 138.90,219.22 139.55,219.22 139.55,219.78 140.77,219.78 140.77,220.34 141.58,220.34 141.58,220.90 145.33,220.90 145.33,221.46 145.41,221.46 145.41,222.03 146.06,222.03 146.06,222.59 148.91,222.59 148.91,223.15 149.97,223.15 149.97,223.72 150.05,223.72 150.05,224.28 151.11,224.28 151.11,224.85 155.26,224.85 155.26,225.41 156.65,225.41 156.65,225.98 158.85,225.98 158.85,226.56 161.70,226.56 161.70,227.13 166.25,227.13 166.25,227.70 167.96,227.70 167.96,228.28 168.29,228.28 168.29,228.86 169.02,228.86 169.02,229.43 171.38,229.43 171.38,230.02 173.18,230.02 173.18,230.60 178.47,230.60 178.47,231.23 179.20,231.23 179.20,231.87 181.64,231.87 181.64,232.53 192.07,232.53 192.07,233.28 193.29,233.28 193.29,234.05 198.91,234.05 198.91,234.83 216.09,234.83 216.09,235.93 222.84,235.93 222.84,237.19 252.81,237.19 252.81,237.60 263.88,237.60" style="stroke-width: 0.75; stroke-dasharray: 4.00, 4.00;"/>
<polyline points="67.24,76.11 67.41,77.29 67.49,77.84 67.65,78.86 67.73,79.34 67.98,80.72 68.06,81.15 68.14,81.58 68.22,82.00 68.30,82.40 68.38,82.81 68.47,83.20 68.55,83.59 68.63,83.97 68.71,84.35 68.79,84.72 68.87,85.08 68.95,85.44 69.12,86.15 69.20,86.50 69.44,87.52 69.52,87.85 69.61,88.18 69.69,88.51 69.85,89.15 70.18,90.40 70.50,91.61 70.58,91.91 70.66,92.21 70.91,93.08 70.99,93.36 71.15,93.93 71.48,95.05 71.72,95.86 72.05,96.93 72.21,97.46 72.29,97.72 72.94,99.75 73.11,100.25 73.19,100.50 73.84,102.43 73.92,102.67 74.17,103.37 74.49,104.30 74.65,104.76 74.98,105.67 75.31,106.56 75.39,106.78 75.55,107.22 75.88,108.09 76.04,108.52 76.36,109.38 76.69,110.22 76.77,110.43 76.85,110.64 77.34,111.88 77.58,112.49 78.32,114.29 78.64,115.07 78.72,115.27 78.81,115.46 78.97,115.85 79.46,117.00 79.62,117.38 79.70,117.57 79.95,118.13 80.19,118.69 80.43,119.25 80.52,119.43 80.60,119.62 80.76,119.99 81.49,121.62 81.57,121.80 81.66,121.97 81.98,122.68 82.14,123.04 82.23,123.21 82.47,123.74 82.63,124.09 82.96,124.78 83.28,125.47 83.45,125.81 83.69,126.32 83.94,126.82 84.02,126.99 84.26,127.49 84.42,127.83 84.51,127.99 84.67,128.32 85.32,129.64 85.65,130.29 85.73,130.45 85.81,130.61 85.97,130.93 86.05,131.09 86.22,131.41 86.38,131.73 86.54,132.05 86.62,132.20 86.87,132.68 86.95,132.83 87.11,133.15 87.44,133.77 87.52,133.93 87.68,134.24 87.93,134.70 88.01,134.85 88.09,135.01 88.17,135.16 88.25,135.31 88.33,135.46 88.58,135.92 88.66,136.07 88.82,136.38 89.15,136.98 89.31,137.28 89.55,137.72 89.80,138.17 89.96,138.47 90.04,138.61 90.21,138.91 90.37,139.20 90.78,139.93 90.94,140.22 91.10,140.51 91.59,141.37 91.75,141.66 91.92,141.94 92.00,142.09 92.16,142.37 92.40,142.80 92.81,143.50 92.89,143.64 93.06,143.92 93.14,144.06 93.46,144.61 93.71,145.03 93.95,145.44 94.03,145.58 94.11,145.71 94.36,146.12 94.68,146.67 94.77,146.80 94.93,147.07 95.82,148.55 95.91,148.68 96.15,149.08 96.23,149.21 96.56,149.74 96.64,149.87 96.88,150.26 96.96,150.39 97.21,150.79 97.29,150.92 97.37,151.05 97.45,151.17 97.53,151.30 97.94,151.95 98.10,152.21 98.27,152.46 98.35,152.59 98.51,152.85 99.16,153.86 99.24,153.99 99.49,154.37 99.73,154.74 100.14,155.37 100.22,155.49 100.30,155.61 100.38,155.74 100.95,156.60 101.03,156.73 101.12,156.85 101.36,157.22 101.44,157.34 102.01,158.19 102.09,158.31 102.42,158.79 102.58,159.03 102.66,159.15 102.99,159.63 103.23,159.99 103.31,160.11 104.05,161.17 104.21,161.41 104.37,161.64 104.45,161.76 104.54,161.88 104.70,162.11 104.78,162.23 105.68,163.50 106.00,163.96 106.41,164.53 106.49,164.65 107.22,165.67 107.39,165.89 107.55,166.12 108.12,166.90 108.53,167.46 108.69,167.68 108.85,167.90 108.93,168.01 109.01,168.12 109.10,168.23 109.42,168.67 109.58,168.89 109.99,169.44 110.15,169.66 110.81,170.52 110.89,170.63 111.54,171.49 112.60,172.87 112.76,173.08 112.92,173.29 113.09,173.50 113.49,174.03 113.66,174.23 113.74,174.34 113.98,174.65 114.31,175.07 114.80,175.68 115.69,176.81 115.85,177.01 115.94,177.12 116.02,177.22 116.51,177.82 116.91,178.33 117.48,179.03 119.36,181.30 119.93,181.98 120.50,182.66 120.98,183.24 121.47,183.82 121.55,183.91 122.20,184.67 123.26,185.90 123.59,186.28 123.67,186.37 123.75,186.46 124.48,187.30 126.11,189.14 126.85,189.96 127.33,190.50 127.42,190.59 127.82,191.04 128.15,191.39 128.72,192.02 128.96,192.28 129.45,192.81 129.70,193.08 129.94,193.34 130.35,193.78 132.06,195.60 132.46,196.03 132.95,196.55 133.93,197.57 134.17,197.82 134.42,198.07 134.74,198.41 134.83,198.49 135.15,198.83 137.51,201.23 138.08,201.80 138.90,202.61 139.55,203.25 140.69,204.37 140.77,204.45 141.58,205.25 144.68,208.21 145.33,208.82 145.41,208.90 146.06,209.51 148.91,212.14 149.97,213.10 150.05,213.17 151.11,214.12 151.52,214.49 155.26,217.78 155.83,218.28 156.40,218.77 156.65,218.98 157.54,219.74 158.85,220.85 161.70,223.22 162.67,224.03 163.98,225.09 166.25,226.92 167.96,228.28 168.29,228.54 168.78,228.92 169.02,229.11 171.14,230.75 171.22,230.82 171.38,230.94 171.71,231.19 171.95,231.38 172.93,232.12 173.18,232.31 173.42,232.50 173.83,232.80 174.32,233.17 174.40,233.23 174.56,233.36 174.64,233.42 175.29,233.91 175.46,234.03 176.60,234.88 176.76,235.00 176.84,235.06 177.65,235.66 177.74,235.72 177.98,235.90 178.22,236.08 178.31,236.14 178.39,236.20 178.47,236.26 178.71,236.43 178.79,236.49 179.20,236.79 179.53,237.03 179.61,237.09 179.69,237.15 179.77,237.20 180.10,237.44 180.18,237.50 180.34,237.62 180.99,238.09 181.32,238.32 181.64,238.55 182.05,238.85 182.30,239.02 182.54,239.19 182.62,239.25 182.78,239.37 183.03,239.54 183.27,239.72 183.44,239.83 184.33,240.46 184.49,240.58 185.39,241.20 185.47,241.26 185.72,241.43 185.80,241.49 186.12,241.72 186.20,241.77 186.37,241.89 187.34,242.56 187.43,242.62 187.83,242.90 188.81,243.57 188.97,243.68 190.76,244.89 190.84,244.95 191.09,245.11 191.50,245.39 192.07,245.77 192.64,246.15 192.72,246.20 193.29,246.58 193.53,246.74 193.86,246.96 195.40,247.98 195.81,248.25 195.89,248.30 196.71,248.83 197.36,249.25 198.91,250.25 199.07,250.35 199.39,250.56 201.10,251.65 201.43,251.85 201.84,252.11 201.92,252.16 202.57,252.57 202.81,252.72 203.79,253.33 203.87,253.38 203.95,253.43 204.28,253.63 204.36,253.68 204.93,254.04 205.18,254.19 205.58,254.44 205.66,254.49 205.99,254.69 206.15,254.79 206.48,254.99 206.72,255.14 206.80,255.19 206.97,255.29 207.05,255.33 207.37,255.53 207.54,255.63 207.62,255.68 207.70,255.73 207.78,255.78 207.86,255.83 208.11,255.98 208.35,256.13 208.51,256.22 208.60,256.27 208.76,256.37 208.92,256.47 209.00,256.52 209.82,257.01 209.98,257.11 210.22,257.25 210.55,257.45 211.36,257.93 211.77,258.17 211.85,258.22 212.01,258.32 212.10,258.37 212.26,258.46 212.83,258.80 213.07,258.94 213.15,258.99 213.40,259.13 213.97,259.47 214.21,259.61 214.54,259.80 214.70,259.89 215.35,260.27 215.52,260.37 215.68,260.46 216.09,260.70 216.25,260.79 216.98,261.21 217.14,261.31 217.23,261.35 217.96,261.77 218.28,261.96 218.45,262.05 218.69,262.19 218.85,262.28 219.75,262.79 219.99,262.93 220.08,262.98 220.24,263.07 220.40,263.16 221.05,263.53 221.70,263.89 222.19,264.16 222.52,264.35 222.60,264.39 222.68,264.44 222.84,264.53 223.33,264.80 223.58,264.93 225.12,265.79 225.45,265.96 225.86,266.19 225.94,266.23 226.18,266.36 226.51,266.54 227.16,266.90 227.49,267.07 227.81,267.25 228.38,267.56 228.79,267.77 228.87,267.82 228.95,267.86 229.03,267.91 229.68,268.25 230.25,268.56 230.34,268.60 231.15,269.03 231.64,269.29 232.04,269.51 232.53,269.77 232.86,269.94 233.02,270.02 233.10,270.07 233.18,270.11 233.27,270.15 233.35,270.19 233.67,270.36 234.00,270.53 234.08,270.58 234.24,270.66 234.32,270.70 234.49,270.79 234.89,271.00 235.06,271.09 235.46,271.30 236.52,271.84 236.77,271.97 237.50,272.34 239.37,273.30 239.70,273.46 239.78,273.51 239.94,273.59 240.02,273.63 240.68,273.96 240.84,274.04 240.92,274.08 241.57,274.41 241.82,274.53 241.90,274.57 241.98,274.61 242.30,274.77 242.96,275.10 244.34,275.78 244.67,275.94 244.91,276.06 245.07,276.14 245.32,276.26 245.40,276.30 245.56,276.38 245.89,276.54 246.05,276.62 246.86,277.02 247.60,277.38 247.84,277.50 248.00,277.58 248.41,277.77 248.74,277.93 249.06,278.09 249.23,278.16 249.39,278.24 249.88,278.48 250.12,278.59 250.37,278.71 250.45,278.75 250.53,278.79 252.24,279.60 252.81,279.87 254.11,280.48 254.19,280.52 254.52,280.68 254.84,280.83 255.41,281.09 255.66,281.21 257.04,281.85 257.77,282.19 257.86,282.22 259.16,282.82 259.65,283.04 259.81,283.12 259.97,283.19 260.71,283.53 261.85,284.04 263.88,284.95" style="stroke-width: 1.50;stroke: #FF0000;"/>
<polyline points="67.24,77.88 67.41,79.46 67.49,80.18 67.65,81.49 67.73,82.11 67.98,83.83 68.06,84.37 68.14,84.90 68.22,85.42 68.30,85.92 68.38,86.40 68.47,86.87 68.55,87.33 68.63,87.78 68.71,88.22 68.79,88.65 68.87,89.08 68.95,89.49 69.12,90.33 69.20,90.75 69.44,91.97 69.52,92.37 69.61,92.74 69.69,93.11 69.85,93.83 70.18,95.24 70.50,96.61 70.58,96.95 70.66,97.28 70.91,98.30 70.99,98.63 71.15,99.29 71.48,100.55 71.72,101.46 72.05,102.64 72.21,103.22 72.29,103.51 72.94,105.74 73.11,106.29 73.19,106.55 73.84,108.67 73.92,108.93 74.17,109.72 74.49,110.75 74.65,111.26 74.98,112.27 75.31,113.26 75.39,113.50 75.55,113.99 75.88,114.95 76.04,115.42 76.36,116.36 76.69,117.28 76.77,117.51 76.85,117.74 77.34,119.09 77.58,119.76 78.32,121.72 78.64,122.57 78.72,122.79 78.81,123.00 78.97,123.42 79.46,124.66 79.62,125.07 79.70,125.27 79.95,125.82 80.19,126.36 80.43,126.93 80.52,127.13 80.60,127.33 80.76,127.75 81.49,129.63 81.57,129.82 81.66,130.01 81.98,130.77 82.14,131.15 82.23,131.34 82.47,131.90 82.63,132.27 82.96,132.99 83.28,133.69 83.45,134.05 83.69,134.57 83.94,135.09 84.02,135.27 84.26,135.82 84.42,136.18 84.51,136.35 84.67,136.70 85.32,138.08 85.65,138.77 85.73,138.94 85.81,139.11 85.97,139.46 86.05,139.63 86.22,139.97 86.38,140.30 86.54,140.64 86.62,140.81 86.87,141.31 86.95,141.48 87.11,141.81 87.44,142.47 87.52,142.64 87.68,142.96 87.93,143.45 88.01,143.62 88.09,143.78 88.17,143.94 88.25,144.10 88.33,144.26 88.58,144.75 88.66,144.91 88.82,145.23 89.15,145.84 89.31,146.14 89.55,146.62 89.80,147.09 89.96,147.41 90.04,147.57 90.21,147.88 90.37,148.19 90.78,148.96 90.94,149.26 91.10,149.57 91.59,150.46 91.75,150.76 91.92,151.06 92.00,151.21 92.16,151.50 92.40,151.95 92.81,152.71 92.89,152.87 93.06,153.15 93.14,153.30 93.46,153.88 93.71,154.30 93.95,154.73 94.03,154.88 94.11,155.02 94.36,155.46 94.68,156.02 94.77,156.17 94.93,156.45 95.82,157.98 95.91,158.12 96.15,158.54 96.23,158.67 96.56,159.21 96.64,159.34 96.88,159.73 96.96,159.85 97.21,160.24 97.29,160.37 97.37,160.49 97.45,160.62 97.53,160.75 97.94,161.38 98.10,161.65 98.27,161.91 98.35,162.04 98.51,162.30 99.16,163.34 99.24,163.47 99.49,163.86 99.73,164.25 100.14,164.91 100.22,165.05 100.30,165.18 100.38,165.31 100.95,166.23 101.03,166.36 101.12,166.49 101.36,166.88 101.44,167.01 102.01,167.92 102.09,168.05 102.42,168.56 102.58,168.82 102.66,168.94 102.99,169.44 103.23,169.81 103.31,169.93 104.05,171.03 104.21,171.27 104.37,171.51 104.45,171.63 104.54,171.75 104.70,171.99 104.78,172.11 105.68,173.42 106.00,173.89 106.41,174.47 106.49,174.59 107.22,175.63 107.39,175.86 107.55,176.09 108.12,176.89 108.53,177.46 108.69,177.69 108.85,177.91 108.93,178.02 109.01,178.14 109.10,178.25 109.42,178.70 109.58,178.92 109.99,179.48 110.15,179.70 110.81,180.58 110.89,180.69 111.54,181.56 112.60,182.96 112.76,183.18 112.92,183.39 113.09,183.61 113.49,184.15 113.66,184.36 113.74,184.47 113.98,184.79 114.31,185.23 114.80,185.85 115.69,186.98 115.85,187.18 115.94,187.29 116.02,187.39 116.51,188.04 116.91,188.56 117.48,189.27 119.36,191.61 119.93,192.29 120.50,192.98 120.98,193.57 121.47,194.16 121.55,194.26 122.20,195.06 123.26,196.42 123.59,196.83 123.67,196.93 123.75,197.03 124.48,197.87 126.11,199.82 126.85,200.60 127.33,201.16 127.42,201.25 127.82,201.73 128.15,202.12 128.72,202.78 128.96,203.07 129.45,203.63 129.70,203.91 129.94,204.20 130.35,204.66 132.06,206.52 132.46,206.95 132.95,207.47 133.93,208.53 134.17,208.79 134.42,209.06 134.74,209.41 134.83,209.50 135.15,209.84 137.51,212.28 138.08,212.83 138.90,213.67 139.55,214.34 140.69,215.46 140.77,215.54 141.58,216.33 144.68,219.38 145.33,220.02 145.41,220.10 146.06,220.73 148.91,223.45 149.97,224.44 150.05,224.52 151.11,225.47 151.52,225.82 155.26,229.24 155.83,229.78 156.40,230.31 156.65,230.53 157.54,231.35 158.85,232.50 161.70,234.95 162.67,235.78 163.98,236.88 166.25,238.77 167.96,240.16 168.29,240.43 168.78,240.82 169.02,241.02 171.14,242.69 171.22,242.76 171.38,242.88 171.71,243.14 171.95,243.33 172.93,244.09 173.18,244.28 173.42,244.46 173.83,244.78 174.32,245.16 174.40,245.23 174.56,245.37 174.64,245.43 175.29,245.95 175.46,246.08 176.60,246.95 176.76,247.07 176.84,247.14 177.65,247.77 177.74,247.84 177.98,248.03 178.22,248.22 178.31,248.28 178.39,248.35 178.47,248.41 178.71,248.60 178.79,248.66 179.20,248.98 179.53,249.23 179.61,249.29 179.69,249.35 179.77,249.42 180.10,249.67 180.18,249.73 180.34,249.85 180.99,250.35 181.32,250.59 181.64,250.83 182.05,251.10 182.30,251.26 182.54,251.43 182.62,251.48 182.78,251.59 183.03,251.75 183.27,251.91 183.44,252.02 184.33,252.66 184.49,252.78 185.39,253.42 185.47,253.48 185.72,253.65 185.80,253.71 186.12,253.94 186.20,254.00 186.37,254.11 187.34,254.80 187.43,254.86 187.83,255.14 188.81,255.83 188.97,255.94 190.76,257.18 190.84,257.23 191.09,257.40 191.50,257.68 192.07,258.07 192.64,258.46 192.72,258.51 193.29,258.93 193.53,259.11 193.86,259.36 195.40,260.40 195.81,260.67 195.89,260.72 196.71,261.26 197.36,261.68 198.91,262.69 199.07,262.80 199.39,263.01 201.10,264.11 201.43,264.32 201.84,264.57 201.92,264.63 202.57,265.04 202.81,265.19 203.79,265.81 203.87,265.86 203.95,265.91 204.28,266.11 204.36,266.16 204.93,266.52 205.18,266.68 205.58,266.93 205.66,266.99 205.99,267.19 206.15,267.28 206.48,267.48 206.72,267.63 206.80,267.68 206.97,267.78 207.05,267.83 207.37,268.03 207.54,268.13 207.62,268.18 207.70,268.22 207.78,268.27 207.86,268.32 208.11,268.47 208.35,268.62 208.51,268.72 208.60,268.78 208.76,268.88 208.92,268.99 209.00,269.04 209.82,269.56 209.98,269.66 210.22,269.81 210.55,270.01 211.36,270.52 211.77,270.78 211.85,270.83 212.01,270.93 212.10,270.98 212.26,271.08 212.83,271.44 213.07,271.59 213.15,271.64 213.40,271.78 213.97,272.11 214.21,272.25 214.54,272.44 214.70,272.53 215.35,272.90 215.52,273.00 215.68,273.10 216.09,273.34 216.25,273.43 216.98,273.86 217.14,273.96 217.23,274.01 217.96,274.44 218.28,274.65 218.45,274.75 218.69,274.91 218.85,275.01 219.75,275.58 219.99,275.73 220.08,275.78 220.24,275.88 220.40,275.99 221.05,276.39 221.70,276.80 222.19,277.10 222.52,277.30 222.60,277.35 222.68,277.39 222.84,277.49 223.33,277.78 223.58,277.92 225.12,278.82 225.45,279.01 225.86,279.24 225.94,279.29 226.18,279.43 226.51,279.61 227.16,279.99 227.49,280.17 227.81,280.36 228.38,280.68 228.79,280.91 228.87,280.96 228.95,281.00 229.03,281.05 229.68,281.42 230.25,281.73 230.34,281.78 231.15,282.23 231.64,282.51 232.04,282.73 232.53,283.00 232.86,283.18 233.02,283.27 233.10,283.32 233.18,283.36 233.27,283.41 233.35,283.45 233.67,283.63 234.00,283.81 234.08,283.86 234.24,283.94 234.32,283.99 234.49,284.08 234.89,284.30 235.06,284.39 235.46,284.61 236.52,285.18 236.77,285.32 237.50,285.72 239.37,286.75 239.70,286.93 239.78,286.98 239.94,287.07 240.02,287.11 240.68,287.47 240.84,287.56 240.92,287.60 241.57,287.95 241.82,288.09 241.90,288.13 241.98,288.18 242.30,288.35 242.96,288.70 244.34,289.44 244.67,289.62 244.91,289.75 245.07,289.83 245.32,289.96 245.40,290.01 245.56,290.09 245.89,290.27 246.05,290.35 246.86,290.76 247.60,291.10 247.84,291.22 248.00,291.30 248.41,291.49 248.74,291.64 249.06,291.79 249.23,291.87 249.39,291.94 249.88,292.17 250.12,292.28 250.37,292.40 250.45,292.43 250.53,292.47 252.24,293.32 252.81,293.60 254.11,294.25 254.19,294.29 254.52,294.45 254.84,294.61 255.41,294.89 255.66,295.01 257.04,295.68 257.77,296.04 257.86,296.08 259.16,296.66 259.65,296.88 259.81,296.96 259.97,297.03 260.71,297.36 261.85,297.89 263.88,298.78" style="stroke-width: 0.75;stroke: #FF0000; stroke-dasharray: 4.00, 4.00;"/>
<polyline points="67.24,74.97 67.41,75.86 67.49,76.27 67.65,77.05 67.73,77.43 67.98,78.54 68.06,78.89 68.14,79.24 68.22,79.59 68.30,79.92 68.38,80.25 68.47,80.57 68.55,80.89 68.63,81.20 68.71,81.50 68.79,81.81 68.87,82.11 68.95,82.41 69.12,82.99 69.20,83.28 69.44,84.14 69.52,84.42 69.61,84.70 69.69,84.98 69.85,85.54 70.18,86.62 70.50,87.64 70.58,87.90 70.66,88.15 70.91,88.89 70.99,89.13 71.15,89.62 71.48,90.60 71.72,91.33 72.05,92.29 72.21,92.74 72.29,92.98 72.94,94.70 73.11,95.12 73.19,95.33 73.84,97.07 73.92,97.28 74.17,97.93 74.49,98.78 74.65,99.21 74.98,100.03 75.31,100.83 75.39,101.02 75.55,101.41 75.88,102.21 76.04,102.60 76.36,103.39 76.69,104.17 76.77,104.36 76.85,104.55 77.34,105.71 77.58,106.27 78.32,107.91 78.64,108.66 78.72,108.85 78.81,109.03 78.97,109.40 79.46,110.49 79.62,110.85 79.70,111.03 79.95,111.56 80.19,112.09 80.43,112.62 80.52,112.79 80.60,112.97 80.76,113.32 81.49,114.78 81.57,114.94 81.66,115.11 81.98,115.79 82.14,116.12 82.23,116.29 82.47,116.78 82.63,117.09 82.96,117.72 83.28,118.35 83.45,118.68 83.69,119.18 83.94,119.68 84.02,119.85 84.26,120.35 84.42,120.68 84.51,120.85 84.67,121.18 85.32,122.41 85.65,123.01 85.73,123.16 85.81,123.31 85.97,123.61 86.05,123.76 86.22,124.06 86.38,124.36 86.54,124.66 86.62,124.81 86.87,125.25 86.95,125.40 87.11,125.69 87.44,126.27 87.52,126.42 87.68,126.71 87.93,127.14 88.01,127.29 88.09,127.43 88.17,127.58 88.25,127.72 88.33,127.86 88.58,128.29 88.66,128.44 88.82,128.72 89.15,129.28 89.31,129.55 89.55,129.96 89.80,130.40 89.96,130.69 90.04,130.83 90.21,131.11 90.37,131.39 90.78,132.09 90.94,132.39 91.10,132.66 91.59,133.44 91.75,133.71 91.92,133.98 92.00,134.12 92.16,134.38 92.40,134.79 92.81,135.45 92.89,135.58 93.06,135.83 93.14,135.96 93.46,136.47 93.71,136.85 93.95,137.23 94.03,137.35 94.11,137.48 94.36,137.84 94.68,138.33 94.77,138.45 94.93,138.69 95.82,140.02 95.91,140.14 96.15,140.49 96.23,140.61 96.56,141.09 96.64,141.21 96.88,141.58 96.96,141.71 97.21,142.09 97.29,142.21 97.37,142.34 97.45,142.46 97.53,142.59 97.94,143.18 98.10,143.41 98.27,143.65 98.35,143.77 98.51,144.01 99.16,144.97 99.24,145.08 99.49,145.44 99.73,145.79 100.14,146.38 100.22,146.50 100.30,146.62 100.38,146.73 100.95,147.55 101.03,147.67 101.12,147.78 101.36,148.13 101.44,148.26 102.01,149.11 102.09,149.24 102.42,149.72 102.58,149.97 102.66,150.09 102.99,150.57 103.23,150.93 103.31,151.05 104.05,152.13 104.21,152.37 104.37,152.61 104.45,152.73 104.54,152.84 104.70,153.06 104.78,153.16 105.68,154.44 106.00,154.93 106.41,155.52 106.49,155.62 107.22,156.49 107.39,156.68 107.55,156.87 108.12,157.54 108.53,158.02 108.69,158.25 108.85,158.47 108.93,158.58 109.01,158.69 109.10,158.80 109.42,159.19 109.58,159.38 109.99,159.86 110.15,160.05 110.81,160.81 110.89,160.91 111.54,161.70 112.60,163.02 112.76,163.24 112.92,163.45 113.09,163.66 113.49,164.18 113.66,164.39 113.74,164.50 113.98,164.81 114.31,165.23 114.80,165.80 115.69,166.92 115.85,167.12 115.94,167.22 116.02,167.31 116.51,167.88 116.91,168.35 117.48,169.01 119.36,171.15 119.93,171.78 120.50,172.43 120.98,172.98 121.47,173.54 121.55,173.63 122.20,174.37 123.26,175.55 123.59,175.92 123.67,176.01 123.75,176.10 124.48,176.91 126.11,178.69 126.85,179.48 127.33,180.00 127.42,180.09 127.82,180.53 128.15,180.88 128.72,181.49 128.96,181.77 129.45,182.32 129.70,182.60 129.94,182.85 130.35,183.25 132.06,184.96 132.46,185.38 132.95,185.86 133.93,186.88 134.17,187.13 134.42,187.37 134.74,187.70 134.83,187.78 135.15,188.11 137.51,190.45 138.08,190.99 138.90,191.72 139.55,192.30 140.69,193.31 140.77,193.38 141.58,194.10 144.68,196.77 145.33,197.33 145.41,197.39 146.06,197.95 148.91,200.64 149.97,201.53 150.05,201.60 151.11,202.49 151.52,202.82 155.26,205.89 155.83,206.36 156.40,206.81 156.65,207.01 157.54,207.72 158.85,208.76 161.70,210.98 162.67,211.74 163.98,212.81 166.25,214.61 167.96,215.84 168.29,216.07 168.78,216.42 169.02,216.60 171.14,218.09 171.22,218.15 171.38,218.26 171.71,218.49 171.95,218.66 172.93,219.34 173.18,219.51 173.42,219.69 173.83,219.99 174.32,220.35 174.40,220.41 174.56,220.53 174.64,220.59 175.29,221.06 175.46,221.18 176.60,222.01 176.76,222.13 176.84,222.19 177.65,222.77 177.74,222.83 177.98,223.01 178.22,223.18 178.31,223.24 178.39,223.30 178.47,223.36 178.71,223.53 178.79,223.59 179.20,223.88 179.53,224.11 179.61,224.17 179.69,224.22 179.77,224.28 180.10,224.51 180.18,224.57 180.34,224.69 180.99,225.14 181.32,225.37 181.64,225.60 182.05,225.89 182.30,226.06 182.54,226.23 182.62,226.29 182.78,226.40 183.03,226.57 183.27,226.74 183.44,226.85 184.33,227.47 184.49,227.59 185.39,228.20 185.47,228.26 185.72,228.43 185.80,228.48 186.12,228.70 186.20,228.76 186.37,228.87 187.34,229.54 187.43,229.59 187.83,229.87 188.81,230.52 188.97,230.63 190.76,231.83 190.84,231.88 191.09,232.04 191.50,232.30 192.07,232.66 192.64,233.02 192.72,233.08 193.29,233.44 193.53,233.59 193.86,233.79 195.40,234.76 195.81,235.02 195.89,235.07 196.71,235.55 197.36,235.94 198.91,236.92 199.07,237.01 199.39,237.20 201.10,238.17 201.43,238.35 201.84,238.58 201.92,238.63 202.57,238.99 202.81,239.13 203.79,239.67 203.87,239.72 203.95,239.76 204.28,239.95 204.36,239.99 204.93,240.32 205.18,240.45 205.58,240.68 205.66,240.73 205.99,240.91 206.15,241.00 206.48,241.19 206.72,241.32 206.80,241.37 206.97,241.46 207.05,241.51 207.37,241.69 207.54,241.78 207.62,241.83 207.70,241.88 207.78,241.92 207.86,241.97 208.11,242.12 208.35,242.26 208.51,242.36 208.60,242.40 208.76,242.50 208.92,242.59 209.00,242.64 209.82,243.12 209.98,243.21 210.22,243.36 210.55,243.54 211.36,243.97 211.77,244.18 211.85,244.23 212.01,244.33 212.10,244.37 212.26,244.47 212.83,244.81 213.07,244.95 213.15,245.00 213.40,245.14 213.97,245.48 214.21,245.60 214.54,245.77 214.70,245.85 215.35,246.18 215.52,246.26 215.68,246.34 216.09,246.54 216.25,246.62 216.98,247.01 217.14,247.10 217.23,247.14 217.96,247.53 218.28,247.71 218.45,247.80 218.69,247.93 218.85,248.01 219.75,248.49 219.99,248.62 220.08,248.66 220.24,248.75 220.40,248.84 221.05,249.18 221.70,249.53 222.19,249.79 222.52,249.96 222.60,250.00 222.68,250.04 222.84,250.13 223.33,250.38 223.58,250.51 225.12,251.32 225.45,251.48 225.86,251.69 225.94,251.74 226.18,251.86 226.51,252.03 227.16,252.36 227.49,252.53 227.81,252.70 228.38,252.99 228.79,253.20 228.87,253.24 228.95,253.28 229.03,253.32 229.68,253.65 230.25,253.94 230.34,253.98 231.15,254.39 231.64,254.63 232.04,254.84 232.53,255.08 232.86,255.23 233.02,255.31 233.10,255.35 233.18,255.39 233.27,255.43 233.35,255.48 233.67,255.62 234.00,255.76 234.08,255.80 234.24,255.87 234.32,255.91 234.49,255.98 234.89,256.16 235.06,256.23 235.46,256.41 236.52,256.96 236.77,257.09 237.50,257.47 239.37,258.43 239.70,258.58 239.78,258.62 239.94,258.70 240.02,258.74 240.68,259.05 240.84,259.13 240.92,259.17 241.57,259.48 241.82,259.60 241.90,259.63 241.98,259.67 242.30,259.83 242.96,260.14 244.34,260.79 244.67,260.94 244.91,261.06 245.07,261.13 245.32,261.25 245.40,261.29 245.56,261.36 245.89,261.51 246.05,261.59 246.86,261.96 247.60,262.29 247.84,262.40 248.00,262.47 248.41,262.65 248.74,262.80 249.06,262.95 249.23,263.02 249.39,263.10 249.88,263.31 250.12,263.42 250.37,263.53 250.45,263.57 250.53,263.60 252.24,264.36 252.81,264.61 254.11,265.18 254.19,265.22 254.52,265.36 254.84,265.50 255.41,265.75 255.66,265.86 257.04,266.46 257.77,266.77 257.86,266.81 259.16,267.40 259.65,267.62 259.81,267.69 259.97,267.77 260.71,268.10 261.85,268.61 263.88,269.53" style="stroke-width: 0.75;stroke: #FF0000; stroke-dasharray: 4.00, 4.00;"/>
</g><g clip-path="url(#c4)">
<line x1="368.92" y1="423.36" x2="572.48" y2="423.36" style="stroke-width: 0.75;"/>
<line x1="368.92" y1="423.36" x2="368.92" y2="430.56" style="stroke-width: 0.75;"/>
<line x1="409.63" y1="423.36" x2="409.63" y2="430.56" style="stroke-width: 0.75;"/>
<line x1="450.34" y1="423.36" x2="450.34" y2="430.56" style="stroke-width: 0.75;"/>
<line x1="491.05" y1="423.36" x2="491.05" y2="430.56" style="stroke-width: 0.75;"/>
<line x1="531.77" y1="423.36" x2="531.77" y2="430.56" style="stroke-width: 0.75;"/>
<line x1="572.48" y1="423.36" x2="572.48" y2="430.56" style="stroke-width: 0.75;"/>
<g><text x="368.92" y="449.28" text-anchor="middle" style="font-family: Arial;font-size: 12.00px;" textLength="6.67px" lengthAdjust="spacingAndGlyphs">0</text></g>
<g><text x="409.63" y="449.28" text-anchor="middle" style="font-family: Arial;font-size: 12.00px;" textLength="20.02px" lengthAdjust="spacingAndGlyphs">500</text></g>
<g><text x="450.34" y="449.28" text-anchor="middle" style="font-family: Arial;font-size: 12.00px;" textLength="26.70px" lengthAdjust="spacingAndGlyphs">1000</text></g>
<g><text x="491.05" y="449.28" text-anchor="middle" style="font-family: Arial;font-size: 12.00px;" textLength="26.70px" lengthAdjust="spacingAndGlyphs">1500</text></g>
<g><text x="531.77" y="449.28" text-anchor="middle" style="font-family: Arial;font-size: 12.00px;" textLength="26.70px" lengthAdjust="spacingAndGlyphs">2000</text></g>
<g><text x="572.48" y="449.28" text-anchor="middle" style="font-family: Arial;font-size: 12.00px;" textLength="26.70px" lengthAdjust="spacingAndGlyphs">2500</text></g>
<line x1="361.04" y1="409.87" x2="361.04" y2="72.53" style="stroke-width: 0.75;"/>
<line x1="361.04" y1="409.87" x2="353.84" y2="409.87" style="stroke-width: 0.75;"/>
<line x1="361.04" y1="342.40" x2="353.84" y2="342.40" style="stroke-width: 0.75;"/>
<line x1="361.04" y1="274.93" x2="353.84" y2="274.93" style="stroke-width: 0.75;"/>
<line x1="361.04" y1="207.47" x2="353.84" y2="207.47" style="stroke-width: 0.75;"/>
<line x1="361.04" y1="140.00" x2="353.84" y2="140.00" style="stroke-width: 0.75;"/>
<line x1="361.04" y1="72.53" x2="353.84" y2="72.53" style="stroke-width: 0.75;"/>
<g><text transform="translate(343.76,409.87) rotate(-90.00)" text-anchor="middle" style="font-family: Arial;font-size: 12.00px;" textLength="16.68px" lengthAdjust="spacingAndGlyphs">0.0</text></g>
<g><text transform="translate(343.76,342.40) rotate(-90.00)" text-anchor="middle" style="font-family: Arial;font-size: 12.00px;" textLength="16.68px" lengthAdjust="spacingAndGlyphs">0.2</text></g>
<g><text transform="translate(343.76,274.93) rotate(-90.00)" text-anchor="middle" style="font-family: Arial;font-size: 12.00px;" textLength="16.68px" lengthAdjust="spacingAndGlyphs">0.4</text></g>
<g><text transform="translate(343.76,207.47) rotate(-90.00)" text-anchor="middle" style="font-family: Arial;font-size: 12.00px;" textLength="16.68px" lengthAdjust="spacingAndGlyphs">0.6</text></g>
<g><text transform="translate(343.76,140.00) rotate(-90.00)" text-anchor="middle" style="font-family: Arial;font-size: 12.00px;" textLength="16.68px" lengthAdjust="spacingAndGlyphs">0.8</text></g>
<g><text transform="translate(343.76,72.53) rotate(-90.00)" text-anchor="middle" style="font-family: Arial;font-size: 12.00px;" textLength="16.68px" lengthAdjust="spacingAndGlyphs">1.0</text></g>
<polygon points="361.04,423.36 573.76,423.36 573.76,59.04 361.04,59.04" style="stroke-width: 0.75;" />
</g><g clip-path="url(#c5)">
<g><text x="467.40" y="34.70" text-anchor="middle" style="font-family: Arial;font-size: 14.40px;font-weight: bold;" textLength="177.57px" lengthAdjust="spacingAndGlyphs">Flexible parametric model</text></g>
<g><text x="467.40" y="478.08" text-anchor="middle" style="font-family: Arial;font-size: 12.00px;" textLength="26.66px" lengthAdjust="spacingAndGlyphs">Time</text></g>
<g><text transform="translate(314.96,241.20) rotate(-90.00)" text-anchor="middle" style="font-family: Arial;font-size: 12.00px;" textLength="100.70px" lengthAdjust="spacingAndGlyphs">Survival probability</text></g>
</g><g clip-path="url(#c6)">
<polyline points="368.92,72.53 369.65,72.53 369.65,73.06 369.98,73.06 369.98,74.64 370.22,74.64 370.22,75.17 370.38,75.17 370.38,75.70 370.55,75.70 370.55,76.77 370.63,76.77 370.63,77.31 370.79,77.31 370.79,77.84 370.87,77.84 370.87,79.45 370.95,79.45 370.95,79.99 371.12,79.99 371.12,82.15 371.20,82.15 371.20,82.69 371.52,82.69 371.52,83.23 371.61,83.23 371.61,83.77 371.69,83.77 371.69,84.31 372.18,84.31 372.18,84.85 372.50,84.85 372.50,85.39 372.58,85.39 372.58,85.93 372.66,85.93 372.66,86.47 372.99,86.47 372.99,87.55 373.15,87.55 373.15,88.10 373.48,88.10 373.48,88.64 374.05,88.64 374.05,89.18 374.21,89.18 374.21,89.72 374.94,89.72 374.94,90.27 375.11,90.27 375.11,90.81 375.19,90.81 375.19,91.35 375.84,91.35 375.84,91.90 375.92,91.90 375.92,92.44 376.17,92.44 376.17,92.99 376.65,92.99 376.65,93.53 376.98,93.53 376.98,94.08 377.31,94.08 377.31,94.62 377.39,94.62 377.39,95.17 377.55,95.17 377.55,95.71 377.88,95.71 377.88,96.26 378.04,96.26 378.04,96.80 378.36,96.80 378.36,97.35 378.69,97.35 378.69,97.89 378.77,97.89 378.77,98.44 378.85,98.44 378.85,98.99 379.34,98.99 379.34,99.53 379.58,99.53 379.58,100.08 380.32,100.08 380.32,101.17 380.64,101.17 380.64,102.26 380.72,102.26 380.72,102.81 380.81,102.81 380.81,103.36 380.97,103.36 380.97,104.45 381.46,104.45 381.46,105.00 381.62,105.00 381.62,106.09 381.70,106.09 381.70,106.64 382.19,106.64 382.19,107.18 382.43,107.18 382.43,107.73 382.52,107.73 382.52,108.82 382.60,108.82 382.60,109.37 382.76,109.37 382.76,109.92 383.49,109.92 383.49,110.47 383.57,110.47 383.57,111.02 383.66,111.02 383.66,111.57 383.98,111.57 383.98,112.66 384.14,112.66 384.14,113.21 384.23,113.21 384.23,113.76 384.47,113.76 384.47,114.86 384.63,114.86 384.63,115.40 384.96,115.40 384.96,115.95 385.28,115.95 385.28,116.50 385.45,116.50 385.45,117.05 385.69,117.05 385.69,117.60 385.94,117.60 385.94,118.15 386.02,118.15 386.02,118.70 386.26,118.70 386.26,119.25 386.42,119.25 386.42,119.80 386.51,119.80 386.51,120.35 386.67,120.35 386.67,120.90 387.32,120.90 387.32,121.45 387.65,121.45 387.65,122.00 387.73,122.00 387.73,122.55 387.81,122.55 387.81,123.10 387.97,123.10 387.97,123.64 388.05,123.64 388.05,124.74 388.22,124.74 388.22,125.29 388.38,125.29 388.38,125.84 388.62,125.84 388.62,126.39 388.87,126.39 388.87,126.94 388.95,126.94 388.95,128.04 389.11,128.04 389.11,130.25 389.44,130.25 389.44,130.80 389.52,130.80 389.52,131.35 389.68,131.35 389.68,131.90 389.93,131.90 389.93,133.00 390.01,133.00 390.01,133.55 390.09,133.55 390.09,134.10 390.17,134.10 390.17,134.65 390.25,134.65 390.25,135.20 390.33,135.20 390.33,135.75 390.58,135.75 390.58,136.30 390.66,136.30 390.66,137.40 390.82,137.40 390.82,137.95 391.15,137.95 391.15,138.50 391.31,138.50 391.31,139.60 391.55,139.60 391.55,140.15 391.80,140.15 391.80,140.70 391.96,140.70 391.96,141.25 392.04,141.25 392.04,141.80 392.21,141.80 392.21,143.46 392.37,143.46 392.37,144.01 392.78,144.01 392.78,145.66 392.94,145.66 392.94,146.76 393.10,146.76 393.10,147.31 393.59,147.31 393.59,147.86 393.75,147.86 393.75,148.41 393.92,148.41 393.92,148.96 394.00,148.96 394.00,149.51 394.16,149.51 394.16,150.06 394.40,150.06 394.40,150.61 394.81,150.61 394.81,151.16 394.89,151.16 394.89,151.71 395.14,151.71 395.14,153.37 395.46,153.37 395.46,154.47 395.71,154.47 395.71,155.02 395.95,155.02 395.95,155.57 396.03,155.57 396.03,156.13 396.11,156.13 396.11,156.68 396.36,156.68 396.36,157.78 396.68,157.78 396.68,158.33 396.77,158.33 396.77,158.88 396.93,158.88 396.93,159.44 397.82,159.44 397.82,160.54 397.91,160.54 397.91,161.09 398.15,161.09 398.15,161.64 398.23,161.64 398.23,162.19 398.56,162.19 398.56,162.74 398.64,162.74 398.64,163.30 398.88,163.30 398.88,164.40 398.96,164.40 398.96,164.95 399.21,164.95 399.21,165.50 399.29,165.50 399.29,166.05 399.37,166.05 399.37,166.61 399.45,166.61 399.45,167.16 399.94,167.16 399.94,167.71 400.10,167.71 400.10,168.26 400.27,168.26 400.27,169.37 400.35,169.37 400.35,169.92 400.51,169.92 400.51,171.03 401.16,171.03 401.16,171.58 401.24,171.58 401.24,172.13 401.49,172.13 401.49,173.24 401.73,173.24 401.73,173.79 402.14,173.79 402.14,174.90 402.22,174.90 402.22,175.45 402.30,175.45 402.30,176.00 402.38,176.00 402.38,177.66 402.95,177.66 402.95,178.22 403.03,178.22 403.03,178.77 403.12,178.77 403.12,179.32 403.36,179.32 403.36,179.87 403.44,179.87 403.44,180.43 404.01,180.43 404.01,180.98 404.09,180.98 404.09,181.53 404.58,181.53 404.58,182.09 404.66,182.09 404.66,182.65 404.99,182.65 404.99,183.20 405.23,183.20 405.23,183.76 405.31,183.76 405.31,184.32 406.05,184.32 406.05,184.87 406.21,184.87 406.21,185.43 406.37,185.43 406.37,185.99 406.45,185.99 406.45,186.54 406.54,186.54 406.54,187.10 406.70,187.10 406.70,187.66 406.78,187.66 406.78,188.77 407.68,188.77 407.68,189.89 408.00,189.89 408.00,190.44 408.41,190.44 408.41,191.00 408.49,191.00 408.49,191.56 409.22,191.56 409.22,192.11 409.39,192.11 409.39,192.67 409.55,192.67 409.55,193.23 410.12,193.23 410.12,193.78 410.53,193.78 410.53,194.34 410.69,194.34 410.69,194.90 410.85,194.90 410.85,195.46 410.93,195.46 410.93,196.01 411.01,196.01 411.01,196.57 411.10,196.57 411.10,197.69 411.42,197.69 411.42,198.25 411.58,198.25 411.58,198.80 411.99,198.80 411.99,199.36 412.15,199.36 412.15,199.92 412.81,199.92 412.81,200.48 412.89,200.48 412.89,201.04 413.54,201.04 413.54,201.60 414.60,201.60 414.60,202.15 414.76,202.15 414.76,203.27 414.92,203.27 414.92,204.39 415.49,204.39 415.49,204.95 415.66,204.95 415.66,205.51 415.74,205.51 415.74,206.07 415.98,206.07 415.98,206.63 416.31,206.63 416.31,207.19 416.80,207.19 416.80,207.75 417.69,207.75 417.69,208.31 417.94,208.31 417.94,208.87 418.02,208.87 418.02,209.43 418.51,209.43 418.51,210.56 418.91,210.56 418.91,211.12 419.48,211.12 419.48,211.69 421.36,211.69 421.36,212.25 421.93,212.25 421.93,212.81 422.50,212.81 422.50,213.38 422.98,213.38 422.98,213.94 423.47,213.94 423.47,214.50 423.55,214.50 423.55,215.06 424.20,215.06 424.20,215.63 425.26,215.63 425.26,216.19 425.59,216.19 425.59,216.75 425.67,216.75 425.67,217.88 426.48,217.88 426.48,219.01 428.11,219.01 428.11,219.57 428.85,219.57 428.85,220.14 429.33,220.14 429.33,220.70 429.42,220.70 429.42,221.27 429.82,221.27 429.82,221.83 430.15,221.83 430.15,222.40 430.72,222.40 430.72,222.96 430.96,222.96 430.96,223.53 431.45,223.53 431.45,224.09 431.70,224.09 431.70,224.66 431.94,224.66 431.94,225.22 432.35,225.22 432.35,225.78 434.06,225.78 434.06,226.35 434.46,226.35 434.46,226.91 434.95,226.91 434.95,227.48 435.93,227.48 435.93,228.04 436.17,228.04 436.17,228.61 436.42,228.61 436.42,229.17 436.74,229.17 436.74,229.74 436.83,229.74 436.83,230.30 437.15,230.30 437.15,230.87 439.51,230.87 439.51,231.43 440.08,231.43 440.08,232.56 440.90,232.56 440.90,233.13 441.55,233.13 441.55,233.69 442.77,233.69 442.77,234.26 443.58,234.26 443.58,234.82 447.33,234.82 447.33,235.39 447.41,235.39 447.41,235.96 448.06,235.96 448.06,236.53 450.91,236.53 450.91,237.10 451.97,237.10 451.97,237.66 452.05,237.66 452.05,238.23 453.11,238.23 453.11,238.80 457.26,238.80 457.26,239.37 458.65,239.37 458.65,239.95 460.85,239.95 460.85,240.52 463.70,240.52 463.70,241.10 468.25,241.10 468.25,241.68 469.96,241.68 469.96,242.26 470.29,242.26 470.29,242.84 471.02,242.84 471.02,243.42 473.38,243.42 473.38,244.01 475.18,244.01 475.18,244.60 480.47,244.60 480.47,245.23 481.20,245.23 481.20,245.88 483.64,245.88 483.64,246.55 494.07,246.55 494.07,247.34 495.29,247.34 495.29,248.12 500.91,248.12 500.91,248.94 518.09,248.94 518.09,250.16 524.84,250.16 524.84,251.61 554.81,251.61 554.81,260.40 565.88,260.40" style="stroke-width: 0.75;"/>
<polyline points="368.92,72.53 369.65,72.53 369.65,74.08 369.98,74.08 369.98,76.69 370.22,76.69 370.22,77.46 370.38,77.46 370.38,78.22 370.55,78.22 370.55,79.68 370.63,79.68 370.63,80.39 370.79,80.39 370.79,81.09 370.87,81.09 370.87,83.16 370.95,83.16 370.95,83.83 371.12,83.83 371.12,86.50 371.20,86.50 371.20,87.15 371.52,87.15 371.52,87.81 371.61,87.81 371.61,88.46 371.69,88.46 371.69,89.11 372.18,89.11 372.18,89.75 372.50,89.75 372.50,90.40 372.58,90.40 372.58,91.04 372.66,91.04 372.66,91.67 372.99,91.67 372.99,92.95 373.15,92.95 373.15,93.58 373.48,93.58 373.48,94.21 374.05,94.21 374.05,94.84 374.21,94.84 374.21,95.47 374.94,95.47 374.94,96.10 375.11,96.10 375.11,96.73 375.19,96.73 375.19,97.36 375.84,97.36 375.84,97.98 375.92,97.98 375.92,98.60 376.17,98.60 376.17,99.23 376.65,99.23 376.65,99.85 376.98,99.85 376.98,100.47 377.31,100.47 377.31,101.09 377.39,101.09 377.39,101.71 377.55,101.71 377.55,102.33 377.88,102.33 377.88,102.95 378.04,102.95 378.04,103.56 378.36,103.56 378.36,104.18 378.69,104.18 378.69,104.79 378.77,104.79 378.77,105.40 378.85,105.40 378.85,106.02 379.34,106.02 379.34,106.63 379.58,106.63 379.58,107.24 380.32,107.24 380.32,108.46 380.64,108.46 380.64,109.68 380.72,109.68 380.72,110.29 380.81,110.29 380.81,110.89 380.97,110.89 380.97,112.10 381.46,112.10 381.46,112.71 381.62,112.71 381.62,113.92 381.70,113.92 381.70,114.52 382.19,114.52 382.19,115.12 382.43,115.12 382.43,115.72 382.52,115.72 382.52,116.93 382.60,116.93 382.60,117.53 382.76,117.53 382.76,118.13 383.49,118.13 383.49,118.73 383.57,118.73 383.57,119.33 383.66,119.33 383.66,119.93 383.98,119.93 383.98,121.12 384.14,121.12 384.14,121.72 384.23,121.72 384.23,122.32 384.47,122.32 384.47,123.51 384.63,123.51 384.63,124.11 384.96,124.11 384.96,124.71 385.28,124.71 385.28,125.30 385.45,125.30 385.45,125.90 385.69,125.90 385.69,126.49 385.94,126.49 385.94,127.09 386.02,127.09 386.02,127.68 386.26,127.68 386.26,128.27 386.42,128.27 386.42,128.87 386.51,128.87 386.51,129.46 386.67,129.46 386.67,130.05 387.32,130.05 387.32,130.65 387.65,130.65 387.65,131.24 387.73,131.24 387.73,131.83 387.81,131.83 387.81,132.42 387.97,132.42 387.97,133.01 388.05,133.01 388.05,134.19 388.22,134.19 388.22,134.78 388.38,134.78 388.38,135.37 388.62,135.37 388.62,135.96 388.87,135.96 388.87,136.55 388.95,136.55 388.95,137.73 389.11,137.73 389.11,140.08 389.44,140.08 389.44,140.66 389.52,140.66 389.52,141.25 389.68,141.25 389.68,141.84 389.93,141.84 389.93,143.01 390.01,143.01 390.01,143.59 390.09,143.59 390.09,144.18 390.17,144.18 390.17,144.76 390.25,144.76 390.25,145.35 390.33,145.35 390.33,145.93 390.58,145.93 390.58,146.52 390.66,146.52 390.66,147.68 390.82,147.68 390.82,148.27 391.15,148.27 391.15,148.85 391.31,148.85 391.31,150.01 391.55,150.01 391.55,150.59 391.80,150.59 391.80,151.18 391.96,151.18 391.96,151.76 392.04,151.76 392.04,152.34 392.21,152.34 392.21,154.08 392.37,154.08 392.37,154.66 392.78,154.66 392.78,156.40 392.94,156.40 392.94,157.56 393.10,157.56 393.10,158.13 393.59,158.13 393.59,158.71 393.75,158.71 393.75,159.29 393.92,159.29 393.92,159.87 394.00,159.87 394.00,160.44 394.16,160.44 394.16,161.02 394.40,161.02 394.40,161.60 394.81,161.60 394.81,162.18 394.89,162.18 394.89,162.75 395.14,162.75 395.14,164.48 395.46,164.48 395.46,165.64 395.71,165.64 395.71,166.21 395.95,166.21 395.95,166.79 396.03,166.79 396.03,167.36 396.11,167.36 396.11,167.94 396.36,167.94 396.36,169.09 396.68,169.09 396.68,169.67 396.77,169.67 396.77,170.24 396.93,170.24 396.93,170.82 397.82,170.82 397.82,171.96 397.91,171.96 397.91,172.54 398.15,172.54 398.15,173.11 398.23,173.11 398.23,173.69 398.56,173.69 398.56,174.26 398.64,174.26 398.64,174.83 398.88,174.83 398.88,175.98 398.96,175.98 398.96,176.55 399.21,176.55 399.21,177.12 399.29,177.12 399.29,177.69 399.37,177.69 399.37,178.27 399.45,178.27 399.45,178.84 399.94,178.84 399.94,179.41 400.10,179.41 400.10,179.98 400.27,179.98 400.27,181.13 400.35,181.13 400.35,181.70 400.51,181.70 400.51,182.84 401.16,182.84 401.16,183.41 401.24,183.41 401.24,183.99 401.49,183.99 401.49,185.13 401.73,185.13 401.73,185.70 402.14,185.70 402.14,186.84 402.22,186.84 402.22,187.41 402.30,187.41 402.30,187.98 402.38,187.98 402.38,189.69 402.95,189.69 402.95,190.26 403.03,190.26 403.03,190.83 403.12,190.83 403.12,191.40 403.36,191.40 403.36,191.96 403.44,191.96 403.44,192.53 404.01,192.53 404.01,193.10 404.09,193.10 404.09,193.67 404.58,193.67 404.58,194.24 404.66,194.24 404.66,194.81 404.99,194.81 404.99,195.39 405.23,195.39 405.23,195.96 405.31,195.96 405.31,196.53 406.05,196.53 406.05,197.10 406.21,197.10 406.21,197.67 406.37,197.67 406.37,198.24 406.45,198.24 406.45,198.81 406.54,198.81 406.54,199.39 406.70,199.39 406.70,199.96 406.78,199.96 406.78,201.10 407.68,201.10 407.68,202.24 408.00,202.24 408.00,202.81 408.41,202.81 408.41,203.38 408.49,203.38 408.49,203.95 409.22,203.95 409.22,204.52 409.39,204.52 409.39,205.08 409.55,205.08 409.55,205.65 410.12,205.65 410.12,206.22 410.53,206.22 410.53,206.79 410.69,206.79 410.69,207.36 410.85,207.36 410.85,207.93 410.93,207.93 410.93,208.50 411.01,208.50 411.01,209.06 411.10,209.06 411.10,210.20 411.42,210.20 411.42,210.77 411.58,210.77 411.58,211.34 411.99,211.34 411.99,211.91 412.15,211.91 412.15,212.48 412.81,212.48 412.81,213.05 412.89,213.05 412.89,213.62 413.54,213.62 413.54,214.18 414.60,214.18 414.60,214.75 414.76,214.75 414.76,215.89 414.92,215.89 414.92,217.02 415.49,217.02 415.49,217.59 415.66,217.59 415.66,218.16 415.74,218.16 415.74,218.73 415.98,218.73 415.98,219.29 416.31,219.29 416.31,219.86 416.80,219.86 416.80,220.43 417.69,220.43 417.69,221.00 417.94,221.00 417.94,221.57 418.02,221.57 418.02,222.14 418.51,222.14 418.51,223.28 418.91,223.28 418.91,223.85 419.48,223.85 419.48,224.42 421.36,224.42 421.36,224.99 421.93,224.99 421.93,225.56 422.50,225.56 422.50,226.13 422.98,226.13 422.98,226.70 423.47,226.70 423.47,227.27 423.55,227.27 423.55,227.84 424.20,227.84 424.20,228.41 425.26,228.41 425.26,228.98 425.59,228.98 425.59,229.55 425.67,229.55 425.67,230.69 426.48,230.69 426.48,231.82 428.11,231.82 428.11,232.39 428.85,232.39 428.85,232.96 429.33,232.96 429.33,233.53 429.42,233.53 429.42,234.10 429.82,234.10 429.82,234.67 430.15,234.67 430.15,235.24 430.72,235.24 430.72,235.81 430.96,235.81 430.96,236.38 431.45,236.38 431.45,236.95 431.70,236.95 431.70,237.52 431.94,237.52 431.94,238.08 432.35,238.08 432.35,238.65 434.06,238.65 434.06,239.22 434.46,239.22 434.46,239.79 434.95,239.79 434.95,240.35 435.93,240.35 435.93,240.92 436.17,240.92 436.17,241.49 436.42,241.49 436.42,242.06 436.74,242.06 436.74,242.62 436.83,242.62 436.83,243.19 437.15,243.19 437.15,243.76 439.51,243.76 439.51,244.32 440.08,244.32 440.08,245.45 440.90,245.45 440.90,246.02 441.55,246.02 441.55,246.59 442.77,246.59 442.77,247.15 443.58,247.15 443.58,247.72 447.33,247.72 447.33,248.29 447.41,248.29 447.41,248.86 448.06,248.86 448.06,249.43 450.91,249.43 450.91,250.00 451.97,250.00 451.97,250.57 452.05,250.57 452.05,251.13 453.11,251.13 453.11,251.70 457.26,251.70 457.26,252.27 458.65,252.27 458.65,252.85 460.85,252.85 460.85,253.42 463.70,253.42 463.70,254.00 468.25,254.00 468.25,254.58 469.96,254.58 469.96,255.16 470.29,255.16 470.29,255.74 471.02,255.74 471.02,256.32 473.38,256.32 473.38,256.91 475.18,256.91 475.18,257.50 480.47,257.50 480.47,258.14 481.20,258.14 481.20,258.79 483.64,258.79 483.64,259.47 494.07,259.47 494.07,260.27 495.29,260.27 495.29,261.08 500.91,261.08 500.91,261.91 518.09,261.91 518.09,263.23 524.84,263.23 524.84,264.83 554.81,264.83 554.81,280.19 565.88,280.19" style="stroke-width: 0.75; stroke-dasharray: 4.00, 4.00;"/>
<polyline points="368.92,72.53 369.98,72.53 369.98,72.58 370.22,72.58 370.22,72.86 370.38,72.86 370.38,73.17 370.55,73.17 370.55,73.84 370.63,73.84 370.63,74.20 370.79,74.20 370.79,74.56 370.87,74.56 370.87,75.71 370.95,75.71 370.95,76.11 371.12,76.11 371.12,77.74 371.20,77.74 371.20,78.16 371.52,78.16 371.52,78.58 371.61,78.58 371.61,79.01 371.69,79.01 371.69,79.44 372.18,79.44 372.18,79.87 372.50,79.87 372.50,80.30 372.58,80.30 372.58,80.74 372.66,80.74 372.66,81.18 372.99,81.18 372.99,82.07 373.15,82.07 373.15,82.52 373.48,82.52 373.48,82.96 374.05,82.96 374.05,83.41 374.21,83.41 374.21,83.87 374.94,83.87 374.94,84.32 375.11,84.32 375.11,84.78 375.19,84.78 375.19,85.24 375.84,85.24 375.84,85.70 375.92,85.70 375.92,86.16 376.17,86.16 376.17,86.62 376.65,86.62 376.65,87.08 376.98,87.08 376.98,87.55 377.31,87.55 377.31,88.02 377.39,88.02 377.39,88.48 377.55,88.48 377.55,88.95 377.88,88.95 377.88,89.42 378.04,89.42 378.04,89.89 378.36,89.89 378.36,90.37 378.69,90.37 378.69,90.84 378.77,90.84 378.77,91.32 378.85,91.32 378.85,91.79 379.34,91.79 379.34,92.27 379.58,92.27 379.58,92.75 380.32,92.75 380.32,93.71 380.64,93.71 380.64,94.67 380.72,94.67 380.72,95.15 380.81,95.15 380.81,95.63 380.97,95.63 380.97,96.60 381.46,96.60 381.46,97.08 381.62,97.08 381.62,98.06 381.70,98.06 381.70,98.54 382.19,98.54 382.19,99.03 382.43,99.03 382.43,99.52 382.52,99.52 382.52,100.50 382.60,100.50 382.60,100.99 382.76,100.99 382.76,101.48 383.49,101.48 383.49,101.98 383.57,101.98 383.57,102.47 383.66,102.47 383.66,102.96 383.98,102.96 383.98,103.95 384.14,103.95 384.14,104.45 384.23,104.45 384.23,104.94 384.47,104.94 384.47,105.94 384.63,105.94 384.63,106.43 384.96,106.43 384.96,106.93 385.28,106.93 385.28,107.43 385.45,107.43 385.45,107.93 385.69,107.93 385.69,108.43 385.94,108.43 385.94,108.93 386.02,108.93 386.02,109.43 386.26,109.43 386.26,109.94 386.42,109.94 386.42,110.44 386.51,110.44 386.51,110.94 386.67,110.94 386.67,111.44 387.32,111.44 387.32,111.95 387.65,111.95 387.65,112.45 387.73,112.45 387.73,112.95 387.81,112.95 387.81,113.46 387.97,113.46 387.97,113.96 388.05,113.96 388.05,114.97 388.22,114.97 388.22,115.48 388.38,115.48 388.38,115.99 388.62,115.99 388.62,116.49 388.87,116.49 388.87,117.00 388.95,117.00 388.95,118.02 389.11,118.02 389.11,120.06 389.44,120.06 389.44,120.57 389.52,120.57 389.52,121.08 389.68,121.08 389.68,121.59 389.93,121.59 389.93,122.61 390.01,122.61 390.01,123.12 390.09,123.12 390.09,123.64 390.17,123.64 390.17,124.15 390.25,124.15 390.25,124.66 390.33,124.66 390.33,125.17 390.58,125.17 390.58,125.69 390.66,125.69 390.66,126.72 390.82,126.72 390.82,127.23 391.15,127.23 391.15,127.75 391.31,127.75 391.31,128.78 391.55,128.78 391.55,129.29 391.80,129.29 391.80,129.81 391.96,129.81 391.96,130.32 392.04,130.32 392.04,130.84 392.21,130.84 392.21,132.39 392.37,132.39 392.37,132.91 392.78,132.91 392.78,134.46 392.94,134.46 392.94,135.50 393.10,135.50 393.10,136.02 393.59,136.02 393.59,136.54 393.75,136.54 393.75,137.06 393.92,137.06 393.92,137.58 394.00,137.58 394.00,138.10 394.16,138.10 394.16,138.62 394.40,138.62 394.40,139.14 394.81,139.14 394.81,139.66 394.89,139.66 394.89,140.18 395.14,140.18 395.14,141.75 395.46,141.75 395.46,142.79 395.71,142.79 395.71,143.32 395.95,143.32 395.95,143.84 396.03,143.84 396.03,144.37 396.11,144.37 396.11,144.89 396.36,144.89 396.36,145.94 396.68,145.94 396.68,146.46 396.77,146.46 396.77,146.99 396.93,146.99 396.93,147.51 397.82,147.51 397.82,148.56 397.91,148.56 397.91,149.09 398.15,149.09 398.15,149.62 398.23,149.62 398.23,150.14 398.56,150.14 398.56,150.67 398.64,150.67 398.64,151.20 398.88,151.20 398.88,152.25 398.96,152.25 398.96,152.78 399.21,152.78 399.21,153.30 399.29,153.30 399.29,153.83 399.37,153.83 399.37,154.36 399.45,154.36 399.45,154.89 399.94,154.89 399.94,155.42 400.10,155.42 400.10,155.95 400.27,155.95 400.27,157.01 400.35,157.01 400.35,157.54 400.51,157.54 400.51,158.60 401.16,158.60 401.16,159.13 401.24,159.13 401.24,159.66 401.49,159.66 401.49,160.72 401.73,160.72 401.73,161.25 402.14,161.25 402.14,162.32 402.22,162.32 402.22,162.85 402.30,162.85 402.30,163.38 402.38,163.38 402.38,164.98 402.95,164.98 402.95,165.51 403.03,165.51 403.03,166.05 403.12,166.05 403.12,166.58 403.36,166.58 403.36,167.11 403.44,167.11 403.44,167.65 404.01,167.65 404.01,168.18 404.09,168.18 404.09,168.71 404.58,168.71 404.58,169.25 404.66,169.25 404.66,169.79 404.99,169.79 404.99,170.33 405.23,170.33 405.23,170.87 405.31,170.87 405.31,171.41 406.05,171.41 406.05,171.94 406.21,171.94 406.21,172.48 406.37,172.48 406.37,173.02 406.45,173.02 406.45,173.56 406.54,173.56 406.54,174.10 406.70,174.10 406.70,174.64 406.78,174.64 406.78,175.72 407.68,175.72 407.68,176.80 408.00,176.80 408.00,177.34 408.41,177.34 408.41,177.88 408.49,177.88 408.49,178.42 409.22,178.42 409.22,178.96 409.39,178.96 409.39,179.50 409.55,179.50 409.55,180.05 410.12,180.05 410.12,180.59 410.53,180.59 410.53,181.13 410.69,181.13 410.69,181.67 410.85,181.67 410.85,182.21 410.93,182.21 410.93,182.75 411.01,182.75 411.01,183.30 411.10,183.30 411.10,184.39 411.42,184.39 411.42,184.93 411.58,184.93 411.58,185.47 411.99,185.47 411.99,186.02 412.15,186.02 412.15,186.56 412.81,186.56 412.81,187.11 412.89,187.11 412.89,187.65 413.54,187.65 413.54,188.20 414.60,188.20 414.60,188.74 414.76,188.74 414.76,189.83 414.92,189.83 414.92,190.93 415.49,190.93 415.49,191.47 415.66,191.47 415.66,192.02 415.74,192.02 415.74,192.57 415.98,192.57 415.98,193.12 416.31,193.12 416.31,193.67 416.80,193.67 416.80,194.21 417.69,194.21 417.69,194.76 417.94,194.76 417.94,195.31 418.02,195.31 418.02,195.87 418.51,195.87 418.51,196.97 418.91,196.97 418.91,197.52 419.48,197.52 419.48,198.07 421.36,198.07 421.36,198.63 421.93,198.63 421.93,199.18 422.50,199.18 422.50,199.73 422.98,199.73 422.98,200.28 423.47,200.28 423.47,200.84 423.55,200.84 423.55,201.39 424.20,201.39 424.20,201.94 425.26,201.94 425.26,202.50 425.59,202.50 425.59,203.05 425.67,203.05 425.67,204.16 426.48,204.16 426.48,205.27 428.11,205.27 428.11,205.83 428.85,205.83 428.85,206.38 429.33,206.38 429.33,206.94 429.42,206.94 429.42,207.49 429.82,207.49 429.82,208.05 430.15,208.05 430.15,208.61 430.72,208.61 430.72,209.16 430.96,209.16 430.96,209.72 431.45,209.72 431.45,210.28 431.70,210.28 431.70,210.84 431.94,210.84 431.94,211.39 432.35,211.39 432.35,211.95 434.06,211.95 434.06,212.51 434.46,212.51 434.46,213.07 434.95,213.07 434.95,213.63 435.93,213.63 435.93,214.18 436.17,214.18 436.17,214.74 436.42,214.74 436.42,215.30 436.74,215.30 436.74,215.86 436.83,215.86 436.83,216.42 437.15,216.42 437.15,216.98 439.51,216.98 439.51,217.54 440.08,217.54 440.08,218.66 440.90,218.66 440.90,219.22 441.55,219.22 441.55,219.78 442.77,219.78 442.77,220.34 443.58,220.34 443.58,220.90 447.33,220.90 447.33,221.46 447.41,221.46 447.41,222.03 448.06,222.03 448.06,222.59 450.91,222.59 450.91,223.15 451.97,223.15 451.97,223.72 452.05,223.72 452.05,224.28 453.11,224.28 453.11,224.85 457.26,224.85 457.26,225.41 458.65,225.41 458.65,225.98 460.85,225.98 460.85,226.56 463.70,226.56 463.70,227.13 468.25,227.13 468.25,227.70 469.96,227.70 469.96,228.28 470.29,228.28 470.29,228.86 471.02,228.86 471.02,229.43 473.38,229.43 473.38,230.02 475.18,230.02 475.18,230.60 480.47,230.60 480.47,231.23 481.20,231.23 481.20,231.87 483.64,231.87 483.64,232.53 494.07,232.53 494.07,233.28 495.29,233.28 495.29,234.05 500.91,234.05 500.91,234.83 518.09,234.83 518.09,235.93 524.84,235.93 524.84,237.19 554.81,237.19 554.81,237.60 565.88,237.60" style="stroke-width: 0.75; stroke-dasharray: 4.00, 4.00;"/>
<polyline points="369.24,73.32 369.41,73.71 369.49,73.91 369.65,74.30 369.73,74.49 369.98,75.08 370.06,75.27 370.14,75.47 370.22,75.66 370.30,75.86 370.38,76.06 370.47,76.25 370.55,76.45 370.63,76.65 370.71,76.84 370.79,77.04 370.87,77.24 370.95,77.44 371.12,77.84 371.20,78.04 371.44,78.65 371.52,78.85 371.61,79.05 371.69,79.26 371.85,79.66 372.18,80.49 372.50,81.32 372.58,81.53 372.66,81.74 372.91,82.37 372.99,82.58 373.15,83.00 373.48,83.86 373.72,84.50 374.05,85.37 374.21,85.81 374.29,86.03 374.94,87.80 375.11,88.24 375.19,88.47 375.84,90.28 375.92,90.50 376.17,91.19 376.49,92.11 376.65,92.57 376.98,93.50 377.31,94.44 377.39,94.68 377.55,95.15 377.88,96.10 378.04,96.57 378.36,97.53 378.69,98.49 378.77,98.73 378.85,98.97 379.34,100.43 379.58,101.17 380.32,103.39 380.64,104.38 380.72,104.63 380.81,104.88 380.97,105.38 381.46,106.89 381.62,107.39 381.70,107.65 381.95,108.41 382.19,109.17 382.43,109.94 382.52,110.19 382.60,110.45 382.76,110.96 383.49,113.29 383.57,113.55 383.66,113.81 383.98,114.85 384.14,115.37 384.23,115.63 384.47,116.42 384.63,116.94 384.96,118.00 385.28,119.05 385.45,119.58 385.69,120.38 385.94,121.18 386.02,121.44 386.26,122.24 386.42,122.78 386.51,123.05 386.67,123.58 387.32,125.74 387.65,126.82 387.73,127.09 387.81,127.36 387.97,127.90 388.05,128.17 388.22,128.72 388.38,129.26 388.54,129.81 388.62,130.08 388.87,130.90 388.95,131.17 389.11,131.72 389.44,132.82 389.52,133.09 389.68,133.64 389.93,134.47 390.01,134.74 390.09,135.02 390.17,135.29 390.25,135.57 390.33,135.84 390.58,136.67 390.66,136.95 390.82,137.50 391.15,138.60 391.31,139.16 391.55,139.99 391.80,140.81 391.96,141.37 392.04,141.64 392.21,142.19 392.37,142.74 392.78,144.12 392.94,144.67 393.10,145.22 393.59,146.86 393.75,147.41 393.92,147.95 394.00,148.22 394.16,148.77 394.40,149.58 394.81,150.93 394.89,151.20 395.06,151.74 395.14,152.01 395.46,153.08 395.71,153.88 395.95,154.68 396.03,154.95 396.11,155.21 396.36,156.00 396.68,157.06 396.77,157.32 396.93,157.84 397.82,160.69 397.91,160.94 398.15,161.71 398.23,161.97 398.56,162.98 398.64,163.23 398.88,163.99 398.96,164.24 399.21,164.99 399.29,165.24 399.37,165.48 399.45,165.73 399.53,165.98 399.94,167.21 400.10,167.69 400.27,168.18 400.35,168.42 400.51,168.91 401.16,170.82 401.24,171.05 401.49,171.76 401.73,172.46 402.14,173.62 402.22,173.84 402.30,174.07 402.38,174.30 402.95,175.89 403.03,176.11 403.12,176.33 403.36,177.00 403.44,177.22 404.01,178.75 404.09,178.97 404.42,179.83 404.58,180.25 404.66,180.47 404.99,181.31 405.23,181.93 405.31,182.14 406.05,183.98 406.21,184.38 406.37,184.78 406.45,184.98 406.54,185.17 406.70,185.57 406.78,185.76 407.68,187.88 408.00,188.63 408.41,189.55 408.49,189.74 409.22,191.36 409.39,191.71 409.55,192.06 410.12,193.27 410.53,194.12 410.69,194.45 410.85,194.79 410.93,194.95 411.01,195.12 411.10,195.28 411.42,195.93 411.58,196.26 411.99,197.06 412.15,197.37 412.81,198.61 412.89,198.77 413.54,199.97 414.60,201.87 414.76,202.15 414.92,202.43 415.09,202.71 415.49,203.40 415.66,203.68 415.74,203.82 415.98,204.22 416.31,204.76 416.80,205.55 417.69,206.96 417.85,207.21 417.94,207.33 418.02,207.46 418.51,208.20 418.91,208.80 419.48,209.63 421.36,212.23 421.93,212.99 422.50,213.73 422.98,214.35 423.47,214.96 423.55,215.06 424.20,215.85 425.26,217.09 425.59,217.47 425.67,217.56 425.75,217.65 426.48,218.47 428.11,220.21 428.85,220.96 429.33,221.44 429.42,221.52 429.82,221.92 430.15,222.24 430.72,222.78 430.96,223.01 431.45,223.46 431.70,223.68 431.94,223.90 432.35,224.27 434.06,225.74 434.46,226.07 434.95,226.47 435.93,227.24 436.17,227.43 436.42,227.62 436.74,227.87 436.83,227.93 437.15,228.18 439.51,229.87 440.08,230.26 440.90,230.80 441.55,231.22 442.69,231.94 442.77,231.99 443.58,232.48 446.68,234.24 447.33,234.59 447.41,234.64 448.06,234.98 450.91,236.38 451.97,236.87 452.05,236.91 453.11,237.38 453.52,237.56 457.26,239.09 457.83,239.31 458.40,239.53 458.65,239.62 459.54,239.94 460.85,240.40 463.70,241.35 464.67,241.66 465.98,242.06 468.25,242.71 469.96,243.18 470.29,243.27 470.78,243.40 471.02,243.46 473.14,243.99 473.22,244.01 473.38,244.05 473.71,244.13 473.95,244.19 474.93,244.42 475.18,244.48 475.42,244.53 475.83,244.62 476.32,244.73 476.40,244.75 476.56,244.79 476.64,244.81 477.29,244.95 477.46,244.99 478.60,245.23 478.76,245.27 478.84,245.28 479.65,245.45 479.74,245.47 479.98,245.52 480.22,245.57 480.31,245.58 480.39,245.60 480.47,245.62 480.71,245.67 480.79,245.68 481.20,245.76 481.53,245.83 481.61,245.84 481.69,245.86 481.77,245.88 482.10,245.94 482.18,245.95 482.34,245.99 482.99,246.11 483.32,246.17 483.64,246.23 484.05,246.31 484.30,246.35 484.54,246.40 484.62,246.41 484.78,246.44 485.03,246.48 485.27,246.53 485.44,246.56 486.33,246.72 486.49,246.74 487.39,246.90 487.47,246.91 487.72,246.95 487.80,246.97 488.12,247.02 488.20,247.03 488.37,247.06 489.34,247.22 489.43,247.23 489.83,247.30 490.81,247.45 490.97,247.48 492.76,247.75 492.84,247.77 493.09,247.80 493.50,247.86 494.07,247.95 494.64,248.03 494.72,248.04 495.29,248.12 495.53,248.16 495.86,248.20 497.40,248.41 497.81,248.47 497.89,248.48 498.71,248.59 499.36,248.67 500.91,248.87 501.07,248.89 501.39,248.93 503.10,249.14 503.43,249.18 503.84,249.23 503.92,249.24 504.57,249.31 504.81,249.34 505.79,249.45 505.87,249.46 505.95,249.47 506.28,249.51 506.36,249.52 506.93,249.58 507.18,249.61 507.58,249.66 507.66,249.66 507.99,249.70 508.15,249.72 508.48,249.75 508.72,249.78 508.80,249.79 508.97,249.81 509.05,249.81 509.37,249.85 509.54,249.87 509.62,249.88 509.70,249.88 509.78,249.89 509.86,249.90 510.11,249.93 510.35,249.95 510.51,249.97 510.60,249.98 510.76,249.99 510.92,250.01 511.00,250.02 511.82,250.10 511.98,250.12 512.22,250.15 512.55,250.18 513.36,250.26 513.77,250.30 513.85,250.31 514.01,250.32 514.10,250.33 514.26,250.35 514.83,250.40 515.07,250.43 515.15,250.44 515.40,250.46 515.97,250.51 516.21,250.54 516.54,250.57 516.70,250.58 517.35,250.64 517.52,250.66 517.68,250.67 518.09,250.71 518.25,250.73 518.98,250.79 519.14,250.81 519.23,250.82 519.96,250.88 520.28,250.91 520.45,250.92 520.69,250.95 520.85,250.96 521.75,251.04 521.99,251.06 522.08,251.07 522.24,251.08 522.40,251.10 523.05,251.15 523.70,251.21 524.19,251.25 524.52,251.28 524.60,251.28 524.68,251.29 524.84,251.30 525.33,251.34 525.58,251.36 527.12,251.49 527.45,251.52 527.86,251.55 527.94,251.56 528.18,251.58 528.51,251.60 529.16,251.65 529.49,251.68 529.81,251.70 530.38,251.75 530.79,251.78 530.87,251.79 530.95,251.79 531.03,251.80 531.68,251.85 532.25,251.89 532.34,251.90 533.15,251.96 533.64,252.00 534.04,252.03 534.53,252.06 534.86,252.09 535.02,252.10 535.10,252.11 535.18,252.11 535.27,252.12 535.35,252.12 535.67,252.15 536.00,252.17 536.08,252.18 536.24,252.19 536.32,252.20 536.49,252.21 536.89,252.24 537.06,252.25 537.46,252.28 538.52,252.35 538.77,252.37 539.50,252.42 541.37,252.55 541.70,252.58 541.78,252.58 541.94,252.59 542.02,252.60 542.68,252.64 542.84,252.65 542.92,252.66 543.57,252.70 543.82,252.72 543.90,252.73 543.98,252.73 544.30,252.75 544.96,252.80 546.34,252.89 546.67,252.91 546.91,252.93 547.07,252.94 547.32,252.96 547.40,252.96 547.56,252.97 547.89,252.99 548.05,253.00 548.86,253.06 549.60,253.11 549.84,253.12 550.00,253.13 550.41,253.16 550.74,253.18 551.06,253.20 551.23,253.21 551.39,253.22 551.88,253.25 552.12,253.27 552.37,253.28 552.45,253.29 552.53,253.30 554.24,253.40 554.81,253.44 556.11,253.52 556.19,253.53 556.52,253.55 556.84,253.57 557.41,253.60 557.66,253.62 559.04,253.70 559.77,253.75 559.86,253.75 561.16,253.83 561.65,253.86 561.81,253.87 561.97,253.88 562.71,253.93 563.85,254.00 565.88,254.12" style="stroke-width: 1.50;stroke: #FF0000;"/>
<polyline points="369.24,74.96 369.41,75.72 369.49,76.03 369.65,76.66 369.73,76.95 369.98,77.80 370.06,78.07 370.14,78.33 370.22,78.60 370.30,78.83 370.38,79.08 370.47,79.32 370.55,79.56 370.63,79.81 370.71,80.05 370.79,80.27 370.87,80.51 370.95,80.75 371.12,81.27 371.20,81.50 371.44,82.22 371.52,82.46 371.61,82.68 371.69,82.90 371.85,83.36 372.18,84.33 372.50,85.31 372.58,85.55 372.66,85.78 372.91,86.45 372.99,86.72 373.15,87.19 373.48,88.24 373.72,89.01 374.05,90.08 374.21,90.62 374.29,90.88 374.94,92.91 375.11,93.42 375.19,93.70 375.84,95.78 375.92,96.05 376.17,96.82 376.49,97.82 376.65,98.41 376.98,99.51 377.31,100.51 377.39,100.76 377.55,101.27 377.88,102.32 378.04,102.86 378.36,103.97 378.69,105.08 378.77,105.32 378.85,105.59 379.34,107.26 379.58,108.13 380.32,110.81 380.64,111.92 380.72,112.17 380.81,112.43 380.97,112.95 381.46,114.61 381.62,115.20 381.70,115.50 381.95,116.39 382.19,117.29 382.43,118.12 382.52,118.39 382.60,118.67 382.76,119.18 383.49,121.71 383.57,121.98 383.66,122.26 383.98,123.37 384.14,123.92 384.23,124.19 384.47,125.02 384.63,125.58 384.96,126.78 385.28,127.99 385.45,128.59 385.69,129.48 385.94,130.34 386.02,130.63 386.26,131.49 386.42,132.06 386.51,132.34 386.67,132.91 387.32,135.20 387.65,136.26 387.73,136.53 387.81,136.81 387.97,137.37 388.05,137.65 388.22,138.23 388.38,138.80 388.54,139.37 388.62,139.66 388.87,140.52 388.95,140.80 389.11,141.37 389.44,142.51 389.52,142.81 389.68,143.42 389.93,144.32 390.01,144.62 390.09,144.92 390.17,145.23 390.25,145.52 390.33,145.78 390.58,146.57 390.66,146.86 390.82,147.42 391.15,148.55 391.31,149.11 391.55,149.95 391.80,150.79 391.96,151.35 392.04,151.63 392.21,152.23 392.37,152.84 392.78,154.28 392.94,154.87 393.10,155.46 393.59,157.01 393.75,157.55 393.92,158.11 394.00,158.41 394.16,159.00 394.40,159.88 394.81,161.19 394.89,161.45 395.06,161.97 395.14,162.23 395.46,163.26 395.71,164.08 395.95,164.99 396.03,165.25 396.11,165.51 396.36,166.29 396.68,167.33 396.77,167.59 396.93,168.10 397.82,170.92 397.91,171.19 398.15,172.00 398.23,172.27 398.56,173.34 398.64,173.59 398.88,174.29 398.96,174.57 399.21,175.31 399.29,175.54 399.37,175.76 399.45,175.98 399.53,176.20 399.94,177.43 400.10,178.01 400.27,178.58 400.35,178.87 400.51,179.43 401.16,181.44 401.24,181.66 401.49,182.31 401.73,182.95 402.14,184.01 402.22,184.22 402.30,184.43 402.38,184.64 402.95,186.32 403.03,186.56 403.12,186.81 403.36,187.45 403.44,187.65 404.01,189.25 404.09,189.48 404.42,190.39 404.58,190.79 404.66,190.99 404.99,191.87 405.23,192.52 405.31,192.74 406.05,194.66 406.21,195.08 406.37,195.49 406.45,195.71 406.54,195.92 406.70,196.35 406.78,196.56 407.68,198.72 408.00,199.49 408.41,200.45 408.49,200.64 409.22,202.32 409.39,202.68 409.55,203.04 410.12,204.29 410.53,205.16 410.69,205.51 410.85,205.85 410.93,206.02 411.01,206.19 411.10,206.36 411.42,207.03 411.58,207.36 411.99,208.19 412.15,208.53 412.81,209.77 412.89,209.92 413.54,211.15 414.60,213.11 414.76,213.41 414.92,213.71 415.09,214.01 415.49,214.74 415.66,215.03 415.74,215.17 415.98,215.60 416.31,216.16 416.80,216.99 417.69,218.46 417.85,218.72 417.94,218.84 418.02,218.97 418.51,219.72 418.91,220.34 419.48,221.16 421.36,223.65 421.93,224.36 422.50,225.07 422.98,225.65 423.47,226.23 423.55,226.32 424.20,227.07 425.26,228.25 425.59,228.62 425.67,228.71 425.75,228.80 426.48,229.59 428.11,231.29 428.85,232.00 429.33,232.47 429.42,232.55 429.82,232.93 430.15,233.24 430.72,233.78 430.96,234.00 431.45,234.41 431.70,234.62 431.94,234.83 432.35,235.18 434.06,236.55 434.46,236.87 434.95,237.25 435.93,237.99 436.17,238.17 436.42,238.35 436.74,238.58 436.83,238.64 437.15,238.87 439.51,240.45 440.08,240.81 440.90,241.31 441.55,241.70 442.69,242.36 442.77,242.40 443.58,242.85 446.68,244.48 447.33,244.81 447.41,244.86 448.06,245.18 450.91,246.48 451.97,246.91 452.05,246.95 453.11,247.37 453.52,247.53 457.26,248.87 457.83,249.06 458.40,249.25 458.65,249.33 459.54,249.61 460.85,250.00 463.70,250.82 464.67,251.08 465.98,251.42 468.25,251.98 469.96,252.38 470.29,252.45 470.78,252.56 471.02,252.61 473.14,253.05 473.22,253.06 473.38,253.09 473.71,253.16 473.95,253.21 474.93,253.39 475.18,253.44 475.42,253.48 475.83,253.56 476.32,253.65 476.40,253.66 476.56,253.69 476.64,253.70 477.29,253.82 477.46,253.85 478.60,254.04 478.76,254.06 478.84,254.08 479.65,254.21 479.74,254.22 479.98,254.26 480.22,254.29 480.31,254.31 480.39,254.32 480.47,254.33 480.71,254.36 480.79,254.38 481.20,254.44 481.53,254.49 481.61,254.50 481.69,254.52 481.77,254.53 482.10,254.58 482.18,254.59 482.34,254.62 482.99,254.72 483.32,254.76 483.64,254.81 484.05,254.86 484.30,254.90 484.54,254.93 484.62,254.94 484.78,254.96 485.03,255.00 485.27,255.03 485.44,255.05 486.33,255.17 486.49,255.19 487.39,255.30 487.47,255.31 487.72,255.34 487.80,255.35 488.12,255.39 488.20,255.40 488.37,255.43 489.34,255.56 489.43,255.57 489.83,255.62 490.81,255.74 490.97,255.76 492.76,255.96 492.84,255.97 493.09,255.99 493.50,256.04 494.07,256.09 494.64,256.15 494.72,256.16 495.29,256.22 495.53,256.24 495.86,256.27 497.40,256.42 497.81,256.46 497.89,256.47 498.71,256.54 499.36,256.60 500.91,256.73 501.07,256.75 501.39,256.77 503.10,256.91 503.43,256.94 503.84,256.97 503.92,256.98 504.57,257.03 504.81,257.05 505.79,257.12 505.87,257.13 505.95,257.13 506.28,257.16 506.36,257.17 506.93,257.21 507.18,257.23 507.58,257.26 507.66,257.27 507.99,257.29 508.15,257.30 508.48,257.33 508.72,257.35 508.80,257.35 508.97,257.36 509.05,257.37 509.37,257.39 509.54,257.40 509.62,257.41 509.70,257.42 509.78,257.42 509.86,257.43 510.11,257.45 510.35,257.46 510.51,257.47 510.60,257.48 510.76,257.49 510.92,257.50 511.00,257.51 511.82,257.56 511.98,257.58 512.22,257.59 512.55,257.61 513.36,257.67 513.77,257.70 513.85,257.70 514.01,257.71 514.10,257.72 514.26,257.73 514.83,257.76 515.07,257.78 515.15,257.78 515.40,257.80 515.97,257.84 516.21,257.85 516.54,257.87 516.70,257.88 517.35,257.92 517.52,257.93 517.68,257.94 518.09,257.96 518.25,257.97 518.98,258.01 519.14,258.02 519.23,258.03 519.96,258.07 520.28,258.09 520.45,258.10 520.69,258.12 520.85,258.13 521.75,258.19 521.99,258.20 522.08,258.21 522.24,258.21 522.40,258.21 523.05,258.24 523.70,258.27 524.19,258.30 524.52,258.32 524.60,258.32 524.68,258.33 524.84,258.33 525.33,258.36 525.58,258.37 527.12,258.43 527.45,258.44 527.86,258.45 527.94,258.45 528.18,258.46 528.51,258.47 529.16,258.49 529.49,258.50 529.81,258.51 530.38,258.52 530.79,258.54 530.87,258.54 530.95,258.54 531.03,258.55 531.68,258.58 532.25,258.60 532.34,258.60 533.15,258.64 533.64,258.66 534.04,258.68 534.53,258.70 534.86,258.72 535.02,258.73 535.10,258.74 535.18,258.74 535.27,258.74 535.35,258.75 535.67,258.77 536.00,258.78 536.08,258.79 536.24,258.80 536.32,258.80 536.49,258.81 536.89,258.83 537.06,258.84 537.46,258.86 538.52,258.91 538.77,258.93 539.50,258.96 541.37,259.06 541.70,259.08 541.78,259.08 541.94,259.09 542.02,259.09 542.68,259.12 542.84,259.13 542.92,259.14 543.57,259.17 543.82,259.18 543.90,259.18 543.98,259.19 544.30,259.20 544.96,259.23 546.34,259.28 546.67,259.29 546.91,259.30 547.07,259.31 547.32,259.32 547.40,259.32 547.56,259.33 547.89,259.34 548.05,259.34 548.86,259.37 549.60,259.39 549.84,259.40 550.00,259.40 550.41,259.41 550.74,259.42 551.06,259.43 551.23,259.44 551.39,259.44 551.88,259.45 552.12,259.45 552.37,259.45 552.45,259.45 552.53,259.45 554.24,259.45 554.81,259.48 556.11,259.52 556.19,259.53 556.52,259.53 556.84,259.54 557.41,259.55 557.66,259.55 559.04,259.60 559.77,259.63 559.86,259.64 561.16,259.69 561.65,259.71 561.81,259.72 561.97,259.72 562.71,259.75 563.85,259.78 565.88,259.82" style="stroke-width: 0.75;stroke: #FF0000; stroke-dasharray: 4.00, 4.00;"/>
<polyline points="369.24,72.80 369.41,72.99 369.49,73.09 369.65,73.31 369.73,73.42 369.98,73.78 370.06,73.91 370.14,74.04 370.22,74.17 370.30,74.31 370.38,74.46 370.47,74.60 370.55,74.75 370.63,74.90 370.71,75.03 370.79,75.18 370.87,75.34 370.95,75.50 371.12,75.81 371.20,75.96 371.44,76.45 371.52,76.60 371.61,76.75 371.69,76.92 371.85,77.24 372.18,77.99 372.50,78.64 372.58,78.83 372.66,79.02 372.91,79.54 372.99,79.72 373.15,80.07 373.48,80.75 373.72,81.33 374.05,82.07 374.21,82.44 374.29,82.63 374.94,84.15 375.11,84.52 375.19,84.72 375.84,86.25 375.92,86.44 376.17,87.05 376.49,87.84 376.65,88.26 376.98,89.05 377.31,89.89 377.39,90.11 377.55,90.50 377.88,91.25 378.04,91.63 378.36,92.51 378.69,93.36 378.77,93.57 378.85,93.79 379.34,95.07 379.58,95.73 380.32,97.70 380.64,98.59 380.72,98.81 380.81,99.03 380.97,99.46 381.46,100.73 381.62,101.16 381.70,101.37 381.95,102.05 382.19,102.69 382.43,103.37 382.52,103.58 382.60,103.80 382.76,104.24 383.49,106.22 383.57,106.44 383.66,106.66 383.98,107.56 384.14,108.01 384.23,108.23 384.47,108.91 384.63,109.37 384.96,110.28 385.28,111.20 385.45,111.66 385.69,112.36 385.94,113.10 386.02,113.36 386.26,114.08 386.42,114.57 386.51,114.82 386.67,115.32 387.32,117.36 387.65,118.39 387.73,118.65 387.81,118.91 387.97,119.43 388.05,119.70 388.22,120.22 388.38,120.75 388.54,121.28 388.62,121.54 388.87,122.31 388.95,122.56 389.11,123.07 389.44,124.10 389.52,124.36 389.68,124.88 389.93,125.68 390.01,125.95 390.09,126.22 390.17,126.49 390.25,126.75 390.33,127.02 390.58,127.82 390.66,128.07 390.82,128.58 391.15,129.60 391.31,130.12 391.55,130.96 391.80,131.74 391.96,132.25 392.04,132.51 392.21,133.05 392.37,133.58 392.78,134.91 392.94,135.45 393.10,135.98 393.59,137.60 393.75,138.13 393.92,138.69 394.00,138.97 394.16,139.54 394.40,140.32 394.81,141.59 394.89,141.84 395.06,142.34 395.14,142.58 395.46,143.57 395.71,144.31 395.95,145.04 396.03,145.30 396.11,145.57 396.36,146.38 396.68,147.45 396.77,147.71 396.93,148.20 397.82,150.94 397.91,151.17 398.15,151.87 398.23,152.10 398.56,153.03 398.64,153.26 398.88,153.95 398.96,154.18 399.21,154.86 399.29,155.09 399.37,155.31 399.45,155.54 399.53,155.77 399.94,156.91 400.10,157.41 400.27,157.92 400.35,158.17 400.51,158.64 401.16,160.60 401.24,160.85 401.49,161.58 401.73,162.30 402.14,163.40 402.22,163.61 402.30,163.82 402.38,164.03 402.95,165.53 403.03,165.73 403.12,165.93 403.36,166.58 403.44,166.81 404.01,168.41 404.09,168.63 404.42,169.40 404.58,169.80 404.66,170.01 404.99,170.89 405.23,171.55 405.31,171.77 406.05,173.59 406.21,173.96 406.37,174.34 406.45,174.53 406.54,174.73 406.70,175.12 406.78,175.31 407.68,177.29 408.00,178.00 408.41,178.87 408.49,179.04 409.22,180.57 409.39,180.91 409.55,181.29 410.12,182.59 410.53,183.47 410.69,183.78 410.85,184.14 410.93,184.31 411.01,184.49 411.10,184.66 411.42,185.28 411.58,185.59 411.99,186.34 412.15,186.63 412.81,187.80 412.89,187.94 413.54,189.08 414.60,190.96 414.76,191.26 414.92,191.56 415.09,191.86 415.49,192.58 415.66,192.84 415.74,192.97 415.98,193.36 416.31,193.88 416.80,194.65 417.69,196.02 417.85,196.27 417.94,196.39 418.02,196.51 418.51,197.25 418.91,197.90 419.48,198.79 421.36,201.49 421.93,202.22 422.50,202.93 422.98,203.53 423.47,204.12 423.55,204.21 424.20,204.98 425.26,206.23 425.59,206.62 425.67,206.71 425.75,206.81 426.48,207.65 428.11,209.37 428.85,210.12 429.33,210.60 429.42,210.68 429.82,211.08 430.15,211.39 430.72,211.93 430.96,212.15 431.45,212.59 431.70,212.81 431.94,213.03 432.35,213.38 434.06,214.85 434.46,215.21 434.95,215.64 435.93,216.46 436.17,216.66 436.42,216.85 436.74,217.10 436.83,217.17 437.15,217.42 439.51,219.18 440.08,219.59 440.90,220.17 441.55,220.62 442.69,221.38 442.77,221.43 443.58,221.94 446.68,223.80 447.33,224.17 447.41,224.22 448.06,224.58 450.91,226.10 451.97,226.64 452.05,226.68 453.11,227.20 453.52,227.40 457.26,229.11 457.83,229.36 458.40,229.61 458.65,229.71 459.54,230.09 460.85,230.62 463.70,231.73 464.67,232.09 465.98,232.56 468.25,233.36 469.96,233.93 470.29,234.04 470.78,234.19 471.02,234.27 473.14,234.90 473.22,234.92 473.38,234.97 473.71,235.06 473.95,235.13 474.93,235.40 475.18,235.46 475.42,235.53 475.83,235.63 476.32,235.76 476.40,235.78 476.56,235.83 476.64,235.85 477.29,236.01 477.46,236.06 478.60,236.34 478.76,236.38 478.84,236.40 479.65,236.61 479.74,236.63 479.98,236.70 480.22,236.76 480.31,236.78 480.39,236.80 480.47,236.82 480.71,236.88 480.79,236.90 481.20,237.01 481.53,237.09 481.61,237.11 481.69,237.13 481.77,237.15 482.10,237.23 482.18,237.25 482.34,237.29 482.99,237.45 483.32,237.53 483.64,237.60 484.05,237.70 484.30,237.76 484.54,237.82 484.62,237.84 484.78,237.87 485.03,237.93 485.27,237.99 485.44,238.03 486.33,238.23 486.49,238.26 487.39,238.45 487.47,238.46 487.72,238.51 487.80,238.53 488.12,238.59 488.20,238.61 488.37,238.64 489.34,238.83 489.43,238.84 489.83,238.92 490.81,239.11 490.97,239.14 492.76,239.48 492.84,239.50 493.09,239.54 493.50,239.62 494.07,239.73 494.64,239.84 494.72,239.86 495.29,239.96 495.53,240.01 495.86,240.07 497.40,240.35 497.81,240.43 497.89,240.44 498.71,240.59 499.36,240.70 500.91,240.97 501.07,240.99 501.39,241.05 503.10,241.33 503.43,241.38 503.84,241.44 503.92,241.45 504.57,241.56 504.81,241.59 505.79,241.74 505.87,241.75 505.95,241.76 506.28,241.81 506.36,241.82 506.93,241.90 507.18,241.93 507.58,241.99 507.66,242.00 507.99,242.05 508.15,242.07 508.48,242.12 508.72,242.15 508.80,242.16 508.97,242.18 509.05,242.20 509.37,242.24 509.54,242.26 509.62,242.27 509.70,242.28 509.78,242.30 509.86,242.31 510.11,242.34 510.35,242.37 510.51,242.40 510.60,242.41 510.76,242.43 510.92,242.45 511.00,242.46 511.82,242.57 511.98,242.59 512.22,242.62 512.55,242.67 513.36,242.77 513.77,242.82 513.85,242.84 514.01,242.86 514.10,242.87 514.26,242.89 514.83,242.96 515.07,242.99 515.15,243.00 515.40,243.03 515.97,243.10 516.21,243.13 516.54,243.17 516.70,243.19 517.35,243.27 517.52,243.29 517.68,243.31 518.09,243.36 518.25,243.38 518.98,243.47 519.14,243.49 519.23,243.50 519.96,243.59 520.28,243.63 520.45,243.65 520.69,243.67 520.85,243.69 521.75,243.80 521.99,243.83 522.08,243.84 522.24,243.85 522.40,243.87 523.05,243.95 523.70,244.03 524.19,244.09 524.52,244.13 524.60,244.14 524.68,244.15 524.84,244.17 525.33,244.23 525.58,244.26 527.12,244.45 527.45,244.49 527.86,244.54 527.94,244.55 528.18,244.58 528.51,244.62 529.16,244.70 529.49,244.74 529.81,244.78 530.38,244.84 530.79,244.88 530.87,244.89 530.95,244.90 531.03,244.90 531.68,244.96 532.25,245.01 532.34,245.02 533.15,245.09 533.64,245.13 534.04,245.17 534.53,245.21 534.86,245.25 535.02,245.27 535.10,245.28 535.18,245.29 535.27,245.29 535.35,245.30 535.67,245.34 536.00,245.38 536.08,245.39 536.24,245.41 536.32,245.42 536.49,245.43 536.89,245.48 537.06,245.50 537.46,245.55 538.52,245.66 538.77,245.69 539.50,245.77 541.37,245.97 541.70,246.00 541.78,246.01 541.94,246.03 542.02,246.04 542.68,246.11 542.84,246.12 542.92,246.13 543.57,246.20 543.82,246.23 543.90,246.24 543.98,246.25 544.30,246.28 544.96,246.35 546.34,246.50 546.67,246.53 546.91,246.56 547.07,246.57 547.32,246.60 547.40,246.61 547.56,246.62 547.89,246.66 548.05,246.68 548.86,246.75 549.60,246.80 549.84,246.81 550.00,246.82 550.41,246.85 550.74,246.87 551.06,246.89 551.23,246.90 551.39,246.90 551.88,246.95 552.12,246.98 552.37,247.00 552.45,247.01 552.53,247.02 554.24,247.22 554.81,247.28 556.11,247.43 556.19,247.44 556.52,247.48 556.84,247.51 557.41,247.55 557.66,247.57 559.04,247.68 559.77,247.74 559.86,247.74 561.16,247.87 561.65,247.92 561.81,247.93 561.97,247.95 562.71,248.02 563.85,248.13 565.88,248.32" style="stroke-width: 0.75;stroke: #FF0000; stroke-dasharray: 4.00, 4.00;"/>
</g>
</svg>