<?xml version="1.0" encoding="utf-8" standalone="no"?>
<!DOCTYPE svg PUBLIC "-//W3C//DTD SVG 1.1//EN"
  "http://www.w3.org/Graphics/SVG/1.1/DTD/svg11.dtd">
<svg xmlns:xlink="http://www.w3.org/1999/xlink" width="461.99952pt" height="346.79952pt" viewBox="0 0 461.99952 346.79952" xmlns="http://www.w3.org/2000/svg" version="1.1">
 <metadata>
  <rdf:RDF xmlns:dc="http://purl.org/dc/elements/1.1/" xmlns:cc="http://creativecommons.org/ns#" xmlns:rdf="http://www.w3.org/1999/02/22-rdf-syntax-ns#">
   <cc:Work>
    <dc:type rdf:resource="http://purl.org/dc/dcmitype/StillImage"/>
    <dc:date>2024-06-02T22:03:38.402221</dc:date>
    <dc:format>image/svg+xml</dc:format>
    <dc:creator>
     <cc:Agent>
      <dc:title>Matplotlib v3.8.4, https://matplotlib.org/</dc:title>
     </cc:Agent>
    </dc:creator>
   </cc:Work>
  </rdf:RDF>
 </metadata>
 <defs>
  <style type="text/css">*{stroke-linejoin: round; stroke-linecap: butt}</style>
 </defs>
 <g id="figure_1">
  <g id="patch_1">
   <path d="M 0 346.79952 
L 461.99952 346.79952 
L 461.99952 0 
L 0 0 
L 0 346.79952 
z
" style="fill: none"/>
  </g>
  <g id="axes_1">
   <g id="patch_2">
    <path d="M 58.53 298.22952 
L 458.39952 298.22952 
L 458.39952 3.6 
L 58.53 3.6 
L 58.53 298.22952 
z
" style="fill: none"/>
   </g>
   <g id="PathCollection_1">
    <defs>
     <path id="mad63309b86" d="M 0 1.581139 
C 0.419323 1.581139 0.821528 1.41454 1.118034 1.118034 
C 1.41454 0.821528 1.581139 0.419323 1.581139 0 
C 1.581139 -0.419323 1.41454 -0.821528 1.118034 -1.118034 
C 0.821528 -1.41454 0.419323 -1.581139 0 -1.581139 
C -0.419323 -1.581139 -0.821528 -1.41454 -1.118034 -1.118034 
C -1.41454 -0.821528 -1.581139 -0.419323 -1.581139 0 
C -1.581139 0.419323 -1.41454 0.821528 -1.118034 1.118034 
C -0.821528 1.41454 -0.419323 1.581139 0 1.581139 
z
"/>
    </defs>
    <g clip-path="url(#pce177ad733)">
     <use xlink:href="#mad63309b86" x="76.705887" y="272.594448" style="fill: #8dd3c7"/>
     <use xlink:href="#mad63309b86" x="79.302443" y="263.873095" style="fill: #8dd3c7"/>
     <use xlink:href="#mad63309b86" x="81.898998" y="262.564892" style="fill: #8dd3c7"/>
     <use xlink:href="#mad63309b86" x="84.495553" y="263.873095" style="fill: #8dd3c7"/>
     <use xlink:href="#mad63309b86" x="87.092109" y="257.186724" style="fill: #8dd3c7"/>
     <use xlink:href="#mad63309b86" x="89.688664" y="255.151742" style="fill: #8dd3c7"/>
     <use xlink:href="#mad63309b86" x="92.285219" y="253.262115" style="fill: #8dd3c7"/>
     <use xlink:href="#mad63309b86" x="94.881775" y="251.517844" style="fill: #8dd3c7"/>
     <use xlink:href="#mad63309b86" x="97.47833" y="248.029303" style="fill: #8dd3c7"/>
     <use xlink:href="#mad63309b86" x="100.074885" y="246.285032" style="fill: #8dd3c7"/>
     <use xlink:href="#mad63309b86" x="102.671441" y="246.575744" style="fill: #8dd3c7"/>
     <use xlink:href="#mad63309b86" x="105.267996" y="241.779" style="fill: #8dd3c7"/>
     <use xlink:href="#mad63309b86" x="107.864551" y="242.651135" style="fill: #8dd3c7"/>
     <use xlink:href="#mad63309b86" x="110.461106" y="238.871882" style="fill: #8dd3c7"/>
     <use xlink:href="#mad63309b86" x="113.057662" y="238.290458" style="fill: #8dd3c7"/>
     <use xlink:href="#mad63309b86" x="115.654217" y="237.709035" style="fill: #8dd3c7"/>
     <use xlink:href="#mad63309b86" x="118.250772" y="236.255476" style="fill: #8dd3c7"/>
     <use xlink:href="#mad63309b86" x="120.847328" y="238.435814" style="fill: #8dd3c7"/>
     <use xlink:href="#mad63309b86" x="123.443883" y="239.598661" style="fill: #8dd3c7"/>
     <use xlink:href="#mad63309b86" x="126.040438" y="231.458731" style="fill: #8dd3c7"/>
     <use xlink:href="#mad63309b86" x="128.636994" y="233.929782" style="fill: #8dd3c7"/>
     <use xlink:href="#mad63309b86" x="131.233549" y="231.022664" style="fill: #8dd3c7"/>
     <use xlink:href="#mad63309b86" x="133.830104" y="226.661987" style="fill: #8dd3c7"/>
     <use xlink:href="#mad63309b86" x="136.42666" y="226.080563" style="fill: #8dd3c7"/>
     <use xlink:href="#mad63309b86" x="139.023215" y="225.935208" style="fill: #8dd3c7"/>
     <use xlink:href="#mad63309b86" x="141.61977" y="225.063072" style="fill: #8dd3c7"/>
     <use xlink:href="#mad63309b86" x="144.216326" y="224.627005" style="fill: #8dd3c7"/>
     <use xlink:href="#mad63309b86" x="146.812881" y="220.266328" style="fill: #8dd3c7"/>
     <use xlink:href="#mad63309b86" x="149.409436" y="214.16138" style="fill: #8dd3c7"/>
     <use xlink:href="#mad63309b86" x="152.005992" y="221.865243" style="fill: #8dd3c7"/>
     <use xlink:href="#mad63309b86" x="154.602547" y="216.487075" style="fill: #8dd3c7"/>
     <use xlink:href="#mad63309b86" x="157.199102" y="218.085989" style="fill: #8dd3c7"/>
     <use xlink:href="#mad63309b86" x="159.795658" y="213.434601" style="fill: #8dd3c7"/>
     <use xlink:href="#mad63309b86" x="162.392213" y="215.760295" style="fill: #8dd3c7"/>
     <use xlink:href="#mad63309b86" x="164.988768" y="214.452092" style="fill: #8dd3c7"/>
     <use xlink:href="#mad63309b86" x="167.585324" y="210.818195" style="fill: #8dd3c7"/>
     <use xlink:href="#mad63309b86" x="170.181879" y="213.579957" style="fill: #8dd3c7"/>
     <use xlink:href="#mad63309b86" x="172.778434" y="207.184298" style="fill: #8dd3c7"/>
     <use xlink:href="#mad63309b86" x="175.37499" y="208.492501" style="fill: #8dd3c7"/>
     <use xlink:href="#mad63309b86" x="177.971545" y="205.294671" style="fill: #8dd3c7"/>
     <use xlink:href="#mad63309b86" x="180.5681" y="210.091416" style="fill: #8dd3c7"/>
     <use xlink:href="#mad63309b86" x="183.164656" y="208.201789" style="fill: #8dd3c7"/>
     <use xlink:href="#mad63309b86" x="185.761211" y="207.038942" style="fill: #8dd3c7"/>
     <use xlink:href="#mad63309b86" x="188.357766" y="203.841112" style="fill: #8dd3c7"/>
     <use xlink:href="#mad63309b86" x="190.954322" y="202.968977" style="fill: #8dd3c7"/>
     <use xlink:href="#mad63309b86" x="193.550877" y="194.974403" style="fill: #8dd3c7"/>
     <use xlink:href="#mad63309b86" x="196.147432" y="193.375488" style="fill: #8dd3c7"/>
     <use xlink:href="#mad63309b86" x="198.743988" y="198.753656" style="fill: #8dd3c7"/>
     <use xlink:href="#mad63309b86" x="201.340543" y="196.13725" style="fill: #8dd3c7"/>
     <use xlink:href="#mad63309b86" x="203.937098" y="191.921929" style="fill: #8dd3c7"/>
     <use xlink:href="#mad63309b86" x="206.533654" y="191.19515" style="fill: #8dd3c7"/>
     <use xlink:href="#mad63309b86" x="209.130209" y="187.706608" style="fill: #8dd3c7"/>
     <use xlink:href="#mad63309b86" x="211.726764" y="187.125185" style="fill: #8dd3c7"/>
     <use xlink:href="#mad63309b86" x="214.323319" y="189.886947" style="fill: #8dd3c7"/>
     <use xlink:href="#mad63309b86" x="216.919875" y="189.305523" style="fill: #8dd3c7"/>
     <use xlink:href="#mad63309b86" x="219.51643" y="186.834473" style="fill: #8dd3c7"/>
     <use xlink:href="#mad63309b86" x="222.112985" y="185.962338" style="fill: #8dd3c7"/>
     <use xlink:href="#mad63309b86" x="224.709541" y="189.014811" style="fill: #8dd3c7"/>
     <use xlink:href="#mad63309b86" x="227.306096" y="184.654135" style="fill: #8dd3c7"/>
     <use xlink:href="#mad63309b86" x="229.902651" y="183.927355" style="fill: #8dd3c7"/>
     <use xlink:href="#mad63309b86" x="232.499207" y="182.473796" style="fill: #8dd3c7"/>
     <use xlink:href="#mad63309b86" x="235.095762" y="178.403831" style="fill: #8dd3c7"/>
     <use xlink:href="#mad63309b86" x="237.692317" y="170.554613" style="fill: #8dd3c7"/>
     <use xlink:href="#mad63309b86" x="240.288873" y="176.804917" style="fill: #8dd3c7"/>
     <use xlink:href="#mad63309b86" x="242.885428" y="174.91529" style="fill: #8dd3c7"/>
     <use xlink:href="#mad63309b86" x="245.481983" y="171.572105" style="fill: #8dd3c7"/>
     <use xlink:href="#mad63309b86" x="248.078539" y="165.321801" style="fill: #8dd3c7"/>
     <use xlink:href="#mad63309b86" x="250.675094" y="162.269328" style="fill: #8dd3c7"/>
     <use xlink:href="#mad63309b86" x="253.271649" y="159.507566" style="fill: #8dd3c7"/>
     <use xlink:href="#mad63309b86" x="255.868205" y="168.374275" style="fill: #8dd3c7"/>
     <use xlink:href="#mad63309b86" x="258.46476" y="165.903225" style="fill: #8dd3c7"/>
     <use xlink:href="#mad63309b86" x="261.061315" y="164.885734" style="fill: #8dd3c7"/>
     <use xlink:href="#mad63309b86" x="263.657871" y="159.507566" style="fill: #8dd3c7"/>
     <use xlink:href="#mad63309b86" x="266.254426" y="157.036516" style="fill: #8dd3c7"/>
     <use xlink:href="#mad63309b86" x="268.850981" y="159.798277" style="fill: #8dd3c7"/>
     <use xlink:href="#mad63309b86" x="271.447537" y="156.600448" style="fill: #8dd3c7"/>
     <use xlink:href="#mad63309b86" x="274.044092" y="150.059433" style="fill: #8dd3c7"/>
     <use xlink:href="#mad63309b86" x="276.640647" y="149.478009" style="fill: #8dd3c7"/>
     <use xlink:href="#mad63309b86" x="279.237203" y="151.22228" style="fill: #8dd3c7"/>
     <use xlink:href="#mad63309b86" x="281.833758" y="150.786212" style="fill: #8dd3c7"/>
     <use xlink:href="#mad63309b86" x="284.430313" y="148.605874" style="fill: #8dd3c7"/>
     <use xlink:href="#mad63309b86" x="287.026869" y="147.297671" style="fill: #8dd3c7"/>
     <use xlink:href="#mad63309b86" x="289.623424" y="137.558826" style="fill: #8dd3c7"/>
     <use xlink:href="#mad63309b86" x="292.219979" y="141.047368" style="fill: #8dd3c7"/>
     <use xlink:href="#mad63309b86" x="294.816535" y="139.448453" style="fill: #8dd3c7"/>
     <use xlink:href="#mad63309b86" x="297.41309" y="139.448453" style="fill: #8dd3c7"/>
     <use xlink:href="#mad63309b86" x="300.009645" y="136.686691" style="fill: #8dd3c7"/>
     <use xlink:href="#mad63309b86" x="302.606201" y="136.250623" style="fill: #8dd3c7"/>
     <use xlink:href="#mad63309b86" x="305.202756" y="132.326014" style="fill: #8dd3c7"/>
     <use xlink:href="#mad63309b86" x="307.799311" y="131.889947" style="fill: #8dd3c7"/>
     <use xlink:href="#mad63309b86" x="310.395866" y="134.215641" style="fill: #8dd3c7"/>
     <use xlink:href="#mad63309b86" x="312.992422" y="130.872455" style="fill: #8dd3c7"/>
     <use xlink:href="#mad63309b86" x="315.588977" y="124.476796" style="fill: #8dd3c7"/>
     <use xlink:href="#mad63309b86" x="318.185532" y="125.930355" style="fill: #8dd3c7"/>
     <use xlink:href="#mad63309b86" x="320.782088" y="117.209002" style="fill: #8dd3c7"/>
     <use xlink:href="#mad63309b86" x="323.378643" y="120.406831" style="fill: #8dd3c7"/>
     <use xlink:href="#mad63309b86" x="325.975198" y="113.429748" style="fill: #8dd3c7"/>
     <use xlink:href="#mad63309b86" x="328.571754" y="123.313949" style="fill: #8dd3c7"/>
     <use xlink:href="#mad63309b86" x="331.168309" y="112.993681" style="fill: #8dd3c7"/>
     <use xlink:href="#mad63309b86" x="333.764864" y="118.081137" style="fill: #8dd3c7"/>
     <use xlink:href="#mad63309b86" x="336.36142" y="114.011172" style="fill: #8dd3c7"/>
     <use xlink:href="#mad63309b86" x="338.957975" y="112.702969" style="fill: #8dd3c7"/>
     <use xlink:href="#mad63309b86" x="341.55453" y="107.034089" style="fill: #8dd3c7"/>
     <use xlink:href="#mad63309b86" x="344.151086" y="106.888733" style="fill: #8dd3c7"/>
     <use xlink:href="#mad63309b86" x="346.747641" y="107.615513" style="fill: #8dd3c7"/>
     <use xlink:href="#mad63309b86" x="349.344196" y="104.272327" style="fill: #8dd3c7"/>
     <use xlink:href="#mad63309b86" x="351.940752" y="100.783786" style="fill: #8dd3c7"/>
     <use xlink:href="#mad63309b86" x="354.537307" y="103.690904" style="fill: #8dd3c7"/>
     <use xlink:href="#mad63309b86" x="357.133862" y="94.097415" style="fill: #8dd3c7"/>
     <use xlink:href="#mad63309b86" x="359.730418" y="92.643856" style="fill: #8dd3c7"/>
     <use xlink:href="#mad63309b86" x="362.326973" y="90.318162" style="fill: #8dd3c7"/>
     <use xlink:href="#mad63309b86" x="364.923528" y="99.184871" style="fill: #8dd3c7"/>
     <use xlink:href="#mad63309b86" x="367.520084" y="92.353144" style="fill: #8dd3c7"/>
     <use xlink:href="#mad63309b86" x="370.116639" y="92.353144" style="fill: #8dd3c7"/>
     <use xlink:href="#mad63309b86" x="372.713194" y="88.573891" style="fill: #8dd3c7"/>
     <use xlink:href="#mad63309b86" x="375.30975" y="89.591382" style="fill: #8dd3c7"/>
     <use xlink:href="#mad63309b86" x="377.906305" y="86.974976" style="fill: #8dd3c7"/>
     <use xlink:href="#mad63309b86" x="380.50286" y="81.451453" style="fill: #8dd3c7"/>
     <use xlink:href="#mad63309b86" x="383.099416" y="84.213214" style="fill: #8dd3c7"/>
     <use xlink:href="#mad63309b86" x="385.695971" y="86.393553" style="fill: #8dd3c7"/>
     <use xlink:href="#mad63309b86" x="388.292526" y="77.672199" style="fill: #8dd3c7"/>
     <use xlink:href="#mad63309b86" x="390.889082" y="74.910438" style="fill: #8dd3c7"/>
     <use xlink:href="#mad63309b86" x="393.485637" y="77.090776" style="fill: #8dd3c7"/>
     <use xlink:href="#mad63309b86" x="396.082192" y="68.078711" style="fill: #8dd3c7"/>
     <use xlink:href="#mad63309b86" x="398.678748" y="68.950846" style="fill: #8dd3c7"/>
     <use xlink:href="#mad63309b86" x="401.275303" y="64.590169" style="fill: #8dd3c7"/>
     <use xlink:href="#mad63309b86" x="403.871858" y="69.096202" style="fill: #8dd3c7"/>
     <use xlink:href="#mad63309b86" x="406.468414" y="61.101628" style="fill: #8dd3c7"/>
     <use xlink:href="#mad63309b86" x="409.064969" y="70.259049" style="fill: #8dd3c7"/>
     <use xlink:href="#mad63309b86" x="411.661524" y="61.828407" style="fill: #8dd3c7"/>
     <use xlink:href="#mad63309b86" x="414.258079" y="72.439387" style="fill: #8dd3c7"/>
     <use xlink:href="#mad63309b86" x="416.854635" y="65.171593" style="fill: #8dd3c7"/>
     <use xlink:href="#mad63309b86" x="419.45119" y="65.316949" style="fill: #8dd3c7"/>
     <use xlink:href="#mad63309b86" x="422.047745" y="64.444813" style="fill: #8dd3c7"/>
     <use xlink:href="#mad63309b86" x="424.644301" y="62.409831" style="fill: #8dd3c7"/>
     <use xlink:href="#mad63309b86" x="427.240856" y="56.304884" style="fill: #8dd3c7"/>
     <use xlink:href="#mad63309b86" x="429.837411" y="54.269901" style="fill: #8dd3c7"/>
     <use xlink:href="#mad63309b86" x="432.433967" y="56.886307" style="fill: #8dd3c7"/>
     <use xlink:href="#mad63309b86" x="435.030522" y="53.25241" style="fill: #8dd3c7"/>
     <use xlink:href="#mad63309b86" x="437.627077" y="52.961698" style="fill: #8dd3c7"/>
     <use xlink:href="#mad63309b86" x="440.223633" y="56.159528" style="fill: #8dd3c7"/>
    </g>
   </g>
   <g id="PathCollection_2">
    <defs>
     <path id="md558cd3180" d="M 0 1.581139 
C 0.419323 1.581139 0.821528 1.41454 1.118034 1.118034 
C 1.41454 0.821528 1.581139 0.419323 1.581139 0 
C 1.581139 -0.419323 1.41454 -0.821528 1.118034 -1.118034 
C 0.821528 -1.41454 0.419323 -1.581139 0 -1.581139 
C -0.419323 -1.581139 -0.821528 -1.41454 -1.118034 -1.118034 
C -1.41454 -0.821528 -1.581139 -0.419323 -1.581139 0 
C -1.581139 0.419323 -1.41454 0.821528 -1.118034 1.118034 
C -0.821528 1.41454 -0.419323 1.581139 0 1.581139 
z
"/>
    </defs>
    <g clip-path="url(#pce177ad733)">
     <use xlink:href="#md558cd3180" x="76.705887" y="284.837269" style="fill: #feffb3"/>
     <use xlink:href="#md558cd3180" x="79.302443" y="271.221598" style="fill: #feffb3"/>
     <use xlink:href="#md558cd3180" x="81.898998" y="271.221598" style="fill: #feffb3"/>
     <use xlink:href="#md558cd3180" x="84.495553" y="266.938016" style="fill: #feffb3"/>
     <use xlink:href="#md558cd3180" x="87.092109" y="266.479061" style="fill: #feffb3"/>
     <use xlink:href="#md558cd3180" x="89.688664" y="258.523838" style="fill: #feffb3"/>
     <use xlink:href="#md558cd3180" x="92.285219" y="258.676823" style="fill: #feffb3"/>
     <use xlink:href="#md558cd3180" x="94.881775" y="252.404435" style="fill: #feffb3"/>
     <use xlink:href="#md558cd3180" x="97.47833" y="251.180554" style="fill: #feffb3"/>
     <use xlink:href="#md558cd3180" x="100.074885" y="246.285032" style="fill: #feffb3"/>
     <use xlink:href="#md558cd3180" x="102.671441" y="245.826077" style="fill: #feffb3"/>
     <use xlink:href="#md558cd3180" x="105.267996" y="244.602196" style="fill: #feffb3"/>
     <use xlink:href="#md558cd3180" x="107.864551" y="241.848465" style="fill: #feffb3"/>
     <use xlink:href="#md558cd3180" x="110.461106" y="241.236525" style="fill: #feffb3"/>
     <use xlink:href="#md558cd3180" x="113.057662" y="239.859659" style="fill: #feffb3"/>
     <use xlink:href="#md558cd3180" x="115.654217" y="239.706674" style="fill: #feffb3"/>
     <use xlink:href="#md558cd3180" x="118.250772" y="233.587272" style="fill: #feffb3"/>
     <use xlink:href="#md558cd3180" x="120.847328" y="232.057421" style="fill: #feffb3"/>
     <use xlink:href="#md558cd3180" x="123.443883" y="235.117122" style="fill: #feffb3"/>
     <use xlink:href="#md558cd3180" x="126.040438" y="233.434287" style="fill: #feffb3"/>
     <use xlink:href="#md558cd3180" x="128.636994" y="233.893242" style="fill: #feffb3"/>
     <use xlink:href="#md558cd3180" x="131.233549" y="234.964137" style="fill: #feffb3"/>
     <use xlink:href="#md558cd3180" x="133.830104" y="231.445481" style="fill: #feffb3"/>
     <use xlink:href="#md558cd3180" x="136.42666" y="231.904436" style="fill: #feffb3"/>
     <use xlink:href="#md558cd3180" x="139.023215" y="228.844735" style="fill: #feffb3"/>
     <use xlink:href="#md558cd3180" x="141.61977" y="228.844735" style="fill: #feffb3"/>
     <use xlink:href="#md558cd3180" x="144.216326" y="225.785033" style="fill: #feffb3"/>
     <use xlink:href="#md558cd3180" x="146.812881" y="226.396974" style="fill: #feffb3"/>
     <use xlink:href="#md558cd3180" x="149.409436" y="224.714138" style="fill: #feffb3"/>
     <use xlink:href="#md558cd3180" x="152.005992" y="221.501451" style="fill: #feffb3"/>
     <use xlink:href="#md558cd3180" x="154.602547" y="219.206675" style="fill: #feffb3"/>
     <use xlink:href="#md558cd3180" x="157.199102" y="220.277571" style="fill: #feffb3"/>
     <use xlink:href="#md558cd3180" x="159.795658" y="215.688019" style="fill: #feffb3"/>
     <use xlink:href="#md558cd3180" x="162.392213" y="217.064884" style="fill: #feffb3"/>
     <use xlink:href="#md558cd3180" x="164.988768" y="214.923094" style="fill: #feffb3"/>
     <use xlink:href="#md558cd3180" x="167.585324" y="210.180556" style="fill: #feffb3"/>
     <use xlink:href="#md558cd3180" x="170.181879" y="210.945482" style="fill: #feffb3"/>
     <use xlink:href="#md558cd3180" x="172.778434" y="209.721601" style="fill: #feffb3"/>
     <use xlink:href="#md558cd3180" x="175.37499" y="209.568616" style="fill: #feffb3"/>
     <use xlink:href="#md558cd3180" x="177.971545" y="208.344736" style="fill: #feffb3"/>
     <use xlink:href="#md558cd3180" x="180.5681" y="205.438019" style="fill: #feffb3"/>
     <use xlink:href="#md558cd3180" x="183.164656" y="203.908169" style="fill: #feffb3"/>
     <use xlink:href="#md558cd3180" x="185.761211" y="203.143243" style="fill: #feffb3"/>
     <use xlink:href="#md558cd3180" x="188.357766" y="202.837273" style="fill: #feffb3"/>
     <use xlink:href="#md558cd3180" x="190.954322" y="200.695482" style="fill: #feffb3"/>
     <use xlink:href="#md558cd3180" x="193.550877" y="202.990258" style="fill: #feffb3"/>
     <use xlink:href="#md558cd3180" x="196.147432" y="200.083542" style="fill: #feffb3"/>
     <use xlink:href="#md558cd3180" x="198.743988" y="199.471602" style="fill: #feffb3"/>
     <use xlink:href="#md558cd3180" x="201.340543" y="192.587274" style="fill: #feffb3"/>
     <use xlink:href="#md558cd3180" x="203.937098" y="193.352199" style="fill: #feffb3"/>
     <use xlink:href="#md558cd3180" x="206.533654" y="195.341005" style="fill: #feffb3"/>
     <use xlink:href="#md558cd3180" x="209.130209" y="193.811154" style="fill: #feffb3"/>
     <use xlink:href="#md558cd3180" x="211.726764" y="193.505184" style="fill: #feffb3"/>
     <use xlink:href="#md558cd3180" x="214.323319" y="190.445483" style="fill: #feffb3"/>
     <use xlink:href="#md558cd3180" x="216.919875" y="193.811154" style="fill: #feffb3"/>
     <use xlink:href="#md558cd3180" x="219.51643" y="193.199214" style="fill: #feffb3"/>
     <use xlink:href="#md558cd3180" x="222.112985" y="189.374587" style="fill: #feffb3"/>
     <use xlink:href="#md558cd3180" x="224.709541" y="188.762647" style="fill: #feffb3"/>
     <use xlink:href="#md558cd3180" x="227.306096" y="179.889513" style="fill: #feffb3"/>
     <use xlink:href="#md558cd3180" x="229.902651" y="184.93802" style="fill: #feffb3"/>
     <use xlink:href="#md558cd3180" x="232.499207" y="182.796229" style="fill: #feffb3"/>
     <use xlink:href="#md558cd3180" x="235.095762" y="177.441752" style="fill: #feffb3"/>
     <use xlink:href="#md558cd3180" x="237.692317" y="180.807424" style="fill: #feffb3"/>
     <use xlink:href="#md558cd3180" x="240.288873" y="177.747722" style="fill: #feffb3"/>
     <use xlink:href="#md558cd3180" x="242.885428" y="177.441752" style="fill: #feffb3"/>
     <use xlink:href="#md558cd3180" x="245.481983" y="178.053692" style="fill: #feffb3"/>
     <use xlink:href="#md558cd3180" x="248.078539" y="176.217872" style="fill: #feffb3"/>
     <use xlink:href="#md558cd3180" x="250.675094" y="173.311155" style="fill: #feffb3"/>
     <use xlink:href="#md558cd3180" x="253.271649" y="171.781305" style="fill: #feffb3"/>
     <use xlink:href="#md558cd3180" x="255.868205" y="165.661902" style="fill: #feffb3"/>
     <use xlink:href="#md558cd3180" x="258.46476" y="163.673096" style="fill: #feffb3"/>
     <use xlink:href="#md558cd3180" x="261.061315" y="167.344738" style="fill: #feffb3"/>
     <use xlink:href="#md558cd3180" x="263.657871" y="166.885782" style="fill: #feffb3"/>
     <use xlink:href="#md558cd3180" x="266.254426" y="164.132051" style="fill: #feffb3"/>
     <use xlink:href="#md558cd3180" x="268.850981" y="166.273842" style="fill: #feffb3"/>
     <use xlink:href="#md558cd3180" x="271.447537" y="164.132051" style="fill: #feffb3"/>
     <use xlink:href="#md558cd3180" x="274.044092" y="164.591006" style="fill: #feffb3"/>
     <use xlink:href="#md558cd3180" x="276.640647" y="159.083544" style="fill: #feffb3"/>
     <use xlink:href="#md558cd3180" x="279.237203" y="156.941753" style="fill: #feffb3"/>
     <use xlink:href="#md558cd3180" x="281.833758" y="159.236529" style="fill: #feffb3"/>
     <use xlink:href="#md558cd3180" x="284.430313" y="162.143245" style="fill: #feffb3"/>
     <use xlink:href="#md558cd3180" x="287.026869" y="161.837275" style="fill: #feffb3"/>
     <use xlink:href="#md558cd3180" x="289.623424" y="161.07235" style="fill: #feffb3"/>
     <use xlink:href="#md558cd3180" x="292.219979" y="161.68429" style="fill: #feffb3"/>
     <use xlink:href="#md558cd3180" x="294.816535" y="163.520111" style="fill: #feffb3"/>
     <use xlink:href="#md558cd3180" x="297.41309" y="159.695484" style="fill: #feffb3"/>
     <use xlink:href="#md558cd3180" x="300.009645" y="156.023843" style="fill: #feffb3"/>
     <use xlink:href="#md558cd3180" x="302.606201" y="159.083544" style="fill: #feffb3"/>
     <use xlink:href="#md558cd3180" x="305.202756" y="156.482798" style="fill: #feffb3"/>
     <use xlink:href="#md558cd3180" x="307.799311" y="154.188022" style="fill: #feffb3"/>
     <use xlink:href="#md558cd3180" x="310.395866" y="149.139515" style="fill: #feffb3"/>
     <use xlink:href="#md558cd3180" x="312.992422" y="152.964141" style="fill: #feffb3"/>
     <use xlink:href="#md558cd3180" x="315.588977" y="151.740261" style="fill: #feffb3"/>
     <use xlink:href="#md558cd3180" x="318.185532" y="151.587276" style="fill: #feffb3"/>
     <use xlink:href="#md558cd3180" x="320.782088" y="155.411902" style="fill: #feffb3"/>
     <use xlink:href="#md558cd3180" x="323.378643" y="154.799962" style="fill: #feffb3"/>
     <use xlink:href="#md558cd3180" x="325.975198" y="151.281306" style="fill: #feffb3"/>
     <use xlink:href="#md558cd3180" x="328.571754" y="153.270112" style="fill: #feffb3"/>
     <use xlink:href="#md558cd3180" x="331.168309" y="155.564888" style="fill: #feffb3"/>
     <use xlink:href="#md558cd3180" x="333.764864" y="153.117126" style="fill: #feffb3"/>
     <use xlink:href="#md558cd3180" x="336.36142" y="154.493992" style="fill: #feffb3"/>
     <use xlink:href="#md558cd3180" x="338.957975" y="155.105932" style="fill: #feffb3"/>
     <use xlink:href="#md558cd3180" x="341.55453" y="153.117126" style="fill: #feffb3"/>
     <use xlink:href="#md558cd3180" x="344.151086" y="155.411902" style="fill: #feffb3"/>
     <use xlink:href="#md558cd3180" x="346.747641" y="150.975336" style="fill: #feffb3"/>
     <use xlink:href="#md558cd3180" x="349.344196" y="148.68056" style="fill: #feffb3"/>
     <use xlink:href="#md558cd3180" x="351.940752" y="150.975336" style="fill: #feffb3"/>
     <use xlink:href="#md558cd3180" x="354.537307" y="153.423097" style="fill: #feffb3"/>
     <use xlink:href="#md558cd3180" x="357.133862" y="154.188022" style="fill: #feffb3"/>
     <use xlink:href="#md558cd3180" x="359.730418" y="149.139515" style="fill: #feffb3"/>
     <use xlink:href="#md558cd3180" x="362.326973" y="151.740261" style="fill: #feffb3"/>
     <use xlink:href="#md558cd3180" x="364.923528" y="150.21041" style="fill: #feffb3"/>
     <use xlink:href="#md558cd3180" x="367.520084" y="150.82235" style="fill: #feffb3"/>
     <use xlink:href="#md558cd3180" x="370.116639" y="150.51638" style="fill: #feffb3"/>
     <use xlink:href="#md558cd3180" x="372.713194" y="151.128321" style="fill: #feffb3"/>
     <use xlink:href="#md558cd3180" x="375.30975" y="151.281306" style="fill: #feffb3"/>
     <use xlink:href="#md558cd3180" x="377.906305" y="152.199216" style="fill: #feffb3"/>
     <use xlink:href="#md558cd3180" x="380.50286" y="150.057425" style="fill: #feffb3"/>
     <use xlink:href="#md558cd3180" x="383.099416" y="151.434291" style="fill: #feffb3"/>
     <use xlink:href="#md558cd3180" x="385.695971" y="146.232798" style="fill: #feffb3"/>
     <use xlink:href="#md558cd3180" x="388.292526" y="145.773843" style="fill: #feffb3"/>
     <use xlink:href="#md558cd3180" x="390.889082" y="150.363395" style="fill: #feffb3"/>
     <use xlink:href="#md558cd3180" x="393.485637" y="149.90444" style="fill: #feffb3"/>
     <use xlink:href="#md558cd3180" x="396.082192" y="155.717873" style="fill: #feffb3"/>
     <use xlink:href="#md558cd3180" x="398.678748" y="151.893246" style="fill: #feffb3"/>
     <use xlink:href="#md558cd3180" x="401.275303" y="147.609664" style="fill: #feffb3"/>
     <use xlink:href="#md558cd3180" x="403.871858" y="149.59847" style="fill: #feffb3"/>
     <use xlink:href="#md558cd3180" x="406.468414" y="151.893246" style="fill: #feffb3"/>
     <use xlink:href="#md558cd3180" x="409.064969" y="150.057425" style="fill: #feffb3"/>
     <use xlink:href="#md558cd3180" x="411.661524" y="148.98653" style="fill: #feffb3"/>
     <use xlink:href="#md558cd3180" x="414.258079" y="150.21041" style="fill: #feffb3"/>
     <use xlink:href="#md558cd3180" x="416.854635" y="149.90444" style="fill: #feffb3"/>
     <use xlink:href="#md558cd3180" x="419.45119" y="146.079813" style="fill: #feffb3"/>
     <use xlink:href="#md558cd3180" x="422.047745" y="150.82235" style="fill: #feffb3"/>
     <use xlink:href="#md558cd3180" x="424.644301" y="147.609664" style="fill: #feffb3"/>
     <use xlink:href="#md558cd3180" x="427.240856" y="143.326082" style="fill: #feffb3"/>
     <use xlink:href="#md558cd3180" x="429.837411" y="150.21041" style="fill: #feffb3"/>
     <use xlink:href="#md558cd3180" x="432.433967" y="152.352201" style="fill: #feffb3"/>
     <use xlink:href="#md558cd3180" x="435.030522" y="154.035037" style="fill: #feffb3"/>
     <use xlink:href="#md558cd3180" x="437.627077" y="153.423097" style="fill: #feffb3"/>
     <use xlink:href="#md558cd3180" x="440.223633" y="150.975336" style="fill: #feffb3"/>
    </g>
   </g>
   <g id="PathCollection_3">
    <defs>
     <path id="m300439e427" d="M 0 1.581139 
C 0.419323 1.581139 0.821528 1.41454 1.118034 1.118034 
C 1.41454 0.821528 1.581139 0.419323 1.581139 0 
C 1.581139 -0.419323 1.41454 -0.821528 1.118034 -1.118034 
C 0.821528 -1.41454 0.419323 -1.581139 0 -1.581139 
C -0.419323 -1.581139 -0.821528 -1.41454 -1.118034 -1.118034 
C -1.41454 -0.821528 -1.581139 -0.419323 -1.581139 0 
C -1.581139 0.419323 -1.41454 0.821528 -1.118034 1.118034 
C -0.821528 1.41454 -0.419323 1.581139 0 1.581139 
z
"/>
    </defs>
    <g clip-path="url(#pce177ad733)">
     <use xlink:href="#m300439e427" x="76.705887" y="280.844789" style="fill: #bfbbd9"/>
     <use xlink:href="#m300439e427" x="79.302443" y="261.298697" style="fill: #bfbbd9"/>
     <use xlink:href="#m300439e427" x="81.898998" y="256.907908" style="fill: #bfbbd9"/>
     <use xlink:href="#m300439e427" x="84.495553" y="257.332823" style="fill: #bfbbd9"/>
     <use xlink:href="#m300439e427" x="87.092109" y="254.21678" style="fill: #bfbbd9"/>
     <use xlink:href="#m300439e427" x="89.688664" y="251.950566" style="fill: #bfbbd9"/>
     <use xlink:href="#m300439e427" x="92.285219" y="252.658758" style="fill: #bfbbd9"/>
     <use xlink:href="#m300439e427" x="94.881775" y="251.100736" style="fill: #bfbbd9"/>
     <use xlink:href="#m300439e427" x="97.47833" y="246.568309" style="fill: #bfbbd9"/>
     <use xlink:href="#m300439e427" x="100.074885" y="246.285032" style="fill: #bfbbd9"/>
     <use xlink:href="#m300439e427" x="102.671441" y="242.17752" style="fill: #bfbbd9"/>
     <use xlink:href="#m300439e427" x="105.267996" y="240.619498" style="fill: #bfbbd9"/>
     <use xlink:href="#m300439e427" x="107.864551" y="236.795263" style="fill: #bfbbd9"/>
     <use xlink:href="#m300439e427" x="110.461106" y="235.378879" style="fill: #bfbbd9"/>
     <use xlink:href="#m300439e427" x="113.057662" y="233.962496" style="fill: #bfbbd9"/>
     <use xlink:href="#m300439e427" x="115.654217" y="235.803794" style="fill: #bfbbd9"/>
     <use xlink:href="#m300439e427" x="118.250772" y="232.546112" style="fill: #bfbbd9"/>
     <use xlink:href="#m300439e427" x="120.847328" y="232.971027" style="fill: #bfbbd9"/>
     <use xlink:href="#m300439e427" x="123.443883" y="231.696282" style="fill: #bfbbd9"/>
     <use xlink:href="#m300439e427" x="126.040438" y="232.546112" style="fill: #bfbbd9"/>
     <use xlink:href="#m300439e427" x="128.636994" y="227.447132" style="fill: #bfbbd9"/>
     <use xlink:href="#m300439e427" x="131.233549" y="227.022217" style="fill: #bfbbd9"/>
     <use xlink:href="#m300439e427" x="133.830104" y="225.747472" style="fill: #bfbbd9"/>
     <use xlink:href="#m300439e427" x="136.42666" y="226.455663" style="fill: #bfbbd9"/>
     <use xlink:href="#m300439e427" x="139.023215" y="223.906173" style="fill: #bfbbd9"/>
     <use xlink:href="#m300439e427" x="141.61977" y="222.631428" style="fill: #bfbbd9"/>
     <use xlink:href="#m300439e427" x="144.216326" y="224.331088" style="fill: #bfbbd9"/>
     <use xlink:href="#m300439e427" x="146.812881" y="221.356683" style="fill: #bfbbd9"/>
     <use xlink:href="#m300439e427" x="149.409436" y="222.348151" style="fill: #bfbbd9"/>
     <use xlink:href="#m300439e427" x="152.005992" y="221.215045" style="fill: #bfbbd9"/>
     <use xlink:href="#m300439e427" x="154.602547" y="217.390809" style="fill: #bfbbd9"/>
     <use xlink:href="#m300439e427" x="157.199102" y="214.982957" style="fill: #bfbbd9"/>
     <use xlink:href="#m300439e427" x="159.795658" y="213.424935" style="fill: #bfbbd9"/>
     <use xlink:href="#m300439e427" x="162.392213" y="213.00002" style="fill: #bfbbd9"/>
     <use xlink:href="#m300439e427" x="164.988768" y="214.699681" style="fill: #bfbbd9"/>
     <use xlink:href="#m300439e427" x="167.585324" y="208.467593" style="fill: #bfbbd9"/>
     <use xlink:href="#m300439e427" x="170.181879" y="203.226974" style="fill: #bfbbd9"/>
     <use xlink:href="#m300439e427" x="172.778434" y="204.784996" style="fill: #bfbbd9"/>
     <use xlink:href="#m300439e427" x="175.37499" y="211.30036" style="fill: #bfbbd9"/>
     <use xlink:href="#m300439e427" x="177.971545" y="205.776465" style="fill: #bfbbd9"/>
     <use xlink:href="#m300439e427" x="180.5681" y="205.068273" style="fill: #bfbbd9"/>
     <use xlink:href="#m300439e427" x="183.164656" y="205.068273" style="fill: #bfbbd9"/>
     <use xlink:href="#m300439e427" x="185.761211" y="206.343018" style="fill: #bfbbd9"/>
     <use xlink:href="#m300439e427" x="188.357766" y="207.476125" style="fill: #bfbbd9"/>
     <use xlink:href="#m300439e427" x="190.954322" y="207.476125" style="fill: #bfbbd9"/>
     <use xlink:href="#m300439e427" x="193.550877" y="202.943698" style="fill: #bfbbd9"/>
     <use xlink:href="#m300439e427" x="196.147432" y="202.802059" style="fill: #bfbbd9"/>
     <use xlink:href="#m300439e427" x="198.743988" y="199.119462" style="fill: #bfbbd9"/>
     <use xlink:href="#m300439e427" x="201.340543" y="197.986355" style="fill: #bfbbd9"/>
     <use xlink:href="#m300439e427" x="203.937098" y="197.703079" style="fill: #bfbbd9"/>
     <use xlink:href="#m300439e427" x="206.533654" y="198.269632" style="fill: #bfbbd9"/>
     <use xlink:href="#m300439e427" x="209.130209" y="195.01195" style="fill: #bfbbd9"/>
     <use xlink:href="#m300439e427" x="211.726764" y="198.269632" style="fill: #bfbbd9"/>
     <use xlink:href="#m300439e427" x="214.323319" y="198.552909" style="fill: #bfbbd9"/>
     <use xlink:href="#m300439e427" x="216.919875" y="198.41127" style="fill: #bfbbd9"/>
     <use xlink:href="#m300439e427" x="219.51643" y="194.303758" style="fill: #bfbbd9"/>
     <use xlink:href="#m300439e427" x="222.112985" y="197.136525" style="fill: #bfbbd9"/>
     <use xlink:href="#m300439e427" x="224.709541" y="193.878843" style="fill: #bfbbd9"/>
     <use xlink:href="#m300439e427" x="227.306096" y="199.261101" style="fill: #bfbbd9"/>
     <use xlink:href="#m300439e427" x="229.902651" y="198.552909" style="fill: #bfbbd9"/>
     <use xlink:href="#m300439e427" x="232.499207" y="196.853249" style="fill: #bfbbd9"/>
     <use xlink:href="#m300439e427" x="235.095762" y="194.728673" style="fill: #bfbbd9"/>
     <use xlink:href="#m300439e427" x="237.692317" y="193.31229" style="fill: #bfbbd9"/>
     <use xlink:href="#m300439e427" x="240.288873" y="191.61263" style="fill: #bfbbd9"/>
     <use xlink:href="#m300439e427" x="242.885428" y="189.488055" style="fill: #bfbbd9"/>
     <use xlink:href="#m300439e427" x="245.481983" y="192.179183" style="fill: #bfbbd9"/>
     <use xlink:href="#m300439e427" x="248.078539" y="192.179183" style="fill: #bfbbd9"/>
     <use xlink:href="#m300439e427" x="250.675094" y="191.754268" style="fill: #bfbbd9"/>
     <use xlink:href="#m300439e427" x="253.271649" y="188.213309" style="fill: #bfbbd9"/>
     <use xlink:href="#m300439e427" x="255.868205" y="191.895906" style="fill: #bfbbd9"/>
     <use xlink:href="#m300439e427" x="258.46476" y="190.904438" style="fill: #bfbbd9"/>
     <use xlink:href="#m300439e427" x="261.061315" y="196.428334" style="fill: #bfbbd9"/>
     <use xlink:href="#m300439e427" x="263.657871" y="194.16212" style="fill: #bfbbd9"/>
     <use xlink:href="#m300439e427" x="266.254426" y="191.754268" style="fill: #bfbbd9"/>
     <use xlink:href="#m300439e427" x="268.850981" y="190.337885" style="fill: #bfbbd9"/>
     <use xlink:href="#m300439e427" x="271.447537" y="192.887375" style="fill: #bfbbd9"/>
     <use xlink:href="#m300439e427" x="274.044092" y="191.895906" style="fill: #bfbbd9"/>
     <use xlink:href="#m300439e427" x="276.640647" y="191.895906" style="fill: #bfbbd9"/>
     <use xlink:href="#m300439e427" x="279.237203" y="193.453928" style="fill: #bfbbd9"/>
     <use xlink:href="#m300439e427" x="281.833758" y="191.187715" style="fill: #bfbbd9"/>
     <use xlink:href="#m300439e427" x="284.430313" y="191.895906" style="fill: #bfbbd9"/>
     <use xlink:href="#m300439e427" x="287.026869" y="189.063139" style="fill: #bfbbd9"/>
     <use xlink:href="#m300439e427" x="289.623424" y="194.16212" style="fill: #bfbbd9"/>
     <use xlink:href="#m300439e427" x="292.219979" y="195.153588" style="fill: #bfbbd9"/>
     <use xlink:href="#m300439e427" x="294.816535" y="187.930033" style="fill: #bfbbd9"/>
     <use xlink:href="#m300439e427" x="297.41309" y="189.346416" style="fill: #bfbbd9"/>
     <use xlink:href="#m300439e427" x="300.009645" y="193.453928" style="fill: #bfbbd9"/>
     <use xlink:href="#m300439e427" x="302.606201" y="185.522181" style="fill: #bfbbd9"/>
     <use xlink:href="#m300439e427" x="305.202756" y="189.346416" style="fill: #bfbbd9"/>
     <use xlink:href="#m300439e427" x="307.799311" y="190.337885" style="fill: #bfbbd9"/>
     <use xlink:href="#m300439e427" x="310.395866" y="184.672351" style="fill: #bfbbd9"/>
     <use xlink:href="#m300439e427" x="312.992422" y="186.938564" style="fill: #bfbbd9"/>
     <use xlink:href="#m300439e427" x="315.588977" y="184.813989" style="fill: #bfbbd9"/>
     <use xlink:href="#m300439e427" x="318.185532" y="185.805457" style="fill: #bfbbd9"/>
     <use xlink:href="#m300439e427" x="320.782088" y="190.479523" style="fill: #bfbbd9"/>
     <use xlink:href="#m300439e427" x="323.378643" y="190.904438" style="fill: #bfbbd9"/>
     <use xlink:href="#m300439e427" x="325.975198" y="185.522181" style="fill: #bfbbd9"/>
     <use xlink:href="#m300439e427" x="328.571754" y="187.505118" style="fill: #bfbbd9"/>
     <use xlink:href="#m300439e427" x="331.168309" y="186.230373" style="fill: #bfbbd9"/>
     <use xlink:href="#m300439e427" x="333.764864" y="186.655288" style="fill: #bfbbd9"/>
     <use xlink:href="#m300439e427" x="336.36142" y="190.196246" style="fill: #bfbbd9"/>
     <use xlink:href="#m300439e427" x="338.957975" y="190.196246" style="fill: #bfbbd9"/>
     <use xlink:href="#m300439e427" x="341.55453" y="190.337885" style="fill: #bfbbd9"/>
     <use xlink:href="#m300439e427" x="344.151086" y="185.380542" style="fill: #bfbbd9"/>
     <use xlink:href="#m300439e427" x="346.747641" y="184.955627" style="fill: #bfbbd9"/>
     <use xlink:href="#m300439e427" x="349.344196" y="185.097266" style="fill: #bfbbd9"/>
     <use xlink:href="#m300439e427" x="351.940752" y="186.655288" style="fill: #bfbbd9"/>
     <use xlink:href="#m300439e427" x="354.537307" y="184.247436" style="fill: #bfbbd9"/>
     <use xlink:href="#m300439e427" x="357.133862" y="181.697945" style="fill: #bfbbd9"/>
     <use xlink:href="#m300439e427" x="359.730418" y="183.964159" style="fill: #bfbbd9"/>
     <use xlink:href="#m300439e427" x="362.326973" y="184.105797" style="fill: #bfbbd9"/>
     <use xlink:href="#m300439e427" x="364.923528" y="182.264499" style="fill: #bfbbd9"/>
     <use xlink:href="#m300439e427" x="367.520084" y="182.264499" style="fill: #bfbbd9"/>
     <use xlink:href="#m300439e427" x="370.116639" y="182.831052" style="fill: #bfbbd9"/>
     <use xlink:href="#m300439e427" x="372.713194" y="190.621161" style="fill: #bfbbd9"/>
     <use xlink:href="#m300439e427" x="375.30975" y="188.496586" style="fill: #bfbbd9"/>
     <use xlink:href="#m300439e427" x="377.906305" y="189.204778" style="fill: #bfbbd9"/>
     <use xlink:href="#m300439e427" x="380.50286" y="188.213309" style="fill: #bfbbd9"/>
     <use xlink:href="#m300439e427" x="383.099416" y="190.054608" style="fill: #bfbbd9"/>
     <use xlink:href="#m300439e427" x="385.695971" y="183.114329" style="fill: #bfbbd9"/>
     <use xlink:href="#m300439e427" x="388.292526" y="187.788394" style="fill: #bfbbd9"/>
     <use xlink:href="#m300439e427" x="390.889082" y="186.796926" style="fill: #bfbbd9"/>
     <use xlink:href="#m300439e427" x="393.485637" y="187.788394" style="fill: #bfbbd9"/>
     <use xlink:href="#m300439e427" x="396.082192" y="191.470991" style="fill: #bfbbd9"/>
     <use xlink:href="#m300439e427" x="398.678748" y="191.187715" style="fill: #bfbbd9"/>
     <use xlink:href="#m300439e427" x="401.275303" y="196.71161" style="fill: #bfbbd9"/>
     <use xlink:href="#m300439e427" x="403.871858" y="189.346416" style="fill: #bfbbd9"/>
     <use xlink:href="#m300439e427" x="406.468414" y="196.286695" style="fill: #bfbbd9"/>
     <use xlink:href="#m300439e427" x="409.064969" y="194.020482" style="fill: #bfbbd9"/>
     <use xlink:href="#m300439e427" x="411.661524" y="194.587035" style="fill: #bfbbd9"/>
     <use xlink:href="#m300439e427" x="414.258079" y="199.261101" style="fill: #bfbbd9"/>
     <use xlink:href="#m300439e427" x="416.854635" y="197.136525" style="fill: #bfbbd9"/>
     <use xlink:href="#m300439e427" x="419.45119" y="198.127994" style="fill: #bfbbd9"/>
     <use xlink:href="#m300439e427" x="422.047745" y="192.745737" style="fill: #bfbbd9"/>
     <use xlink:href="#m300439e427" x="424.644301" y="199.544377" style="fill: #bfbbd9"/>
     <use xlink:href="#m300439e427" x="427.240856" y="200.252569" style="fill: #bfbbd9"/>
     <use xlink:href="#m300439e427" x="429.837411" y="200.677484" style="fill: #bfbbd9"/>
     <use xlink:href="#m300439e427" x="432.433967" y="199.686016" style="fill: #bfbbd9"/>
     <use xlink:href="#m300439e427" x="435.030522" y="195.86178" style="fill: #bfbbd9"/>
     <use xlink:href="#m300439e427" x="437.627077" y="197.419802" style="fill: #bfbbd9"/>
     <use xlink:href="#m300439e427" x="440.223633" y="201.385676" style="fill: #bfbbd9"/>
    </g>
   </g>
   <g id="matplotlib.axis_1">
    <g id="xtick_1">
     <g id="line2d_1">
      <defs>
       <path id="meb9157b90a" d="M 0 0 
L 0 -5 
" style="stroke: #ffffff; stroke-width: 0.8"/>
      </defs>
      <g>
       <use xlink:href="#meb9157b90a" x="76.705887" y="298.22952" style="fill: #ffffff; stroke: #ffffff; stroke-width: 0.8"/>
      </g>
     </g>
     <g id="line2d_2">
      <defs>
       <path id="mb30df6eebc" d="M 0 0 
L 0 5 
" style="stroke: #ffffff; stroke-width: 0.8"/>
      </defs>
      <g>
       <use xlink:href="#mb30df6eebc" x="76.705887" y="3.6" style="fill: #ffffff; stroke: #ffffff; stroke-width: 0.8"/>
      </g>
     </g>
     <g id="text_1">
      <!-- 0 -->
      <g style="fill: #ffffff" transform="translate(71.615887 320.38702) scale(0.16 -0.16)">
       <defs>
        <path id="DejaVuSans-30" d="M 2034 4250 
Q 1547 4250 1301 3770 
Q 1056 3291 1056 2328 
Q 1056 1369 1301 889 
Q 1547 409 2034 409 
Q 2525 409 2770 889 
Q 3016 1369 3016 2328 
Q 3016 3291 2770 3770 
Q 2525 4250 2034 4250 
z
M 2034 4750 
Q 2819 4750 3233 4129 
Q 3647 3509 3647 2328 
Q 3647 1150 3233 529 
Q 2819 -91 2034 -91 
Q 1250 -91 836 529 
Q 422 1150 422 2328 
Q 422 3509 836 4129 
Q 1250 4750 2034 4750 
z
" transform="scale(0.015625)"/>
       </defs>
       <use xlink:href="#DejaVuSans-30"/>
      </g>
     </g>
    </g>
    <g id="xtick_2">
     <g id="line2d_3">
      <g>
       <use xlink:href="#meb9157b90a" x="128.636994" y="298.22952" style="fill: #ffffff; stroke: #ffffff; stroke-width: 0.8"/>
      </g>
     </g>
     <g id="line2d_4">
      <g>
       <use xlink:href="#mb30df6eebc" x="128.636994" y="3.6" style="fill: #ffffff; stroke: #ffffff; stroke-width: 0.8"/>
      </g>
     </g>
     <g id="text_2">
      <!-- 20 -->
      <g style="fill: #ffffff" transform="translate(118.456994 320.38702) scale(0.16 -0.16)">
       <defs>
        <path id="DejaVuSans-32" d="M 1228 531 
L 3431 531 
L 3431 0 
L 469 0 
L 469 531 
Q 828 903 1448 1529 
Q 2069 2156 2228 2338 
Q 2531 2678 2651 2914 
Q 2772 3150 2772 3378 
Q 2772 3750 2511 3984 
Q 2250 4219 1831 4219 
Q 1534 4219 1204 4116 
Q 875 4013 500 3803 
L 500 4441 
Q 881 4594 1212 4672 
Q 1544 4750 1819 4750 
Q 2544 4750 2975 4387 
Q 3406 4025 3406 3419 
Q 3406 3131 3298 2873 
Q 3191 2616 2906 2266 
Q 2828 2175 2409 1742 
Q 1991 1309 1228 531 
z
" transform="scale(0.015625)"/>
       </defs>
       <use xlink:href="#DejaVuSans-32"/>
       <use xlink:href="#DejaVuSans-30" x="63.623047"/>
      </g>
     </g>
    </g>
    <g id="xtick_3">
     <g id="line2d_5">
      <g>
       <use xlink:href="#meb9157b90a" x="180.5681" y="298.22952" style="fill: #ffffff; stroke: #ffffff; stroke-width: 0.8"/>
      </g>
     </g>
     <g id="line2d_6">
      <g>
       <use xlink:href="#mb30df6eebc" x="180.5681" y="3.6" style="fill: #ffffff; stroke: #ffffff; stroke-width: 0.8"/>
      </g>
     </g>
     <g id="text_3">
      <!-- 40 -->
      <g style="fill: #ffffff" transform="translate(170.3881 320.38702) scale(0.16 -0.16)">
       <defs>
        <path id="DejaVuSans-34" d="M 2419 4116 
L 825 1625 
L 2419 1625 
L 2419 4116 
z
M 2253 4666 
L 3047 4666 
L 3047 1625 
L 3713 1625 
L 3713 1100 
L 3047 1100 
L 3047 0 
L 2419 0 
L 2419 1100 
L 313 1100 
L 313 1709 
L 2253 4666 
z
" transform="scale(0.015625)"/>
       </defs>
       <use xlink:href="#DejaVuSans-34"/>
       <use xlink:href="#DejaVuSans-30" x="63.623047"/>
      </g>
     </g>
    </g>
    <g id="xtick_4">
     <g id="line2d_7">
      <g>
       <use xlink:href="#meb9157b90a" x="232.499207" y="298.22952" style="fill: #ffffff; stroke: #ffffff; stroke-width: 0.8"/>
      </g>
     </g>
     <g id="line2d_8">
      <g>
       <use xlink:href="#mb30df6eebc" x="232.499207" y="3.6" style="fill: #ffffff; stroke: #ffffff; stroke-width: 0.8"/>
      </g>
     </g>
     <g id="text_4">
      <!-- 60 -->
      <g style="fill: #ffffff" transform="translate(222.319207 320.38702) scale(0.16 -0.16)">
       <defs>
        <path id="DejaVuSans-36" d="M 2113 2584 
Q 1688 2584 1439 2293 
Q 1191 2003 1191 1497 
Q 1191 994 1439 701 
Q 1688 409 2113 409 
Q 2538 409 2786 701 
Q 3034 994 3034 1497 
Q 3034 2003 2786 2293 
Q 2538 2584 2113 2584 
z
M 3366 4563 
L 3366 3988 
Q 3128 4100 2886 4159 
Q 2644 4219 2406 4219 
Q 1781 4219 1451 3797 
Q 1122 3375 1075 2522 
Q 1259 2794 1537 2939 
Q 1816 3084 2150 3084 
Q 2853 3084 3261 2657 
Q 3669 2231 3669 1497 
Q 3669 778 3244 343 
Q 2819 -91 2113 -91 
Q 1303 -91 875 529 
Q 447 1150 447 2328 
Q 447 3434 972 4092 
Q 1497 4750 2381 4750 
Q 2619 4750 2861 4703 
Q 3103 4656 3366 4563 
z
" transform="scale(0.015625)"/>
       </defs>
       <use xlink:href="#DejaVuSans-36"/>
       <use xlink:href="#DejaVuSans-30" x="63.623047"/>
      </g>
     </g>
    </g>
    <g id="xtick_5">
     <g id="line2d_9">
      <g>
       <use xlink:href="#meb9157b90a" x="284.430313" y="298.22952" style="fill: #ffffff; stroke: #ffffff; stroke-width: 0.8"/>
      </g>
     </g>
     <g id="line2d_10">
      <g>
       <use xlink:href="#mb30df6eebc" x="284.430313" y="3.6" style="fill: #ffffff; stroke: #ffffff; stroke-width: 0.8"/>
      </g>
     </g>
     <g id="text_5">
      <!-- 80 -->
      <g style="fill: #ffffff" transform="translate(274.250313 320.38702) scale(0.16 -0.16)">
       <defs>
        <path id="DejaVuSans-38" d="M 2034 2216 
Q 1584 2216 1326 1975 
Q 1069 1734 1069 1313 
Q 1069 891 1326 650 
Q 1584 409 2034 409 
Q 2484 409 2743 651 
Q 3003 894 3003 1313 
Q 3003 1734 2745 1975 
Q 2488 2216 2034 2216 
z
M 1403 2484 
Q 997 2584 770 2862 
Q 544 3141 544 3541 
Q 544 4100 942 4425 
Q 1341 4750 2034 4750 
Q 2731 4750 3128 4425 
Q 3525 4100 3525 3541 
Q 3525 3141 3298 2862 
Q 3072 2584 2669 2484 
Q 3125 2378 3379 2068 
Q 3634 1759 3634 1313 
Q 3634 634 3220 271 
Q 2806 -91 2034 -91 
Q 1263 -91 848 271 
Q 434 634 434 1313 
Q 434 1759 690 2068 
Q 947 2378 1403 2484 
z
M 1172 3481 
Q 1172 3119 1398 2916 
Q 1625 2713 2034 2713 
Q 2441 2713 2670 2916 
Q 2900 3119 2900 3481 
Q 2900 3844 2670 4047 
Q 2441 4250 2034 4250 
Q 1625 4250 1398 4047 
Q 1172 3844 1172 3481 
z
" transform="scale(0.015625)"/>
       </defs>
       <use xlink:href="#DejaVuSans-38"/>
       <use xlink:href="#DejaVuSans-30" x="63.623047"/>
      </g>
     </g>
    </g>
    <g id="xtick_6">
     <g id="line2d_11">
      <g>
       <use xlink:href="#meb9157b90a" x="336.36142" y="298.22952" style="fill: #ffffff; stroke: #ffffff; stroke-width: 0.8"/>
      </g>
     </g>
     <g id="line2d_12">
      <g>
       <use xlink:href="#mb30df6eebc" x="336.36142" y="3.6" style="fill: #ffffff; stroke: #ffffff; stroke-width: 0.8"/>
      </g>
     </g>
     <g id="text_6">
      <!-- 100 -->
      <g style="fill: #ffffff" transform="translate(321.09142 320.38702) scale(0.16 -0.16)">
       <defs>
        <path id="DejaVuSans-31" d="M 794 531 
L 1825 531 
L 1825 4091 
L 703 3866 
L 703 4441 
L 1819 4666 
L 2450 4666 
L 2450 531 
L 3481 531 
L 3481 0 
L 794 0 
L 794 531 
z
" transform="scale(0.015625)"/>
       </defs>
       <use xlink:href="#DejaVuSans-31"/>
       <use xlink:href="#DejaVuSans-30" x="63.623047"/>
       <use xlink:href="#DejaVuSans-30" x="127.246094"/>
      </g>
     </g>
    </g>
    <g id="xtick_7">
     <g id="line2d_13">
      <g>
       <use xlink:href="#meb9157b90a" x="388.292526" y="298.22952" style="fill: #ffffff; stroke: #ffffff; stroke-width: 0.8"/>
      </g>
     </g>
     <g id="line2d_14">
      <g>
       <use xlink:href="#mb30df6eebc" x="388.292526" y="3.6" style="fill: #ffffff; stroke: #ffffff; stroke-width: 0.8"/>
      </g>
     </g>
     <g id="text_7">
      <!-- 120 -->
      <g style="fill: #ffffff" transform="translate(373.022526 320.38702) scale(0.16 -0.16)">
       <use xlink:href="#DejaVuSans-31"/>
       <use xlink:href="#DejaVuSans-32" x="63.623047"/>
       <use xlink:href="#DejaVuSans-30" x="127.246094"/>
      </g>
     </g>
    </g>
    <g id="xtick_8">
     <g id="line2d_15">
      <g>
       <use xlink:href="#meb9157b90a" x="440.223633" y="298.22952" style="fill: #ffffff; stroke: #ffffff; stroke-width: 0.8"/>
      </g>
     </g>
     <g id="line2d_16">
      <g>
       <use xlink:href="#mb30df6eebc" x="440.223633" y="3.6" style="fill: #ffffff; stroke: #ffffff; stroke-width: 0.8"/>
      </g>
     </g>
     <g id="text_8">
      <!-- 140 -->
      <g style="fill: #ffffff" transform="translate(424.953633 320.38702) scale(0.16 -0.16)">
       <use xlink:href="#DejaVuSans-31"/>
       <use xlink:href="#DejaVuSans-34" x="63.623047"/>
       <use xlink:href="#DejaVuSans-30" x="127.246094"/>
      </g>
     </g>
    </g>
    <g id="text_9">
     <!-- index -->
     <g style="fill: #ffffff" transform="translate(236.57601 339.87202) scale(0.16 -0.16)">
      <defs>
       <path id="DejaVuSans-69" d="M 603 3500 
L 1178 3500 
L 1178 0 
L 603 0 
L 603 3500 
z
M 603 4863 
L 1178 4863 
L 1178 4134 
L 603 4134 
L 603 4863 
z
" transform="scale(0.015625)"/>
       <path id="DejaVuSans-6e" d="M 3513 2113 
L 3513 0 
L 2938 0 
L 2938 2094 
Q 2938 2591 2744 2837 
Q 2550 3084 2163 3084 
Q 1697 3084 1428 2787 
Q 1159 2491 1159 1978 
L 1159 0 
L 581 0 
L 581 3500 
L 1159 3500 
L 1159 2956 
Q 1366 3272 1645 3428 
Q 1925 3584 2291 3584 
Q 2894 3584 3203 3211 
Q 3513 2838 3513 2113 
z
" transform="scale(0.015625)"/>
       <path id="DejaVuSans-64" d="M 2906 2969 
L 2906 4863 
L 3481 4863 
L 3481 0 
L 2906 0 
L 2906 525 
Q 2725 213 2448 61 
Q 2172 -91 1784 -91 
Q 1150 -91 751 415 
Q 353 922 353 1747 
Q 353 2572 751 3078 
Q 1150 3584 1784 3584 
Q 2172 3584 2448 3432 
Q 2725 3281 2906 2969 
z
M 947 1747 
Q 947 1113 1208 752 
Q 1469 391 1925 391 
Q 2381 391 2643 752 
Q 2906 1113 2906 1747 
Q 2906 2381 2643 2742 
Q 2381 3103 1925 3103 
Q 1469 3103 1208 2742 
Q 947 2381 947 1747 
z
" transform="scale(0.015625)"/>
       <path id="DejaVuSans-65" d="M 3597 1894 
L 3597 1613 
L 953 1613 
Q 991 1019 1311 708 
Q 1631 397 2203 397 
Q 2534 397 2845 478 
Q 3156 559 3463 722 
L 3463 178 
Q 3153 47 2828 -22 
Q 2503 -91 2169 -91 
Q 1331 -91 842 396 
Q 353 884 353 1716 
Q 353 2575 817 3079 
Q 1281 3584 2069 3584 
Q 2775 3584 3186 3129 
Q 3597 2675 3597 1894 
z
M 3022 2063 
Q 3016 2534 2758 2815 
Q 2500 3097 2075 3097 
Q 1594 3097 1305 2825 
Q 1016 2553 972 2059 
L 3022 2063 
z
" transform="scale(0.015625)"/>
       <path id="DejaVuSans-78" d="M 3513 3500 
L 2247 1797 
L 3578 0 
L 2900 0 
L 1881 1375 
L 863 0 
L 184 0 
L 1544 1831 
L 300 3500 
L 978 3500 
L 1906 2253 
L 2834 3500 
L 3513 3500 
z
" transform="scale(0.015625)"/>
      </defs>
      <use xlink:href="#DejaVuSans-69"/>
      <use xlink:href="#DejaVuSans-6e" x="27.783203"/>
      <use xlink:href="#DejaVuSans-64" x="91.162109"/>
      <use xlink:href="#DejaVuSans-65" x="154.638672"/>
      <use xlink:href="#DejaVuSans-78" x="214.412109"/>
     </g>
    </g>
   </g>
   <g id="matplotlib.axis_2">
    <g id="ytick_1">
     <g id="line2d_17">
      <defs>
       <path id="m664097f0ec" d="M 0 0 
L 5 0 
" style="stroke: #ffffff; stroke-width: 0.8"/>
      </defs>
      <g>
       <use xlink:href="#m664097f0ec" x="58.53" y="246.285032" style="fill: #ffffff; stroke: #ffffff; stroke-width: 0.8"/>
      </g>
     </g>
     <g id="line2d_18">
      <defs>
       <path id="m8231953560" d="M 0 0 
L -5 0 
" style="stroke: #ffffff; stroke-width: 0.8"/>
      </defs>
      <g>
       <use xlink:href="#m8231953560" x="458.39952" y="246.285032" style="fill: #ffffff; stroke: #ffffff; stroke-width: 0.8"/>
      </g>
     </g>
     <g id="text_10">
      <!-- 1.0 -->
      <g style="fill: #ffffff" transform="translate(23.085 252.363782) scale(0.16 -0.16)">
       <defs>
        <path id="DejaVuSans-2e" d="M 684 794 
L 1344 794 
L 1344 0 
L 684 0 
L 684 794 
z
" transform="scale(0.015625)"/>
       </defs>
       <use xlink:href="#DejaVuSans-31"/>
       <use xlink:href="#DejaVuSans-2e" x="63.623047"/>
       <use xlink:href="#DejaVuSans-30" x="95.410156"/>
      </g>
     </g>
    </g>
    <g id="ytick_2">
     <g id="line2d_19">
      <g>
       <use xlink:href="#m664097f0ec" x="58.53" y="190.904438" style="fill: #ffffff; stroke: #ffffff; stroke-width: 0.8"/>
      </g>
     </g>
     <g id="line2d_20">
      <g>
       <use xlink:href="#m8231953560" x="458.39952" y="190.904438" style="fill: #ffffff; stroke: #ffffff; stroke-width: 0.8"/>
      </g>
     </g>
     <g id="text_11">
      <!-- 1.5 -->
      <g style="fill: #ffffff" transform="translate(23.085 196.983188) scale(0.16 -0.16)">
       <defs>
        <path id="DejaVuSans-35" d="M 691 4666 
L 3169 4666 
L 3169 4134 
L 1269 4134 
L 1269 2991 
Q 1406 3038 1543 3061 
Q 1681 3084 1819 3084 
Q 2600 3084 3056 2656 
Q 3513 2228 3513 1497 
Q 3513 744 3044 326 
Q 2575 -91 1722 -91 
Q 1428 -91 1123 -41 
Q 819 9 494 109 
L 494 744 
Q 775 591 1075 516 
Q 1375 441 1709 441 
Q 2250 441 2565 725 
Q 2881 1009 2881 1497 
Q 2881 1984 2565 2268 
Q 2250 2553 1709 2553 
Q 1456 2553 1204 2497 
Q 953 2441 691 2322 
L 691 4666 
z
" transform="scale(0.015625)"/>
       </defs>
       <use xlink:href="#DejaVuSans-31"/>
       <use xlink:href="#DejaVuSans-2e" x="63.623047"/>
       <use xlink:href="#DejaVuSans-35" x="95.410156"/>
      </g>
     </g>
    </g>
    <g id="ytick_3">
     <g id="line2d_21">
      <g>
       <use xlink:href="#m664097f0ec" x="58.53" y="135.523844" style="fill: #ffffff; stroke: #ffffff; stroke-width: 0.8"/>
      </g>
     </g>
     <g id="line2d_22">
      <g>
       <use xlink:href="#m8231953560" x="458.39952" y="135.523844" style="fill: #ffffff; stroke: #ffffff; stroke-width: 0.8"/>
      </g>
     </g>
     <g id="text_12">
      <!-- 2.0 -->
      <g style="fill: #ffffff" transform="translate(23.085 141.602594) scale(0.16 -0.16)">
       <use xlink:href="#DejaVuSans-32"/>
       <use xlink:href="#DejaVuSans-2e" x="63.623047"/>
       <use xlink:href="#DejaVuSans-30" x="95.410156"/>
      </g>
     </g>
    </g>
    <g id="ytick_4">
     <g id="line2d_23">
      <g>
       <use xlink:href="#m664097f0ec" x="58.53" y="80.14325" style="fill: #ffffff; stroke: #ffffff; stroke-width: 0.8"/>
      </g>
     </g>
     <g id="line2d_24">
      <g>
       <use xlink:href="#m8231953560" x="458.39952" y="80.14325" style="fill: #ffffff; stroke: #ffffff; stroke-width: 0.8"/>
      </g>
     </g>
     <g id="text_13">
      <!-- 2.5 -->
      <g style="fill: #ffffff" transform="translate(23.085 86.222) scale(0.16 -0.16)">
       <use xlink:href="#DejaVuSans-32"/>
       <use xlink:href="#DejaVuSans-2e" x="63.623047"/>
       <use xlink:href="#DejaVuSans-35" x="95.410156"/>
      </g>
     </g>
    </g>
    <g id="ytick_5">
     <g id="line2d_25">
      <g>
       <use xlink:href="#m664097f0ec" x="58.53" y="24.762655" style="fill: #ffffff; stroke: #ffffff; stroke-width: 0.8"/>
      </g>
     </g>
     <g id="line2d_26">
      <g>
       <use xlink:href="#m8231953560" x="458.39952" y="24.762655" style="fill: #ffffff; stroke: #ffffff; stroke-width: 0.8"/>
      </g>
     </g>
     <g id="text_14">
      <!-- 3.0 -->
      <g style="fill: #ffffff" transform="translate(23.085 30.841405) scale(0.16 -0.16)">
       <defs>
        <path id="DejaVuSans-33" d="M 2597 2516 
Q 3050 2419 3304 2112 
Q 3559 1806 3559 1356 
Q 3559 666 3084 287 
Q 2609 -91 1734 -91 
Q 1441 -91 1130 -33 
Q 819 25 488 141 
L 488 750 
Q 750 597 1062 519 
Q 1375 441 1716 441 
Q 2309 441 2620 675 
Q 2931 909 2931 1356 
Q 2931 1769 2642 2001 
Q 2353 2234 1838 2234 
L 1294 2234 
L 1294 2753 
L 1863 2753 
Q 2328 2753 2575 2939 
Q 2822 3125 2822 3475 
Q 2822 3834 2567 4026 
Q 2313 4219 1838 4219 
Q 1578 4219 1281 4162 
Q 984 4106 628 3988 
L 628 4550 
Q 988 4650 1302 4700 
Q 1616 4750 1894 4750 
Q 2613 4750 3031 4423 
Q 3450 4097 3450 3541 
Q 3450 3153 3228 2886 
Q 3006 2619 2597 2516 
z
" transform="scale(0.015625)"/>
       </defs>
       <use xlink:href="#DejaVuSans-33"/>
       <use xlink:href="#DejaVuSans-2e" x="63.623047"/>
       <use xlink:href="#DejaVuSans-30" x="95.410156"/>
      </g>
     </g>
    </g>
    <g id="text_15">
     <!-- fold change in cell count -->
     <g style="fill: #ffffff" transform="translate(15.7575 249.16851) rotate(-90) scale(0.16 -0.16)">
      <defs>
       <path id="DejaVuSans-66" d="M 2375 4863 
L 2375 4384 
L 1825 4384 
Q 1516 4384 1395 4259 
Q 1275 4134 1275 3809 
L 1275 3500 
L 2222 3500 
L 2222 3053 
L 1275 3053 
L 1275 0 
L 697 0 
L 697 3053 
L 147 3053 
L 147 3500 
L 697 3500 
L 697 3744 
Q 697 4328 969 4595 
Q 1241 4863 1831 4863 
L 2375 4863 
z
" transform="scale(0.015625)"/>
       <path id="DejaVuSans-6f" d="M 1959 3097 
Q 1497 3097 1228 2736 
Q 959 2375 959 1747 
Q 959 1119 1226 758 
Q 1494 397 1959 397 
Q 2419 397 2687 759 
Q 2956 1122 2956 1747 
Q 2956 2369 2687 2733 
Q 2419 3097 1959 3097 
z
M 1959 3584 
Q 2709 3584 3137 3096 
Q 3566 2609 3566 1747 
Q 3566 888 3137 398 
Q 2709 -91 1959 -91 
Q 1206 -91 779 398 
Q 353 888 353 1747 
Q 353 2609 779 3096 
Q 1206 3584 1959 3584 
z
" transform="scale(0.015625)"/>
       <path id="DejaVuSans-6c" d="M 603 4863 
L 1178 4863 
L 1178 0 
L 603 0 
L 603 4863 
z
" transform="scale(0.015625)"/>
       <path id="DejaVuSans-20" transform="scale(0.015625)"/>
       <path id="DejaVuSans-63" d="M 3122 3366 
L 3122 2828 
Q 2878 2963 2633 3030 
Q 2388 3097 2138 3097 
Q 1578 3097 1268 2742 
Q 959 2388 959 1747 
Q 959 1106 1268 751 
Q 1578 397 2138 397 
Q 2388 397 2633 464 
Q 2878 531 3122 666 
L 3122 134 
Q 2881 22 2623 -34 
Q 2366 -91 2075 -91 
Q 1284 -91 818 406 
Q 353 903 353 1747 
Q 353 2603 823 3093 
Q 1294 3584 2113 3584 
Q 2378 3584 2631 3529 
Q 2884 3475 3122 3366 
z
" transform="scale(0.015625)"/>
       <path id="DejaVuSans-68" d="M 3513 2113 
L 3513 0 
L 2938 0 
L 2938 2094 
Q 2938 2591 2744 2837 
Q 2550 3084 2163 3084 
Q 1697 3084 1428 2787 
Q 1159 2491 1159 1978 
L 1159 0 
L 581 0 
L 581 4863 
L 1159 4863 
L 1159 2956 
Q 1366 3272 1645 3428 
Q 1925 3584 2291 3584 
Q 2894 3584 3203 3211 
Q 3513 2838 3513 2113 
z
" transform="scale(0.015625)"/>
       <path id="DejaVuSans-61" d="M 2194 1759 
Q 1497 1759 1228 1600 
Q 959 1441 959 1056 
Q 959 750 1161 570 
Q 1363 391 1709 391 
Q 2188 391 2477 730 
Q 2766 1069 2766 1631 
L 2766 1759 
L 2194 1759 
z
M 3341 1997 
L 3341 0 
L 2766 0 
L 2766 531 
Q 2569 213 2275 61 
Q 1981 -91 1556 -91 
Q 1019 -91 701 211 
Q 384 513 384 1019 
Q 384 1609 779 1909 
Q 1175 2209 1959 2209 
L 2766 2209 
L 2766 2266 
Q 2766 2663 2505 2880 
Q 2244 3097 1772 3097 
Q 1472 3097 1187 3025 
Q 903 2953 641 2809 
L 641 3341 
Q 956 3463 1253 3523 
Q 1550 3584 1831 3584 
Q 2591 3584 2966 3190 
Q 3341 2797 3341 1997 
z
" transform="scale(0.015625)"/>
       <path id="DejaVuSans-67" d="M 2906 1791 
Q 2906 2416 2648 2759 
Q 2391 3103 1925 3103 
Q 1463 3103 1205 2759 
Q 947 2416 947 1791 
Q 947 1169 1205 825 
Q 1463 481 1925 481 
Q 2391 481 2648 825 
Q 2906 1169 2906 1791 
z
M 3481 434 
Q 3481 -459 3084 -895 
Q 2688 -1331 1869 -1331 
Q 1566 -1331 1297 -1286 
Q 1028 -1241 775 -1147 
L 775 -588 
Q 1028 -725 1275 -790 
Q 1522 -856 1778 -856 
Q 2344 -856 2625 -561 
Q 2906 -266 2906 331 
L 2906 616 
Q 2728 306 2450 153 
Q 2172 0 1784 0 
Q 1141 0 747 490 
Q 353 981 353 1791 
Q 353 2603 747 3093 
Q 1141 3584 1784 3584 
Q 2172 3584 2450 3431 
Q 2728 3278 2906 2969 
L 2906 3500 
L 3481 3500 
L 3481 434 
z
" transform="scale(0.015625)"/>
       <path id="DejaVuSans-75" d="M 544 1381 
L 544 3500 
L 1119 3500 
L 1119 1403 
Q 1119 906 1312 657 
Q 1506 409 1894 409 
Q 2359 409 2629 706 
Q 2900 1003 2900 1516 
L 2900 3500 
L 3475 3500 
L 3475 0 
L 2900 0 
L 2900 538 
Q 2691 219 2414 64 
Q 2138 -91 1772 -91 
Q 1169 -91 856 284 
Q 544 659 544 1381 
z
M 1991 3584 
L 1991 3584 
z
" transform="scale(0.015625)"/>
       <path id="DejaVuSans-74" d="M 1172 4494 
L 1172 3500 
L 2356 3500 
L 2356 3053 
L 1172 3053 
L 1172 1153 
Q 1172 725 1289 603 
Q 1406 481 1766 481 
L 2356 481 
L 2356 0 
L 1766 0 
Q 1100 0 847 248 
Q 594 497 594 1153 
L 594 3053 
L 172 3053 
L 172 3500 
L 594 3500 
L 594 4494 
L 1172 4494 
z
" transform="scale(0.015625)"/>
      </defs>
      <use xlink:href="#DejaVuSans-66"/>
      <use xlink:href="#DejaVuSans-6f" x="35.205078"/>
      <use xlink:href="#DejaVuSans-6c" x="96.386719"/>
      <use xlink:href="#DejaVuSans-64" x="124.169922"/>
      <use xlink:href="#DejaVuSans-20" x="187.646484"/>
      <use xlink:href="#DejaVuSans-63" x="219.433594"/>
      <use xlink:href="#DejaVuSans-68" x="274.414062"/>
      <use xlink:href="#DejaVuSans-61" x="337.792969"/>
      <use xlink:href="#DejaVuSans-6e" x="399.072266"/>
      <use xlink:href="#DejaVuSans-67" x="462.451172"/>
      <use xlink:href="#DejaVuSans-65" x="525.927734"/>
      <use xlink:href="#DejaVuSans-20" x="587.451172"/>
      <use xlink:href="#DejaVuSans-69" x="619.238281"/>
      <use xlink:href="#DejaVuSans-6e" x="647.021484"/>
      <use xlink:href="#DejaVuSans-20" x="710.400391"/>
      <use xlink:href="#DejaVuSans-63" x="742.1875"/>
      <use xlink:href="#DejaVuSans-65" x="797.167969"/>
      <use xlink:href="#DejaVuSans-6c" x="858.691406"/>
      <use xlink:href="#DejaVuSans-6c" x="886.474609"/>
      <use xlink:href="#DejaVuSans-20" x="914.257812"/>
      <use xlink:href="#DejaVuSans-63" x="946.044922"/>
      <use xlink:href="#DejaVuSans-6f" x="1001.025391"/>
      <use xlink:href="#DejaVuSans-75" x="1062.207031"/>
      <use xlink:href="#DejaVuSans-6e" x="1125.585938"/>
      <use xlink:href="#DejaVuSans-74" x="1188.964844"/>
     </g>
    </g>
   </g>
   <g id="line2d_27">
    <path d="M 76.705887 255.372454 
L 81.898998 253.792033 
L 84.495553 253.396928 
L 87.092109 252.738419 
L 89.688664 251.157998 
L 94.881775 249.314173 
L 97.47833 248.260559 
L 100.074885 247.60205 
L 102.671441 246.285032 
L 105.267996 245.494822 
L 107.864551 244.968015 
L 110.461106 243.650997 
L 113.057662 242.597383 
L 115.654217 241.412067 
L 120.847328 239.568242 
L 123.443883 238.778031 
L 126.040438 237.724417 
L 128.636994 236.934207 
L 131.233549 236.275698 
L 133.830104 234.563575 
L 136.42666 233.641662 
L 139.023215 232.456346 
L 141.61977 230.744223 
L 144.216326 229.690609 
L 146.812881 227.715083 
L 152.005992 225.607854 
L 154.602547 224.422538 
L 157.199102 222.842117 
L 159.795658 222.183608 
L 162.392213 221.393398 
L 164.988768 220.208082 
L 167.585324 219.286169 
L 170.181879 217.705748 
L 172.778434 216.652134 
L 175.37499 215.071713 
L 180.5681 212.174274 
L 183.164656 210.857256 
L 185.761211 208.88173 
L 188.357766 207.169607 
L 190.954322 206.247694 
L 193.550877 204.667273 
L 196.147432 203.745361 
L 198.743988 201.243027 
L 201.340543 200.452816 
L 203.937098 199.135799 
L 209.130209 196.765167 
L 211.726764 195.316447 
L 214.323319 193.736026 
L 216.919875 192.55071 
L 219.51643 191.7605 
L 222.112985 190.706885 
L 224.709541 189.258166 
L 227.306096 187.677745 
L 229.902651 186.360727 
L 232.499207 185.438815 
L 235.095762 182.936481 
L 237.692317 181.092656 
L 240.288873 180.039042 
L 242.885428 177.931814 
L 245.481983 176.614796 
L 248.078539 175.034375 
L 250.675094 174.375866 
L 253.271649 173.19055 
L 255.868205 171.873532 
L 258.46476 170.424813 
L 261.061315 168.844392 
L 263.657871 168.054181 
L 266.254426 166.737163 
L 268.850981 165.815251 
L 271.447537 163.839724 
L 274.044092 162.522707 
L 276.640647 160.678882 
L 279.237203 159.756969 
L 281.833758 158.439952 
L 284.430313 156.727829 
L 287.026869 155.279109 
L 289.623424 152.908477 
L 292.219979 151.328056 
L 294.816535 150.14274 
L 297.41309 149.089126 
L 300.009645 146.850196 
L 302.606201 144.347862 
L 312.992422 136.840861 
L 315.588977 134.733633 
L 318.185532 133.416615 
L 320.782088 131.572791 
L 325.975198 126.963229 
L 328.571754 124.856 
L 338.957975 117.612403 
L 341.55453 116.163684 
L 344.151086 113.793052 
L 346.747641 111.159016 
L 349.344196 109.051788 
L 359.730418 97.330331 
L 364.923528 92.984172 
L 367.520084 90.218435 
L 370.116639 87.979505 
L 372.713194 86.530785 
L 377.906305 82.448031 
L 383.099416 77.311662 
L 385.695971 74.677626 
L 390.889082 68.751046 
L 393.485637 65.985309 
L 396.082192 62.692765 
L 398.678748 59.005115 
L 403.871858 53.868746 
L 406.468414 51.366413 
L 411.661524 44.649623 
L 414.258079 42.542394 
L 422.047745 35.035393 
L 424.644301 32.006253 
L 427.240856 29.240516 
L 432.433967 25.421164 
L 435.030522 22.918831 
L 440.223633 16.992251 
L 440.223633 16.992251 
" clip-path="url(#pce177ad733)" style="fill: none; stroke: #8dd3c7; stroke-width: 1.5; stroke-linecap: square"/>
   </g>
   <g id="line2d_28">
    <path d="M 76.705887 257.249913 
L 79.302443 255.6608 
L 81.898998 254.230598 
L 84.495553 253.436042 
L 87.092109 252.323662 
L 89.688664 250.89346 
L 92.285219 250.257815 
L 94.881775 248.668702 
L 97.47833 247.397411 
L 100.074885 246.443944 
L 102.671441 246.285032 
L 105.267996 245.331564 
L 107.864551 243.58354 
L 110.461106 242.153338 
L 113.057662 241.19987 
L 118.250772 238.657289 
L 120.847328 236.750353 
L 126.040438 235.796885 
L 133.830104 233.889949 
L 136.42666 232.936482 
L 139.023215 231.50628 
L 141.61977 230.870634 
L 144.216326 228.804787 
L 146.812881 228.328053 
L 149.409436 227.374585 
L 154.602547 226.421118 
L 157.199102 224.832004 
L 159.795658 223.08398 
L 162.392213 222.289423 
L 164.988768 220.70031 
L 167.585324 219.905753 
L 170.181879 218.634463 
L 172.778434 217.839906 
L 175.37499 216.886438 
L 177.971545 216.091882 
L 180.5681 215.138414 
L 183.164656 213.549301 
L 185.761211 212.436922 
L 188.357766 211.165631 
L 190.954322 210.053252 
L 193.550877 208.781961 
L 196.147432 207.669582 
L 198.743988 206.398291 
L 201.340543 204.332444 
L 203.937098 203.537888 
L 206.533654 202.425509 
L 209.130209 201.154218 
L 211.726764 200.041839 
L 214.323319 198.770548 
L 216.919875 197.81708 
L 219.51643 195.751233 
L 224.709541 193.844297 
L 227.306096 191.460628 
L 229.902651 190.348248 
L 232.499207 188.441313 
L 235.095762 187.487845 
L 237.692317 186.693288 
L 240.288873 185.580909 
L 245.481983 183.991796 
L 248.078539 183.038328 
L 250.675094 182.243771 
L 253.271649 181.767037 
L 255.868205 180.654658 
L 258.46476 179.70119 
L 261.061315 178.112077 
L 263.657871 177.476432 
L 266.254426 176.999698 
L 271.447537 175.728407 
L 274.044092 174.933851 
L 276.640647 174.774939 
L 281.833758 173.821471 
L 284.430313 173.503649 
L 287.026869 173.344737 
L 289.623424 172.550181 
L 292.219979 171.914536 
L 297.41309 170.961068 
L 300.009645 170.325422 
L 305.202756 170.0076 
L 307.799311 169.371954 
L 310.395866 168.577398 
L 312.992422 168.259575 
L 315.588977 167.465019 
L 318.185532 166.988285 
L 320.782088 166.988285 
L 323.378643 166.193728 
L 325.975198 165.875905 
L 328.571754 165.875905 
L 331.168309 165.399172 
L 333.764864 164.286792 
L 336.36142 164.286792 
L 338.957975 163.810058 
L 341.55453 163.651147 
L 344.151086 163.174413 
L 346.747641 162.379856 
L 349.344196 162.062034 
L 351.940752 161.426389 
L 354.537307 160.949655 
L 357.133862 160.314009 
L 359.730418 159.996187 
L 367.520084 158.565985 
L 370.116639 157.771428 
L 372.713194 157.453606 
L 377.906305 156.500138 
L 380.50286 155.864492 
L 385.695971 154.911025 
L 388.292526 154.752113 
L 390.889082 154.116468 
L 393.485637 153.798645 
L 396.082192 153.639734 
L 401.275303 152.050621 
L 403.871858 151.573887 
L 406.468414 151.256064 
L 411.661524 150.302596 
L 414.258079 149.50804 
L 416.854635 149.190217 
L 419.45119 148.554572 
L 424.644301 147.601104 
L 427.240856 146.965459 
L 429.837411 146.488725 
L 432.433967 145.694168 
L 435.030522 145.376345 
L 437.627077 144.581789 
L 440.223633 143.151587 
L 440.223633 143.151587 
" clip-path="url(#pce177ad733)" style="fill: none; stroke: #feffb3; stroke-width: 1.5; stroke-linecap: square"/>
   </g>
   <g id="line2d_29">
    <path d="M 76.705887 257.914957 
L 79.302443 257.084248 
L 81.898998 255.838185 
L 84.495553 254.315218 
L 87.092109 252.653801 
L 89.688664 251.546189 
L 92.285219 249.884771 
L 94.881775 248.777159 
L 97.47833 247.94645 
L 100.074885 246.97729 
L 102.671441 246.285032 
L 105.267996 245.17742 
L 107.864551 244.623614 
L 113.057662 242.685294 
L 115.654217 241.993036 
L 118.250772 241.716133 
L 120.847328 240.608521 
L 123.443883 239.916264 
L 126.040438 238.808652 
L 131.233549 237.147234 
L 136.42666 234.655107 
L 139.023215 233.96285 
L 141.61977 231.886078 
L 144.216326 231.055369 
L 149.409436 228.286339 
L 152.005992 226.209567 
L 154.602547 224.6866 
L 157.199102 223.71744 
L 159.795658 222.332925 
L 162.392213 220.533056 
L 164.988768 219.563896 
L 167.585324 218.317832 
L 172.778434 216.379511 
L 175.37499 215.687254 
L 177.971545 214.579642 
L 185.761211 210.841452 
L 188.357766 210.564549 
L 190.954322 209.318486 
L 196.147432 207.103262 
L 198.743988 205.718747 
L 201.340543 204.611135 
L 203.937098 204.057329 
L 206.533654 202.672814 
L 209.130209 201.149848 
L 211.726764 200.596042 
L 214.323319 199.349979 
L 287.026869 199.349979 
L 289.623424 197.550109 
L 440.223633 197.550109 
L 440.223633 197.550109 
" clip-path="url(#pce177ad733)" style="fill: none; stroke: #bfbbd9; stroke-width: 1.5; stroke-linecap: square"/>
   </g>
   <g id="patch_3">
    <path d="M 58.53 298.22952 
L 58.53 3.6 
" style="fill: none; stroke: #ffffff; stroke-width: 1.5; stroke-linejoin: miter; stroke-linecap: square"/>
   </g>
   <g id="patch_4">
    <path d="M 458.39952 298.22952 
L 458.39952 3.6 
" style="fill: none; stroke: #ffffff; stroke-width: 1.5; stroke-linejoin: miter; stroke-linecap: square"/>
   </g>
   <g id="patch_5">
    <path d="M 58.53 298.22952 
L 458.39952 298.22952 
" style="fill: none; stroke: #ffffff; stroke-width: 1.5; stroke-linejoin: miter; stroke-linecap: square"/>
   </g>
   <g id="patch_6">
    <path d="M 58.53 3.6 
L 458.39952 3.6 
" style="fill: none; stroke: #ffffff; stroke-width: 1.5; stroke-linejoin: miter; stroke-linecap: square"/>
   </g>
   <g id="legend_1">
    <g id="line2d_30">
     <path d="M 67.53 16.698438 
L 77.53 16.698438 
L 87.53 16.698438 
" style="fill: none; stroke: #8dd3c7; stroke-width: 1.5; stroke-linecap: square"/>
    </g>
    <g id="text_16">
     <!-- Control -->
     <g style="fill: #ffffff" transform="translate(95.53 20.198438) scale(0.1 -0.1)">
      <defs>
       <path id="DejaVuSans-43" d="M 4122 4306 
L 4122 3641 
Q 3803 3938 3442 4084 
Q 3081 4231 2675 4231 
Q 1875 4231 1450 3742 
Q 1025 3253 1025 2328 
Q 1025 1406 1450 917 
Q 1875 428 2675 428 
Q 3081 428 3442 575 
Q 3803 722 4122 1019 
L 4122 359 
Q 3791 134 3420 21 
Q 3050 -91 2638 -91 
Q 1578 -91 968 557 
Q 359 1206 359 2328 
Q 359 3453 968 4101 
Q 1578 4750 2638 4750 
Q 3056 4750 3426 4639 
Q 3797 4528 4122 4306 
z
" transform="scale(0.015625)"/>
       <path id="DejaVuSans-72" d="M 2631 2963 
Q 2534 3019 2420 3045 
Q 2306 3072 2169 3072 
Q 1681 3072 1420 2755 
Q 1159 2438 1159 1844 
L 1159 0 
L 581 0 
L 581 3500 
L 1159 3500 
L 1159 2956 
Q 1341 3275 1631 3429 
Q 1922 3584 2338 3584 
Q 2397 3584 2469 3576 
Q 2541 3569 2628 3553 
L 2631 2963 
z
" transform="scale(0.015625)"/>
      </defs>
      <use xlink:href="#DejaVuSans-43"/>
      <use xlink:href="#DejaVuSans-6f" x="69.824219"/>
      <use xlink:href="#DejaVuSans-6e" x="131.005859"/>
      <use xlink:href="#DejaVuSans-74" x="194.384766"/>
      <use xlink:href="#DejaVuSans-72" x="233.59375"/>
      <use xlink:href="#DejaVuSans-6f" x="272.457031"/>
      <use xlink:href="#DejaVuSans-6c" x="333.638672"/>
     </g>
    </g>
    <g id="line2d_31">
     <path d="M 67.53 31.376563 
L 77.53 31.376563 
L 87.53 31.376563 
" style="fill: none; stroke: #feffb3; stroke-width: 1.5; stroke-linecap: square"/>
    </g>
    <g id="text_17">
     <!-- 10um TMZ -->
     <g style="fill: #ffffff" transform="translate(95.53 34.876563) scale(0.1 -0.1)">
      <defs>
       <path id="DejaVuSans-6d" d="M 3328 2828 
Q 3544 3216 3844 3400 
Q 4144 3584 4550 3584 
Q 5097 3584 5394 3201 
Q 5691 2819 5691 2113 
L 5691 0 
L 5113 0 
L 5113 2094 
Q 5113 2597 4934 2840 
Q 4756 3084 4391 3084 
Q 3944 3084 3684 2787 
Q 3425 2491 3425 1978 
L 3425 0 
L 2847 0 
L 2847 2094 
Q 2847 2600 2669 2842 
Q 2491 3084 2119 3084 
Q 1678 3084 1418 2786 
Q 1159 2488 1159 1978 
L 1159 0 
L 581 0 
L 581 3500 
L 1159 3500 
L 1159 2956 
Q 1356 3278 1631 3431 
Q 1906 3584 2284 3584 
Q 2666 3584 2933 3390 
Q 3200 3197 3328 2828 
z
" transform="scale(0.015625)"/>
       <path id="DejaVuSans-54" d="M -19 4666 
L 3928 4666 
L 3928 4134 
L 2272 4134 
L 2272 0 
L 1638 0 
L 1638 4134 
L -19 4134 
L -19 4666 
z
" transform="scale(0.015625)"/>
       <path id="DejaVuSans-4d" d="M 628 4666 
L 1569 4666 
L 2759 1491 
L 3956 4666 
L 4897 4666 
L 4897 0 
L 4281 0 
L 4281 4097 
L 3078 897 
L 2444 897 
L 1241 4097 
L 1241 0 
L 628 0 
L 628 4666 
z
" transform="scale(0.015625)"/>
       <path id="DejaVuSans-5a" d="M 359 4666 
L 4025 4666 
L 4025 4184 
L 1075 531 
L 4097 531 
L 4097 0 
L 288 0 
L 288 481 
L 3238 4134 
L 359 4134 
L 359 4666 
z
" transform="scale(0.015625)"/>
      </defs>
      <use xlink:href="#DejaVuSans-31"/>
      <use xlink:href="#DejaVuSans-30" x="63.623047"/>
      <use xlink:href="#DejaVuSans-75" x="127.246094"/>
      <use xlink:href="#DejaVuSans-6d" x="190.625"/>
      <use xlink:href="#DejaVuSans-20" x="288.037109"/>
      <use xlink:href="#DejaVuSans-54" x="319.824219"/>
      <use xlink:href="#DejaVuSans-4d" x="380.908203"/>
      <use xlink:href="#DejaVuSans-5a" x="467.1875"/>
     </g>
    </g>
    <g id="line2d_32">
     <path d="M 67.53 46.054688 
L 77.53 46.054688 
L 87.53 46.054688 
" style="fill: none; stroke: #bfbbd9; stroke-width: 1.5; stroke-linecap: square"/>
    </g>
    <g id="text_18">
     <!-- 500um TMZ -->
     <g style="fill: #ffffff" transform="translate(95.53 49.554688) scale(0.1 -0.1)">
      <use xlink:href="#DejaVuSans-35"/>
      <use xlink:href="#DejaVuSans-30" x="63.623047"/>
      <use xlink:href="#DejaVuSans-30" x="127.246094"/>
      <use xlink:href="#DejaVuSans-75" x="190.869141"/>
      <use xlink:href="#DejaVuSans-6d" x="254.248047"/>
      <use xlink:href="#DejaVuSans-20" x="351.660156"/>
      <use xlink:href="#DejaVuSans-54" x="383.447266"/>
      <use xlink:href="#DejaVuSans-4d" x="444.53125"/>
      <use xlink:href="#DejaVuSans-5a" x="530.810547"/>
     </g>
    </g>
   </g>
  </g>
 </g>
 <defs>
  <clipPath id="pce177ad733">
   <rect x="58.53" y="3.6" width="399.86952" height="294.62952"/>
  </clipPath>
 </defs>
</svg>
